<svg id="Layer_1" data-name="Layer 1" xmlns="http://www.w3.org/2000/svg" viewBox="0 0 216.02 217.86"><defs><style>.cls-1{fill:#ffd100;}</style></defs><g id="perhonen_1" data-name="perhonen 1"><path class="cls-1" d="M216.74,146.93c-.46-.54-.87-1.08-1.43-1.74a1,1,0,0,0-.61.11c-2.35-.11-4.95-1-7-.21a28.21,28.21,0,0,0-12.8,8.91,1.24,1.24,0,0,1-.51-.54,6.74,6.74,0,0,1-.62.59c-2,1.63-4.13,3.21-6.12,4.9-1.07.87-2,2-3.06,3a13.36,13.36,0,0,1-2.6,2.33c-3.22,1.74-6.23,3.59-8.52,6.63-.61.82-1.89,1.15-2.76,1.74a1.28,1.28,0,0,0-.4,1.14c1.07,3.05,2.24,6.09,3.36,9.08,1,2.67,3.12,4.35,4.85,6.31a8.73,8.73,0,0,1,1.33,2.23,1.58,1.58,0,0,0,.15.81c.05.54.1,1,.15,1.36.26-.33.56-.65.87-1,.31,1,.66,2,1,3.15a7.83,7.83,0,0,1-.56,2.5,2.54,2.54,0,0,1-3.67,1,5.84,5.84,0,0,0-1.74-.76c-.87-.22-2.29-.6-2.5-.28a6.71,6.71,0,0,0-.46,3c0,2.88,1.53,4.94,3,7.23,1.12,1.74,1.43,4.13,1.79,6.25.56,3.8,1.32,7.66,1.17,11.47-.25,5.87.26,12-2.24,17.44a20.39,20.39,0,0,1-5.11,6.47c-2.14,1.8-4.89.87-7.55.82-4.18,0-7.6-2-11.22-3.26a68.77,68.77,0,0,1-11.22-5.39c-4.49-2.66-8.68-6-13.22-8.53A45.54,45.54,0,0,1,113.69,221c-3.11-4.19-6.89-8.32-7.14-14.08A41,41,0,0,1,107.82,196c.41-1.74,2.19-3.1,3.27-4.68,1-1.36.3-2.28-.87-3.1-.46-.05-.82-.16-1.12-.21a4.41,4.41,0,0,0-.77.21c-3.77.93-7.29-.49-10.92-1.3-6.07-1.31-10.45-5.38-15-9.68a126.52,126.52,0,0,1-12.15-13.8c-1.83-2.29-3-5.38-5.15-7.07-3.16-2.5-4.49-6.25-6.94-9.18-3.06-3.54-5.56-7.56-8.57-11.09-5.15-6-9.08-13-13.57-19.52-1.17-1.73-1.73-4-2.65-6a23.83,23.83,0,0,0-2-4.24c-2.65-4-3.88-8.32-1.28-12.67,1-1.68,3.27-2.88,5.16-3.69A13.47,13.47,0,0,1,46,89.86c2.5,1,5.2,1.52,7.55,2.83A52.28,52.28,0,0,1,60,96.28a1.06,1.06,0,0,0-.16.65,6.07,6.07,0,0,1,.31-.54c5.15.16,9.59,3,14.18,5,5,2.22,9.75,5.27,14.59,8,6.23,3.59,12.45,7.17,18.63,10.93a69.5,69.5,0,0,1,5.91,4.34c2.91,2.18,5.72,4.46,8.73,6.47s6.22,3.43,9,5.55c2.24,1.63,4,3.91,6,5.87q3.43,3.42,7,6.68c.61.54,1.42.82,2,1.36a2.32,2.32,0,0,1-.51.65c-.57.44-.92.87-1.43,1.25s-1.23.87-1.38.71c-2.91-2.45-5.71-5-8.62-7.45-1.43-1.19-3.06-2.06-4.54-3.26a27,27,0,0,1-3.27-3.31c-.2-.06-.35.05-.66.1-.41-.32-.61-.81-.92-1-1.94-1.36-4-2.44-5.87-3.91a97.13,97.13,0,0,0-17.6-11.69,17.77,17.77,0,0,0-12.8-1.3c-3.42.87-6.58,1-8.42-3.21-.25-.6-1.73-.6-2.65-.92a2.93,2.93,0,0,1-1.38-.71,4.38,4.38,0,0,1-.66-1.52c-.16,1-1.84,1.14-1.23,2.55.46,1.63.67,3.75,1.74,4.79A70.46,70.46,0,0,0,84.61,129c3.83,2.61,7.8,5.05,11.73,7.61,3.78,2.5,7.55,5,11.38,7.5,1.17.76,2.55,1.19,3.77,1.95,1.59.93,3.07,2.12,4.65,3.05,2.09,1.19,4.38,2,6.32,3.37.77.6,1,2.17,1.43,3.31-.92.17-1.94.66-2.7.44a24,24,0,0,1-4.64-2.18c-3.73-1.9-7.45-3.85-11.13-5.81-2.5-1.36-5-2.66-7.55-4.13a14.64,14.64,0,0,0-2.09-2.56,42.35,42.35,0,0,0-3.72-2.71A10.28,10.28,0,0,0,83.54,137c-1.28.27-2.5,1-3.78,1.25q-6.49,1.47-13,2.61a.61.61,0,0,0-.51-.17.93.93,0,0,1,.51.44c-.51,1-1.53,2.06-1.43,2.88.57,3.21,6.33,7.83,8.68,7.72a43.42,43.42,0,0,0,10.86-1.63c3.32-1,6.48-2.45,10.11-2.12a7.71,7.71,0,0,0,3.87-1.09c1.38-.65,2.09-.71,1.94,1.14a7.33,7.33,0,0,1-5.51,4.89c-5.61,1.36-11.27,2.56-16.94,3.81-3.47.81-4.54,2.88-2.55,6,1.58,2.44,3.83,4.4,5.77,6.68a4.26,4.26,0,0,0,.51.55,5,5,0,0,0,.51.54A50.45,50.45,0,0,0,87.72,176c2.5,2.23,5,5.06,7.91,6,3.82,1.19,7.91,2.5,12.09,1.46,1-.21,2.09.33,3.11.38a28.61,28.61,0,0,0,4.44,0c2.35-.32,4.54-1.73,7.09-1.14a3.58,3.58,0,0,0,2.09-.49c1.69-.7,3.37-1.41,5-2,.16.06.31-.05.62-.16,1.12-.33,2.09-.82,3.06-1,3-.82,5.86-1.58,8.82-2.23a22.17,22.17,0,0,1,4.64-.49c1,0,1.64.76.46,1.52a31.9,31.9,0,0,1-5.35,3.26c-2.91,1.31-6,2.23-9,3.37-.77.27-1.53.76-2.35,1-.51.16-1.12-.11-1.58.05-2.86.92-4.29,3.48-6.17,5.71-4.24,5.11-4.7,7.82-1.38,13.64a7.39,7.39,0,0,1,1.48,3.15c0,4.95,3.77,5.55,6.94,6.8.25.1.76.16.76.21-.35,2.61,1.43,3.86,3.17,4.41a5.73,5.73,0,0,1,4,4.13,13.2,13.2,0,0,0,1,1.74.54.54,0,0,0,.46.16,1.57,1.57,0,0,1-.46-.44c1.88-.21,2.55,1.36,3.41,2.72s1.38,3.75,2.66,4.3c2.45,1.19,5,3.58,8.11,1.84a6.81,6.81,0,0,0,.71,1.2c.21.22.62.27.92.54.15.06.31-.05.61-.16.92.92,1.64,1.9,2.45,2.72,1,1,2,1.85,3.06,2.88.16.05.31-.06.62-.16a6.68,6.68,0,0,0,1.17-.55c2.75-1.52,6.32-1.3,8.42-4.18.15,0,.3-.06.61-.17a10.55,10.55,0,0,0,1-2c.66-2,1.73-4,1.84-6a45.12,45.12,0,0,0-.57-10.21c-.76-3.7-2.39-7.18-3.36-10.82-1-3.86-2.2-7.83-2.3-11.8a21.7,21.7,0,0,0-3.88-11.52,19.67,19.67,0,0,0-2.8-3.1c-3.52-3.42-5.46-8-8-12.23-1.79-3.09-2.81-6.74-5.82-9-1.83-1.41-2.6-5.49-1.78-7.39a2,2,0,0,0,1,.16,3.26,3.26,0,0,1-1-.43c0-.17,0-.44.1-.44a1.34,1.34,0,0,0,.41-.54c1.48-.16,3-.44,4.44-.49,2.8-.11,4.28-1.2,5.25-4.29.82-2.72,1.12-10,.77-12.61a19.62,19.62,0,0,1,.25-4.19c.36-3.26.67-6.41,1.12-9.51.41-2.5,1-5,1.53-7.34.92-3.86,1.84-7.72,2.66-11.58.1-.43-.16-.92-.1-1.46.15-.17.4-.17.4,0a.56.56,0,0,0,.46.16,1.86,1.86,0,0,1-.46-.44c-.2,0-.35.06-.51.11a5.86,5.86,0,0,1-.91-.38c.25-.32.56-.6.86-.92-2.14-2,.82-.76.92-1.25a5.15,5.15,0,0,1-.2,1.36,2.68,2.68,0,0,0,.66,0c-.1-.49-.2-1-.31-1.57a11.48,11.48,0,0,0,0-1.31,12.19,12.19,0,0,0-.3-1.3,9.89,9.89,0,0,1-.21,1.19,5.42,5.42,0,0,1-.3.82c-.21-.27-.67-.55-.67-.76.11-.71.31-1.42.51-2.29.26-.32.67-.49.72-.7.1-.71,0-1.42.15-2a2.79,2.79,0,0,1,.26.81,1.82,1.82,0,0,0,.35-.11c-.15-.27-.3-.54-.46-.87a6.44,6.44,0,0,1,.62-.92,1.38,1.38,0,0,0-.11-.71,2,2,0,0,1,.36-.92,1.12,1.12,0,0,0,.61.16l-.46-.33a14.51,14.51,0,0,1,.36-2.55,8.76,8.76,0,0,1,.31,2,1.49,1.49,0,0,0-.79-1.85v-.27c1.3-1.52,1.45-3.05,1.76-4.73a3.52,3.52,0,0,1,.51-.71c0-.16-.05-.32-.11-.54a.66.66,0,0,1,.11-.38,1.33,1.33,0,0,0,.15-.65c-.1.16-.15.32-.26.48a4.85,4.85,0,0,1,1-4.18c.76-1.63,1.68-3.1,2.34-4.62a7.13,7.13,0,0,0,.21-2.45c1,.87-.77-3.64,1.17-.81a5.09,5.09,0,0,0,.31-1.25c.05-1.2.05-2.45.05-3.64,2,.27,1.07-1.8,1.73-2.61s.87-2.34,1.43-3.64a1.51,1.51,0,0,0-.1-.71,8.93,8.93,0,0,0,.1-1.63c.41-.6.92-1.25,1.43-2,1-2.39,3.21-3.1,5.2-4.35a1.51,1.51,0,0,0-.1-.71L185,40.94c.15-.16.56-.16.61-.27.1-.81.82-1.25,1.53-1.68,1-.65,1.84-1.63,2.81-2.39.4-.33.86-.55,1.32-.93.51-.22,1-.32,1.53-.54.51-.44,1-.71,1.53-1.09,1,0,2,.06,3.06,0a56.25,56.25,0,0,1,7,2.18c3.88,1.57,5.26,5.1,6,9,.21.92.36,1.85.62,2.77,1.68,4,3.16,8,2.75,12.5a6.81,6.81,0,0,0,.61,3.64c1.38,2.94.92,6,1,9,0,1.46-.25,3.26.41,4.34,2.35,3.81,1.38,8.27,2.45,12.29.92,3.59,1.33,7.34,2.35,10.92,1.12,3.86,3,7.5,3.87,11.36a24,24,0,0,1,.26,8.59,12.86,12.86,0,0,1-3.37,6.85c-1.37,1.52-3.67,3-3.21,5.82-.21.27-.56.54-.87,1a1.21,1.21,0,0,1-.41-.81,1.26,1.26,0,0,0,.16-.65c-.11.16-.16.32-.26.49-1.73.81-3.42,1.63-5.1,2.6-.71.6-1.89,1-.2,1.8.45.22.76.81,1.22,1,.61.38,1,1.36,2.14.27,2.71-2.33,9.95-1.57,12.91.82,1,.87,2.4,1.3,3.37,2.23a16.8,16.8,0,0,1,1.83,2.66c2.5,1.9,3.27,4.62,4,7.56.67,2.66,2,5.1,3,7.66.15.49.05,1.09.21,1.63,1.32,4.08,2.9,8,3.62,12.17a100,100,0,0,1,1,14.57,53.87,53.87,0,0,1-1,9.89c-.61,3.16-2.76,5-5.46,6.36-4.64,2.34-9.75,2.45-14.69,3.26-4.49.71-8.57-.54-12.71-2.17-3.93-1.52-8.11-2.34-12-3.91s-7.29-3.54-11.07-5.38a32.41,32.41,0,0,1-4.08-.38c0-.33-.05-.49-3.54-.71v-4.19l3.7-.16c3.77,3.32,8.52,4,13,5.44s9.19,2.12,13.47,4c2.5,1.09,3.63.92,5.26-1.2.66-.87,2.24-2.23,4-.32.76.87,3.36,1.14,4.08.43,1.12-1,3-2,2.4-4.67-.46-2.34-.11-5,2.34-6.69,2-1.36,2.86-3.48,3.27-6.14.41-2.5-.31-4.62-.41-6.85-.15-2.66-1.63-4.35-2.14-6.68.15-.17.41-.17.41,0,.15,0,.3-.06.61-.17,0-.16-.05-.32-.1-.65-.21,0-.36.05-.67.11a1.67,1.67,0,0,0-.36.54c-.51-1.14-1-2.34-1.53-3.64-.15-.76-.2-1.85-.51-2-2.24-.59-1.73-2.28-1.42-4a1.52,1.52,0,0,0-.11-.71,5.54,5.54,0,0,0-2.09-6,63.19,63.19,0,0,1-6-4.94,1,1,0,0,0-.61.1m-9.05-67.39c.05.21.15.38.25.81a7.73,7.73,0,0,1,2,.54c-1.83.66-4,.87-5.35,2.07-2.25,1.9-4,4.46-6,6.74-3.06,3.53-6.07,7-9.34,10.49-.25,0-.66,0-.76.22-.56,1-.82,2.23-1.58,2.88-4,3.59-3.47,9-4.9,13.59-1.23,3.86-.82,8.48-4.8,10.92a2,2,0,0,1-1.43-.43,22.4,22.4,0,0,1,.41-4.57c.77-3.15,1.89-6.25,2.5-9.4.26-1.42,1.63-2.88.15-4.57-.25-.27.62-1.74,1.23-2.66v-.72c-.1-.7-.2-1.39-.25-1.87a1.38,1.38,0,0,0,.45,0,1.1,1.1,0,0,1-.45-.59s0-.27.25-.27c.8-1.49-.25-1.6-1.21-1.92a2.9,2.9,0,0,1-1.3-1.29.25.25,0,0,1,.25.27,1.17,1.17,0,0,0,.45.06,1.15,1.15,0,0,1-.45-.59c-.2-.06-.35-.16-.5-.54a5.44,5.44,0,0,1-1-1.66,46.61,46.61,0,0,1-.85-4.6,10.17,10.17,0,0,1,.35-2c0-.16.2-.48.15-.48-1.66-1-5.17.8-5.62,2.83-.26,1.13-.31,2.25-.61,3.37-1.1,4.93-2.36,9.8-3.46,14.72-.81,3.42-1.51,6.9-2.06,10.43-.45,2.89-.65,5.83-1,8.72a33.67,33.67,0,0,0-.5,4.45c-.1,7.59-.15,15.19-.15,22.74a9,9,0,0,0,.55,3.9,38,38,0,0,0,3.32,5.25c1.4,2.14,2.66,2.14,4.57,0a1.1,1.1,0,0,1,.75-.27,1.17,1.17,0,0,0,.45.06,1.15,1.15,0,0,1-.45-.59c3-2.57,6-5.14,9.29-7.76.25-.32.51-.7.76-.8a1.38,1.38,0,0,0,.45,0,1.1,1.1,0,0,1-.45-.59,3.58,3.58,0,0,0,1.3-.37c1.76-1.45,3.47-2.89,5.18-4.45.3-.26.35-.85.8-1.33a1.57,1.57,0,0,1-.25-.81,12.56,12.56,0,0,1,1.76-.8c.55-.37,1.7-.85,1.65-1.07-.45-2,1.31-1.76,2.11-2.35a15.66,15.66,0,0,1,4-2.2,3.8,3.8,0,0,1,.75-.26c2.87.42,5.58-3.21,5-6.42v-.37l-1,.49c-.81,1.14-3.16,1.14-2.29,3.48a1.15,1.15,0,0,1-.51-.22,1.34,1.34,0,0,1-.11-2.34,66,66,0,0,1,5.21-4.46,1.19,1.19,0,0,0,.46.06,1.09,1.09,0,0,1-.46-.6c.41-.11.81-.16,1.22-.27a7.83,7.83,0,0,0,1.69-.71c-.41-1.85.71-.49,1.12-.7.25-.11.35-.49.81-.77a1.57,1.57,0,0,1-.25-.81,34,34,0,0,1,3.06-2.72,1.22,1.22,0,0,0,.46.06,1.14,1.14,0,0,1-.46-.6c1.43-1.36,2.91-2.67,4.29-4.08.1-.16-.16-.71-.21-1.36.82-.54,2.09-.92,2.45-1.74,1.33-3,2.19-6.25.1-9.67-.66-2.18-.71-4.62-2.29-6.25l.66-.17a1.87,1.87,0,0,1-.92-.65.26.26,0,0,1,.26-.27,2.52,2.52,0,0,1,.61-.11.85.85,0,0,0-.1-.38,3.88,3.88,0,0,1-1,.49,3.92,3.92,0,0,1-.77-.54c-.1-.17.1-.55,0-.76l-.92-3.21a1.36,1.36,0,0,1,.92-.11,1.44,1.44,0,0,0,.46,0,1.07,1.07,0,0,1-.46-.59,13.37,13.37,0,0,1-.51-2.18,1.74,1.74,0,0,1-.76.27c-.36-.21-.77-.32-.92-.65-.1-.16.25-.6.46-.92-3.32-1.69-2.4-5.38-3.12-8.21a1.6,1.6,0,0,1-.25-.81,20.32,20.32,0,0,1-1-2.72c.1-.44.41-1.09.25-1.25-2.09-2.07-1.32-4.4-.91-6.85.2-.92,2.83-3,2.83-3v-.49s-3.6.32-4,.49a5,5,0,0,1-.51,1.63,13.48,13.48,0,0,1-1.58-.06,2.41,2.41,0,0,1,.56-1c.26-.33,5.49-1.09,5.49-1.09v-.49s-4.62.33-5,.49A4.32,4.32,0,0,1,206,68.39a3.24,3.24,0,0,1-1-1.08,43.51,43.51,0,0,1-1.48-5.82c-.31-2.12.15-4.4-.82-6.41,0-.17-6.5-.55-6.5-.55V54s6.86.33,6.5.49a.25.25,0,0,1-.25-.27,1.79,1.79,0,0,1-.77.27c.05.22.15.38.26.82a4.69,4.69,0,0,1-.26,1.9c-.51,1.25-1,2.5-1.48,3.81-.05.1.1.38.15.54,1.94-1.36,1.79,1,2.35,1.63-.61.22,1.54.54,1.54.54v-.49a1,1,0,0,1-.51.49c-.92.44-1.79.82-2.66,1.2a2.33,2.33,0,0,0,.51.43,4.56,4.56,0,0,1,1.38.82c-1.89.65-4.49,0-5.36,3a7.94,7.94,0,0,1-.3,1.9c-2,5.27-3.88,10.71-6.28,15.82-1.94,4.18-2.09,7.12.67,9.73a5,5,0,0,1,.35.76,2.81,2.81,0,0,1,.21-1c.76-1.85,1.32-3.91,2.45-5.44A58.67,58.67,0,0,1,202,82.63a56,56,0,0,1,8.62-6.08,8.11,8.11,0,0,1-.25,2.44,1.06,1.06,0,0,1-.51.55m-29.85,22a1.44,1.44,0,0,0,.46,0,1.14,1.14,0,0,1-.46-.6h-.51a.86.86,0,0,1,.51.55m8.16-.55V97a.9.9,0,0,1-.51.49,1.87,1.87,0,0,0,0,.55,1,1,0,0,1,.56-.55m-9.69,4.08a1.41,1.41,0,0,0,.46,0,1.09,1.09,0,0,1-.46-.6H178a.86.86,0,0,1,.51.55m65.43,81.8a1.81,1.81,0,0,0,0,.54,1,1,0,0,1,.56-.54v-.49a.93.93,0,0,1-.51.49M203.74,43.66a1.57,1.57,0,0,0-.06.55,1,1,0,0,1,.57-.55v-.49a1,1,0,0,1-.51.49M172.1,238v2.49a1,1,0,0,1-.51.49,1,1,0,0,1-.51.54c-.25.05-.46.11-.66.16.05.11.05.22.1.38a2.64,2.64,0,0,1,1.07-.54c0-.16.15-.33.51-.54m7.53-187a1.81,1.81,0,0,0,0,.54,1,1,0,0,1,.56-.54V53.5a.93.93,0,0,1-.51.49m58.28,120.12c.05.22.16.38.26.82a5.14,5.14,0,0,1,1,1.08s0,.28-.26.28-.46.16-.71.21c.51.27,1,.6,1.53.87.1.06.25-.16.41-.22-.31-.27-.67-.59-.72-.86a1.65,1.65,0,0,1-.25-.82.88.88,0,0,1-.26-.82l.67-.16a1.89,1.89,0,0,1-.92-.65,1.79,1.79,0,0,1-.77.27M209.09,58.74a1.19,1.19,0,0,0,.46.06,1.09,1.09,0,0,1-.46-.6h-.51a.81.81,0,0,1,.51.54m-.51-6.11c-.21-.05-.36-.16-.51-.54l-.15-.66a1.3,1.3,0,0,0-.36.11,4.31,4.31,0,0,1,.51,1.09,1.78,1.78,0,0,1,.51.54,1.19,1.19,0,0,0,.46.06,1.09,1.09,0,0,1-.46-.6m-14.8,4.89a5.44,5.44,0,0,1-1.27.27.26.26,0,0,1-.26-.27c-.15-.27-.25-.54-.4-.81a2,2,0,0,1-.87.54,1,1,0,0,1-.51.54c-.26.06-.61.06-.72.22-1.32,2.28.05,3.48,1.58,4.73.31.22.41.71.62,1,.56-.49,1.37-.87,1.63-1.52.31-.81.15-1.85.46-2.83a1.54,1.54,0,0,1-.26-.81.26.26,0,0,1,.26-.27,1.63,1.63,0,0,1-.26-.82M57.32,121.39a.89.89,0,0,1,.76.27,1.67,1.67,0,0,1,.51.54c-.36.27-.71.55-1-4.07h-1c.05,4.83.05,5.05.1,5.27a1.35,1.35,0,0,1,.92-.11c.31.33.66.71,1,1-.36.11-.71.22-1,2.37h-.51c.15-2.26.36-2.15.51-1.77a6.4,6.4,0,0,1,.51,1.09,45.23,45.23,0,0,1,.2,4.62c-.25,3.48,2.15,6.36,5.41,6,1.94-.22,3.88-.76,5.87-1A43.58,43.58,0,0,1,76,135c1.83.05,3.37-1.74,5.3-.71.11.06.67-.59.62-.7-.51-1-.92-2.39-1.79-2.88-3.57-2.12-7.29-4-11-5.87a4.54,4.54,0,0,0-1.73-.71,6.71,6.71,0,0,1-5.56-1.69,1.46,1.46,0,0,1-.26-.81c-.1-.22-.2-.49-.3-.76a9.57,9.57,0,0,1-.72.71,1.94,1.94,0,0,1,1,.59s0,.27-.25.27a11.86,11.86,0,0,1-2-.54c.2-.11.45-.22.66-.32a4.79,4.79,0,0,1-1.43-1,1.74,1.74,0,0,1-.76.27,2.71,2.71,0,0,1-1,.55,1.77,1.77,0,0,0,0,.54,1,1,0,0,1,.57-.54M236.39,169.5h-4.34a.83.83,0,0,1,.51.54,6.55,6.55,0,0,0,.56.81c0,.06.25-.1.35-.21a3.65,3.65,0,0,1-.91-1.14M203,48.28a5,5,0,0,0,1,.06,1.7,1.7,0,0,1-1-.6,8,8,0,0,1-.31-.76,7.76,7.76,0,0,1-.71.7,2.08,2.08,0,0,1,1,.6M187.15,66.76c-.2-.05-.36-.16-.51-.54a6,6,0,0,0-7.09,4.4,68.28,68.28,0,0,0-2,12.45c-.2,3.69.56,7.44.66,11.14.05.22.16.38.26.82a19.9,19.9,0,0,0,2.29,1.9c.26.16.77-.11,1.18-.16a7.22,7.22,0,0,1-1-.38,1.64,1.64,0,0,1-.41-.22,1.79,1.79,0,0,1,.51-.33c2.4-.49-1.17-.65.2-1.09.26-.1.67-.21.72-.43.2-1.36.31-2.77.56-4.13.15-.6.82-1.09,1-1.69.82-3,1.58-6,2.3-8.91a12.7,12.7,0,0,0-.21-1.41c.66-1.14,1.28-2.39,2-3.54s.77-4.67,0-6.25a6.56,6.56,0,0,1-.51-1.63M236.39,169.5h.25a.83.83,0,0,1,.51.54,6.55,6.55,0,0,0,.56.81,3.05,3.05,0,0,1,.46-.43,2.73,2.73,0,0,1-1-.92M211.64,68c.1-.44.2-.82.31-1.25h-1.18a3.73,3.73,0,0,1,.1,1.52c-.25.49-.45,1-.71,1.47a3.92,3.92,0,0,0,1.43-.44c.15,0,0-.65,0-1.3m-8.93-22.17a7.45,7.45,0,0,1-.56-1.09c-.41.27-1,.43-1.22.76s0,.87.1,1.3c.2-.48.36-.92.56-1.41a2.39,2.39,0,0,1,.61.44,1.77,1.77,0,0,0,0,.54.93.93,0,0,1,.56-.54m22.7,100.82a4.26,4.26,0,0,0,1.43.27c.56-.16,1-.76,1.53-.81.67-.06.77,0,.56-.16-.4-.44-1-1.2-1.32-1.09-.77.22-2.3-1.2-2.45,1,.05.21.15.38.25.81m-53.82,96.48c-1.32,0-2.65,0-3.92.05a1.94,1.94,0,0,0-1.38.82,1.53,1.53,0,0,0,.3,1.36c1.08.32,2.3.76,3.17.38s2.5-.76,2.34-2.61v-.49a.93.93,0,0,1-.51.49m56.63-48.37A2.78,2.78,0,0,1,229,194a4.81,4.81,0,0,1,.77-.27c.71-.33,1.38-.65,2.14-1a1.65,1.65,0,0,1,.67.11c-.87-1.8,1-1.63,1.58-2.39.1-.11.2-.27.3-.38-1.48-.33-3.57-1.36-4.33-.71a6.37,6.37,0,0,0-2.4,5.44,7.81,7.81,0,0,0-.05,1.08,2.17,2.17,0,0,1,.56-1.08m2.81,5.16c-.06.49-.11.92-.16,1.36.51,0,1-.06,1.48-.06-.46-.59-.92-1.25-1.32-1.3m9.43-21.47-1.22-.33a3.35,3.35,0,0,0,.2.87,1.1,1.1,0,0,0,1-.54m-59.69-125c-.05-.55-.1-1.09-.1-1.63-.2,0-.35,0-.51.1a2.45,2.45,0,0,0,.61,1.53M57.32,113.78a17.61,17.61,0,0,0-1.18,1.52,5.31,5.31,0,0,0,.51.54c.26-.54.46-1.08.72-1.57.05-.11.1-.17,0-.49m179.27,56.53a.38.38,0,0,0-.2.21v.17c.66-.06,1.27-.11,1.89-.22-.41-.06-.82-.11-1.69-.16m-.72,25.54a3.76,3.76,0,0,0,.72-.6c0-.05-.11-.27-.16-.38a1.15,1.15,0,0,0-.56,1m-1.53.55a9.86,9.86,0,0,0-.71.92c.1.05.35.22.35.16a1.35,1.35,0,0,0,.36-1.08M212.28,66.76h-1.15c.1.27.15.54.25.81l.77-.81M204.09,49.1l.16-.17v-.21a11,11,0,0,1-1.38.21,6.52,6.52,0,0,0,1.22.17m-32,146.08h.77c.3.16.66.38,1,0m60.71-6.12c-.31-.06-.56-.16-.82-.22-.05,0-.05.22-.1.38.2.06.41.06.92-.16M162.66,244a3.93,3.93,0,0,0,.82.21,1.93,1.93,0,0,0,.05-.32,1,1,0,0,0-.87.11m68.62-74.74a1.51,1.51,0,0,0,.26.54c.05-.16.15-.32-.26-.54M212.15,84.16a5.67,5.67,0,0,0,.51-.28c-.2,0-.36-.16-.51.28M181.28,98a6.68,6.68,0,0,0-.2.87,2.37,2.37,0,0,1,.31.1,1.37,1.37,0,0,0-.11-1M65.22,105.9a3.4,3.4,0,0,0,.82.21,1.93,1.93,0,0,0,0-.32,1,1,0,0,0-.87.11m146.16,32.88a1.79,1.79,0,0,1-.25-.54c-.1.21-.2.38.25.54m-4.84-88.32a3.84,3.84,0,0,0,.81.21,1.64,1.64,0,0,0,.06-.32,1,1,0,0,0-.87.11M235.11,170a1,1,0,0,0,.3.22c0-.16,0-.32-.3-.22m-68.62,1.36a1.12,1.12,0,0,1,.2-.32c-.15.05-.3.05-.2.32m70.91,0a1.17,1.17,0,0,0-.2.33c.15,0,.3,0,.2-.33m-4.33,2.45a1.15,1.15,0,0,0,.3.22c-.05-.17-.05-.33-.3-.22m-86.73-20.66A1,1,0,0,1,146,153c0,.16,0,.32.31.21m89,43.22a1,1,0,0,0-.2.32c.15,0,.3,0,.2-.32M226.18,198a1.17,1.17,0,0,1,.2-.33c-.15.05-.3.05-.2.33m4.08,1.08a1.17,1.17,0,0,0-.2.33c.15,0,.3,0,.2-.33m-12.5.82a1.19,1.19,0,0,0,.31.22c0-.17,0-.33-.31-.22m14.29,0a1.15,1.15,0,0,0,.3.22c0-.17,0-.33-.3-.22m-15.56.27a1,1,0,0,0-.21.33c.15,0,.31,0,.21-.33m-55.1,42.94a1.17,1.17,0,0,1,.2-.33c-.15.06-.3.06-.2.33M205.26,52.9a1.17,1.17,0,0,0-.2.33c.15,0,.3,0,.2-.33M112.41,188.79a1,1,0,0,1,.21-.33c-.16,0-.31,0-.21.33m124.23-.28a1,1,0,0,0,.3.22c-.05-.16-.05-.32-.3-.22M206.28,51.82a1,1,0,0,0-.2.32c.15,0,.3,0,.2-.32M206,49.91a1.13,1.13,0,0,1-.31-.21c0,.16,0,.32.31.21M172.36,194.49a1,1,0,0,1-.31-.21c0,.16,0,.32.31.21m32.9-145.94a1.17,1.17,0,0,0-.2.33c.15,0,.3,0,.2-.33m4.85,19.84a1.13,1.13,0,0,1-.31-.21c0,.16,0,.32.31.21m6.63,31.53a1.19,1.19,0,0,0,.31.22c-.05-.17-.05-.33-.31-.22m2.3,3a1,1,0,0,0-.21.32c.16,0,.31,0,.21-.32m-177.54.54a1.17,1.17,0,0,0-.2.33c.15,0,.3,0,.2-.33m.51,2.18a1.17,1.17,0,0,1,.2-.33c-.15,0-.3,0-.2.33M211.89,70.84a1.28,1.28,0,0,0-.2.32c.15,0,.31,0,.2-.32m.77,11.68a1.06,1.06,0,0,1-.31-.21c0,.16,0,.32.31.21m-146.93,25a1.15,1.15,0,0,1-.3-.22c0,.16,0,.33.3.22M212.91,85a1.17,1.17,0,0,0-.2.33c.15,0,.31,0,.2-.33m-.76,3a1,1,0,0,0,.31.22c-.06-.17-.06-.33-.31-.22m2.55,1.09a1.38,1.38,0,0,1-.31-.22c0,.16,0,.33.31.22M171.85,62.41a1,1,0,0,0,.3.22c-.05-.16-.05-.32-.3-.22m16.83-.54a1.19,1.19,0,0,0,.31.22c-.05-.17-.05-.33-.31-.22m21.17,81.26a1.17,1.17,0,0,0-.2.33c.15,0,.31,0,.2-.33m-1,.54a1.17,1.17,0,0,0-.2.33c.15,0,.31,0,.2-.33M54.76,111.6a1.75,1.75,0,0,1,.21-.32c-.15,0-.31,0-.21.32M56.55,113a.89.89,0,0,0,.31.22c-.06-.16-.06-.33-.31-.22m3.32,6.25a1,1,0,0,0-.21.33c.15,0,.31,0,.21-.33M188.43,62.69a.89.89,0,0,0-.21.32c.16,0,.31,0,.21-.32m1.27-.28a1,1,0,0,0,.31.22c0-.16,0-.32-.31-.22M209.09,132a.91.91,0,0,0,.3.21c0-.16,0-.32-.3-.21" transform="translate(-28.68 -33.39)"/><path class="cls-1" d="M197.35,33.77c-.51,0-1-.11-1.53-.16a5,5,0,0,1,1.53.16" transform="translate(-28.68 -33.39)"/><path class="cls-1" d="M164.19,82.25c.16-.16.31,0,.51,0-.2.11-.35.22-.51,0" transform="translate(-28.68 -33.39)"/><path class="cls-1" d="M110,188.24a2.74,2.74,0,0,1-.15,1.09,2.74,2.74,0,0,1,.15-1.09" transform="translate(-28.68 -33.39)"/><path class="cls-1" d="M192.87,34.42a3.72,3.72,0,0,1,.15-1,2.44,2.44,0,0,1-.15,1" transform="translate(-28.68 -33.39)"/><path class="cls-1" d="M233.17,144.76a3.62,3.62,0,0,1,.15-1,2.48,2.48,0,0,1-.15,1" transform="translate(-28.68 -33.39)"/><path class="cls-1" d="M172,173.46c.05-.16.2-.16.36-.22-.11.11-.16.22-.36.22" transform="translate(-28.68 -33.39)"/><path class="cls-1" d="M191.59,175.74c.15,0,.15.27.15.44a.4.4,0,0,1-.15-.44" transform="translate(-28.68 -33.39)"/><path class="cls-1" d="M191.74,176.45c.16-.06.31.05.46.16a.56.56,0,0,1-.46-.16" transform="translate(-28.68 -33.39)"/><path class="cls-1" d="M174.4,54.53c-.1-.16-.21-.32-.16-.38a.52.52,0,0,1,.16.38" transform="translate(-28.68 -33.39)"/><path class="cls-1" d="M194.65,154c0,.16-.05.33-.15.54a.69.69,0,0,1,.15-.54" transform="translate(-28.68 -33.39)"/><path class="cls-1" d="M225.41,158.35c-.1-.16-.2-.33-.15-.38a.54.54,0,0,1,.15.38" transform="translate(-28.68 -33.39)"/><path class="cls-1" d="M240.31,161.61a.93.93,0,0,1,.15-.49.63.63,0,0,1-.15.49" transform="translate(-28.68 -33.39)"/><path class="cls-1" d="M227.45,164.22a2.14,2.14,0,0,1-.51-.16.64.64,0,0,1,.51.16" transform="translate(-28.68 -33.39)"/><path class="cls-1" d="M182.66,196.94c-.1,0-.1-.27-.1-.38a.43.43,0,0,1,.1.38" transform="translate(-28.68 -33.39)"/><path class="cls-1" d="M187.51,196.4c.05.16,0,.32-.15.54a.68.68,0,0,1,.15-.54" transform="translate(-28.68 -33.39)"/><path class="cls-1" d="M211.23,48a.93.93,0,0,1,.15-.49.63.63,0,0,1-.15.49" transform="translate(-28.68 -33.39)"/><path class="cls-1" d="M182.41,196.94c.05.16,0,.33-.16.54a.66.66,0,0,1,.16-.54" transform="translate(-28.68 -33.39)"/><path class="cls-1" d="M181,45.84c-.1-.17-.2-.33-.15-.38s.15.38.15.38" transform="translate(-28.68 -33.39)"/><path class="cls-1" d="M182.56,196.29c-.2.05-.36-.06-.51-.27.15-.06.31,0,.51.27" transform="translate(-28.68 -33.39)"/><path class="cls-1" d="M187.76,37.57c.05-.16.21-.16.36-.21-.1.11-.15.21-.36.21" transform="translate(-28.68 -33.39)"/><path class="cls-1" d="M194.29,33.77a2.14,2.14,0,0,1-.51-.16.64.64,0,0,1,.51.16" transform="translate(-28.68 -33.39)"/><path class="cls-1" d="M180.62,191.5a1,1,0,0,1,.15-.49.62.62,0,0,1-.15.49" transform="translate(-28.68 -33.39)"/><path class="cls-1" d="M190.06,186.61c.05.17-.05.33-.15.55a.72.72,0,0,1,.15-.55" transform="translate(-28.68 -33.39)"/><path class="cls-1" d="M174.24,52.36c.06.16-.05.32-.15.54a.68.68,0,0,1,.15-.54" transform="translate(-28.68 -33.39)"/><path class="cls-1" d="M183.58,190.85a2,2,0,0,1-.51-.16.65.65,0,0,1,.51.16" transform="translate(-28.68 -33.39)"/><path class="cls-1" d="M182.15,191.5a.89.89,0,0,1,.16-.49.6.6,0,0,1-.16.49" transform="translate(-28.68 -33.39)"/><path class="cls-1" d="M182.05,191.94a.4.4,0,0,1-.15-.44c.15,0,.15.28.15.44" transform="translate(-28.68 -33.39)"/><path class="cls-1" d="M180.52,192.05a.77.77,0,0,1,.36.43.5.5,0,0,1-.36-.43" transform="translate(-28.68 -33.39)"/><path class="cls-1" d="M182.05,192.21c.15-.05.31.06.46.16a.55.55,0,0,1-.46-.16" transform="translate(-28.68 -33.39)"/><path class="cls-1" d="M175.93,50.08a1.61,1.61,0,0,1-.51-.17.63.63,0,0,1,.51.17" transform="translate(-28.68 -33.39)"/><path class="cls-1" d="M183.58,195.85c-.1-.16-.2-.32-.15-.38a.54.54,0,0,1,.15.38" transform="translate(-28.68 -33.39)"/><path class="cls-1" d="M169.81,66.38a1.89,1.89,0,0,1-.51-.16.66.66,0,0,1,.51.16" transform="translate(-28.68 -33.39)"/><path class="cls-1" d="M165.21,78.88a2.14,2.14,0,0,1-.51-.16.64.64,0,0,1,.51.16" transform="translate(-28.68 -33.39)"/><path class="cls-1" d="M167.26,73.45a1.61,1.61,0,0,1-.51-.17.63.63,0,0,1,.51.17" transform="translate(-28.68 -33.39)"/><path class="cls-1" d="M164.7,83.78a1.8,1.8,0,0,1-.51-.17.61.61,0,0,1,.51.17" transform="translate(-28.68 -33.39)"/><path class="cls-1" d="M163.68,88.78c-.1-.17-.2-.33-.15-.38s.15.38.15.38" transform="translate(-28.68 -33.39)"/><path class="cls-1" d="M162.15,92.47a2.14,2.14,0,0,1-.51-.16.64.64,0,0,1,.51.16" transform="translate(-28.68 -33.39)"/><path class="cls-1" d="M218.37,133.35a.84.84,0,0,1,.16-.49.62.62,0,0,1-.16.49" transform="translate(-28.68 -33.39)"/><path class="cls-1" d="M218.37,135.68c.16,0,.16.17.21.33a.33.33,0,0,1-.21-.33" transform="translate(-28.68 -33.39)"/><path class="cls-1" d="M211.64,136.23c.15-.06.31.05.46.16a.55.55,0,0,1-.46-.16" transform="translate(-28.68 -33.39)"/><path class="cls-1" d="M215.21,145.3c-.2.11-.36.22-.41.17a.62.62,0,0,1,.41-.17" transform="translate(-28.68 -33.39)"/><path class="cls-1" d="M217.25,146.93c-.2.11-.36.22-.41.17a.62.62,0,0,1,.41-.17" transform="translate(-28.68 -33.39)"/><path class="cls-1" d="M157.05,128.89a2,2,0,0,1-.51-.16.65.65,0,0,1,.51.16" transform="translate(-28.68 -33.39)"/><path class="cls-1" d="M155.11,181.72a.86.86,0,0,1,.16-.49.61.61,0,0,1-.16.49" transform="translate(-28.68 -33.39)"/><path class="cls-1" d="M130,180c0,.11-.25.11-.4.11a.43.43,0,0,1,.4-.11" transform="translate(-28.68 -33.39)"/><path class="cls-1" d="M82.67,170.31c-.1,0-.1-.28-.1-.38a.42.42,0,0,1,.1.38" transform="translate(-28.68 -33.39)"/><path class="cls-1" d="M82.06,169.11c0,.11-.26.11-.41.11a.42.42,0,0,1,.41-.11" transform="translate(-28.68 -33.39)"/><path class="cls-1" d="M159.19,186.23c.16,0,.16.16.21.33a.33.33,0,0,1-.21-.33" transform="translate(-28.68 -33.39)"/><path class="cls-1" d="M147.21,231.35c0,.16-.16.16-.31.16,0-.11.1-.22.31-.16" transform="translate(-28.68 -33.39)"/><path class="cls-1" d="M155,235.42c0,.11-.25.11-.41.11a.45.45,0,0,1,.41-.11" transform="translate(-28.68 -33.39)"/><path class="cls-1" d="M171.34,236c0,.1-.26.1-.41.1a.42.42,0,0,1,.41-.1" transform="translate(-28.68 -33.39)"/><path class="cls-1" d="M161.13,240.86c0,.11-.25.11-.4.11a.39.39,0,0,1,.4-.11" transform="translate(-28.68 -33.39)"/><path class="cls-1" d="M101.55,148a.93.93,0,0,1,.15-.49.63.63,0,0,1-.15.49" transform="translate(-28.68 -33.39)"/><path class="cls-1" d="M161.24,186.61a1,1,0,0,1,.15-.49.62.62,0,0,1-.15.49" transform="translate(-28.68 -33.39)"/><path class="cls-1" d="M158.94,188.79c.05.16-.05.32-.15.54a.68.68,0,0,1,.15-.54" transform="translate(-28.68 -33.39)"/><path class="cls-1" d="M160.62,189.49c.16-.05.31.06.46.17a.54.54,0,0,1-.46-.17" transform="translate(-28.68 -33.39)"/><path class="cls-1" d="M161.24,191a.93.93,0,0,1,.15-.49.63.63,0,0,1-.15.49" transform="translate(-28.68 -33.39)"/><path class="cls-1" d="M125.93,139.49c0-.17.26-.17.36-.17a.31.31,0,0,1-.36.17" transform="translate(-28.68 -33.39)"/><path class="cls-1" d="M101.29,148a.3.3,0,0,1-.36.16c0-.16.26-.16.36-.16" transform="translate(-28.68 -33.39)"/><path class="cls-1" d="M74.41,117.75c.15-.06.3,0,.45.16a.53.53,0,0,1-.45-.16" transform="translate(-28.68 -33.39)"/><path class="cls-1" d="M76,118.29c.15,0,.15.16.2.33a.32.32,0,0,1-.2-.33" transform="translate(-28.68 -33.39)"/><path class="cls-1" d="M83.44,125.9c0,.16-.16.16-.31.16.05-.11.1-.22.31-.16" transform="translate(-28.68 -33.39)"/><path class="cls-1" d="M202,57.41a2.21,2.21,0,0,1,1,.17,1.85,1.85,0,0,1-1-.17" transform="translate(-28.68 -33.39)"/><path class="cls-1" d="M169.81,166.94a1.61,1.61,0,0,1-.51-.17.63.63,0,0,1,.51.17" transform="translate(-28.68 -33.39)"/><path class="cls-1" d="M186.74,151.17c0-.16.21-.16.36-.21-.1.1-.15.21-.36.21" transform="translate(-28.68 -33.39)"/><path class="cls-1" d="M185,152.8c-.16-.05-.16-.21-.16-.38.11.11.21.17.16.38" transform="translate(-28.68 -33.39)"/><path class="cls-1" d="M180,158.24a2,2,0,0,1-.51-.16.65.65,0,0,1,.51.16" transform="translate(-28.68 -33.39)"/><path class="cls-1" d="M194.8,69.37c.16-.05.31.06.46.16a.56.56,0,0,1-.46-.16" transform="translate(-28.68 -33.39)"/><path class="cls-1" d="M215.21,94.92c0-.17.26-.17.36-.17a.32.32,0,0,1-.36.17" transform="translate(-28.68 -33.39)"/><path class="cls-1" d="M176.29,98.56c.15,0,.15.27.15.43a.36.36,0,0,1-.15-.43" transform="translate(-28.68 -33.39)"/><path class="cls-1" d="M188.68,100.35c.16,0,.31.06.46.17a.54.54,0,0,1-.46-.17" transform="translate(-28.68 -33.39)"/><path class="cls-1" d="M202.3,66.65c0,.17-.15.17-.3.17.05-.11.1-.22.3-.17" transform="translate(-28.68 -33.39)"/><path class="cls-1" d="M217.1,102.36c.15,0,.15.28.15.44a.4.4,0,0,1-.15-.44" transform="translate(-28.68 -33.39)"/><path class="cls-1" d="M179,106.06a2,2,0,0,1-.51-.16.65.65,0,0,1,.51.16" transform="translate(-28.68 -33.39)"/><path class="cls-1" d="M207.66,76.27a.9.9,0,0,1,.15-.48.61.61,0,0,1-.15.48" transform="translate(-28.68 -33.39)"/><path class="cls-1" d="M209.19,80.62a1,1,0,0,1,.15-.49.62.62,0,0,1-.15.49" transform="translate(-28.68 -33.39)"/><path class="cls-1" d="M210,81.71c0,.16-.06.33-.16.54a.66.66,0,0,1,.16-.54" transform="translate(-28.68 -33.39)"/><path class="cls-1" d="M211,84.43c.15,0,.15.27.15.43a.38.38,0,0,1-.15-.43" transform="translate(-28.68 -33.39)"/><path class="cls-1" d="M198.38,143c0,.11-.26.11-.41.11a.42.42,0,0,1,.41-.11" transform="translate(-28.68 -33.39)"/><path class="cls-1" d="M199.75,140.3c-.15-.05-.15-.21-.15-.38.1.11.2.17.15.38" transform="translate(-28.68 -33.39)"/><path class="cls-1" d="M199.5,141.39c.05-.16.2-.16.35-.22-.1.11-.15.22-.35.22" transform="translate(-28.68 -33.39)"/><path class="cls-1" d="M189.7,149a2.14,2.14,0,0,1-.51-.16.64.64,0,0,1,.51.16" transform="translate(-28.68 -33.39)"/><path class="cls-1" d="M219.65,109.43c0,.16-.05.33-.15.54a.69.69,0,0,1,.15-.54" transform="translate(-28.68 -33.39)"/><path class="cls-1" d="M201.28,65.4c.05.17-.05.33-.15.55a.72.72,0,0,1,.15-.55" transform="translate(-28.68 -33.39)"/><path class="cls-1" d="M200,66a.91.91,0,0,1,.15-.49A.65.65,0,0,1,200,66" transform="translate(-28.68 -33.39)"/><path class="cls-1" d="M203,63.39c.15,0,.3.06.46.17a.52.52,0,0,1-.46-.17" transform="translate(-28.68 -33.39)"/><path class="cls-1" d="M217.1,120.84c.05.17,0,.33-.15.55a.72.72,0,0,1,.15-.55" transform="translate(-28.68 -33.39)"/><path class="cls-1" d="M188,150.2c.15,0,.15.27.15.43a.38.38,0,0,1-.15-.43" transform="translate(-28.68 -33.39)"/><path class="cls-1" d="M210,129.54c.15,0,.15.27.15.44a.39.39,0,0,1-.15-.44" transform="translate(-28.68 -33.39)"/><path class="cls-1" d="M79.35,133.78c-.15-.05-.15-.22-.15-.38.1.11.21.16.15.38" transform="translate(-28.68 -33.39)"/><path class="cls-1" d="M61.75,124.27c.16,0,.16.16.21.32a.3.3,0,0,1-.21-.32" transform="translate(-28.68 -33.39)"/><path class="cls-1" d="M58.18,125.74a.84.84,0,0,1,.16-.49.62.62,0,0,1-.16.49" transform="translate(-28.68 -33.39)"/><path class="cls-1" d="M185.47,67.47c-.16-.06-.16-.22-.16-.38.11.11.21.16.16.38" transform="translate(-28.68 -33.39)"/><path class="cls-1" d="M178.58,94.75c-.1,0-.1-.27-.1-.38a.44.44,0,0,1,.1.38" transform="translate(-28.68 -33.39)"/><path class="cls-1" d="M185.47,78.45c.05.16-.05.32-.16.54a.65.65,0,0,1,.16-.54" transform="translate(-28.68 -33.39)"/><path class="cls-1" d="M193.63,58.88c.15,0,.15.27.15.44a.4.4,0,0,1-.15-.44" transform="translate(-28.68 -33.39)"/><path class="cls-1" d="M190.57,58.88c.05.16,0,.33-.15.54a.69.69,0,0,1,.15-.54" transform="translate(-28.68 -33.39)"/><path class="cls-1" d="M229.5,193.57c0,.11-.26.11-.41.11a.42.42,0,0,1,.41-.11" transform="translate(-28.68 -33.39)"/><path class="cls-1" d="M211.13,69.37c0-.16.25-.16.36-.16a.3.3,0,0,1-.36.16" transform="translate(-28.68 -33.39)"/><path class="cls-1" d="M217.25,134.6a7,7,0,0,1,.31.87,2.36,2.36,0,0,1-.67-.06c.11-.22.21-.43.36-.81" transform="translate(-28.68 -33.39)"/><path class="cls-1" d="M191.23,35.4a4.57,4.57,0,0,1-1-.76c.11-.06.36-.22.36-.16a3.31,3.31,0,0,1,.61.92" transform="translate(-28.68 -33.39)"/><path class="cls-1" d="M220.67,198.46a1.64,1.64,0,0,1-.77,0c.06-.16.06-.38.11-.38a1.06,1.06,0,0,1,.66.38" transform="translate(-28.68 -33.39)"/><path class="cls-1" d="M192.76,34.86a2.86,2.86,0,0,1-1-.22,3.23,3.23,0,0,1,.82-.22c.15,0,.15.27.15.44" transform="translate(-28.68 -33.39)"/><path class="cls-1" d="M165.72,75.32a.55.55,0,0,1,.36-.38c.15.11.15.38,0,.38h-2" transform="translate(-28.68 -33.39)"/><path class="cls-1" d="M165.72,79.54a.93.93,0,0,1-.51-.39c0-.16.26-.16.36,0a.56.56,0,0,1,.15.39" transform="translate(-28.68 -33.39)"/><path class="cls-1" d="M164.07,83.88v.17c.15-.06.3,0,.35.27a.57.57,0,0,1-.35.11" transform="translate(-28.68 -33.39)"/><path class="cls-1" d="M160.62,189.22a6.1,6.1,0,0,1-1.43-.43,16.41,16.41,0,0,1,1.79-2.18c1.84,1.31,0,1.69-.36,2.61" transform="translate(-28.68 -33.39)"/><path class="cls-1" d="M97.72,144.22c.15.11.15.16.15.27-.1.65-.2,1.25-.3,1.9a10.28,10.28,0,0,1,.15-2.17" transform="translate(-28.68 -33.39)"/><path class="cls-1" d="M155.62,174.82a1.17,1.17,0,0,1,.77,0,1.93,1.93,0,0,1,0,.32,1,1,0,0,1-.72-.32" transform="translate(-28.68 -33.39)"/><path class="cls-1" d="M156.64,175.9a1.11,1.11,0,0,1,.31.71,3.23,3.23,0,0,0-.31.11,1.51,1.51,0,0,1,0-.82" transform="translate(-28.68 -33.39)"/><path class="cls-1" d="M96.7,145.19a1.14,1.14,0,0,1-.31-.76,2,2,0,0,1,.31-.05,1.46,1.46,0,0,1,0,.81" transform="translate(-28.68 -33.39)"/><path class="cls-1" d="M82.57,169.65c0,.11-.26.11-.41.11s-.1-.27-.1-.38.3.06.51.27" transform="translate(-28.68 -33.39)"/><path class="cls-1" d="M204.85,67.58c.41.38.67.76,1,1.08a1.82,1.82,0,0,1,.16,1c-1.48.11-1.89-.65-1.18-2.06" transform="translate(-28.68 -33.39)"/><path class="cls-1" d="M206,69.91a2.51,2.51,0,0,1,.51.82,3.24,3.24,0,0,1-1-.16c.15-.17.3-.38.51-.66" transform="translate(-28.68 -33.39)"/><path class="cls-1" d="M208.07,72.09a4.82,4.82,0,0,1,.87-.54c.05.21.05.48.1.7a2.74,2.74,0,0,1-1-.16" transform="translate(-28.68 -33.39)"/><path class="cls-1" d="M179,102.26a4.36,4.36,0,0,1-.51-.71,1,1,0,0,1,.36-.11,7.41,7.41,0,0,1,.15.82" transform="translate(-28.68 -33.39)"/><path class="cls-1" d="M177.82,111a1.09,1.09,0,0,1-.31-.76,1.75,1.75,0,0,1,.31,0,1.45,1.45,0,0,1,0,.81" transform="translate(-28.68 -33.39)"/><path class="cls-1" d="M203.58,66.11a1.1,1.1,0,0,1,.3.71,1.45,1.45,0,0,0-.3.11,1.51,1.51,0,0,1,0-.82" transform="translate(-28.68 -33.39)"/><path class="cls-1" d="M201.54,65.4a4.35,4.35,0,0,1,.66-.49.85.85,0,0,1,.1.38,7.21,7.21,0,0,0-.76.11" transform="translate(-28.68 -33.39)"/><path class="cls-1" d="M58.69,121.93c-.1,0-.1-.27-.1-.38s.31.06.51.27c0,.11-.25.11-.41.11" transform="translate(-28.68 -33.39)"/><path class="cls-1" d="M181,94.65a5.27,5.27,0,0,1-1,.43l.61-1.3c.1.27.21.49.36.87" transform="translate(-28.68 -33.39)"/><path class="cls-1" d="M193.63,57.79c.15,0,.15.28.15.44a1.47,1.47,0,0,1-1-.27,1.44,1.44,0,0,1,.87-.17" transform="translate(-28.68 -33.39)"/><path class="cls-1" d="M226,145.85a3.06,3.06,0,0,1,.66-.49.85.85,0,0,1,.1.38,5.07,5.07,0,0,0-.76.11" transform="translate(-28.68 -33.39)"/><path class="cls-1" d="M225.52,146.39c-.11,0-.11-.27-.11-.38s.26-.16.36-.16a.52.52,0,0,1-.25.54" transform="translate(-28.68 -33.39)"/><path class="cls-1" d="M180.14,195.18h.36c.15,0,.15.27,0,.43s-.36.11-.36,0v-.43" transform="translate(-28.68 -33.39)"/><path class="cls-1" d="M197.2,141.39c.36-.38.61-.65.82-.92.1.27.36.7.3.76a16.26,16.26,0,0,1-1.42,1.19,5.84,5.84,0,0,1,.3-1" transform="translate(-28.68 -33.39)"/><path class="cls-1" d="M207.15,80.08c-.1,0-.1-.27-.1-.38a4.26,4.26,0,0,1,.51-.55c.15.06.3.33.51.55a5.72,5.72,0,0,1-.92.38" transform="translate(-28.68 -33.39)"/><path class="cls-1" d="M202.3,54.53c.16,0,.16.27.16.44s-.26.11-.41.11-.1-.28-.1-.38.25-.17.35-.17" transform="translate(-28.68 -33.39)"/><path class="cls-1" d="M186.49,66.49A3.8,3.8,0,0,0,187,67c.2.55.3,1.09.51,1.63a5.37,5.37,0,0,1-.87.33,13.94,13.94,0,0,1-.15-2.5" transform="translate(-28.68 -33.39)"/><path class="cls-1" d="M190.72,58a6.39,6.39,0,0,1,.51-.55,5.77,5.77,0,0,1,.87.38,4.57,4.57,0,0,1-1.28,1.09,2.57,2.57,0,0,1-.1-.92" transform="translate(-28.68 -33.39)"/><path class="cls-1" d="M58.08,121c0-.17.26-.17.36-.17s.15.28.15.44-.25.11-.41.11-.1-.27-.1-.38" transform="translate(-28.68 -33.39)"/><path class="cls-1" d="M238.27,174.65c-.1,0-.1-.27-.1-.38s.25-.16.35-.16.16.27.16.44-.26.1-.41.1" transform="translate(-28.68 -33.39)"/><path class="cls-1" d="M230,168c0,.11-.26.11-.41.11s-.1-.27-.1-.38.25-.16.35-.16.16.27.16.43" transform="translate(-28.68 -33.39)"/><path class="cls-1" d="M161,191a23.67,23.67,0,0,1,2.14,10.38c0,5.71.1,11.42-.1,17.07,0,.38.36,2.77-2,2.23-1.89-.44-1-1.63-1.12-2.45-.21-2.17-.26-4.4-.26-6.63,0-5.11-.1-10.27.05-15.44A19.25,19.25,0,0,1,161,191" transform="translate(-28.68 -33.39)"/><path class="cls-1" d="M190.31,186.61c-1.27-.6-2.44-1.14-3.57-1.79a6.85,6.85,0,0,1-1.07-.76c.46-.22.87-.71,1.28-.65.86.1,1.73.54,2.6.59,2.35.22,4.64.33,7,.49.41,0,.92-.16,1.22,0a10.75,10.75,0,0,1,1.53,1.2c-.4.32-.81.87-1.22.92-2.55.06-5.1,0-7.76,0" transform="translate(-28.68 -33.39)"/><path class="cls-1" d="M154.86,181.72c.15.87-.15,2.07.25,2.45,1.79,1.84,1.89,3.58,1,6.08-1.27,3.75-1.73,7.83-2.7,11.69-1.22,4.89-2.65,9.73-4.08,14.57a14.25,14.25,0,0,1-1.94,3.09c-.36-1.41-1.22-2.88-1-4.13.92-5.11,2-10.16,3.21-15.21,1-4.19,2.2-8.27,3-12.51.41-2.17.31-4.45,2.3-6" transform="translate(-28.68 -33.39)"/><path class="cls-1" d="M191.85,175.74a2.29,2.29,0,0,1-.31-1c-.41.27-1.23.55-1.23.76a3.28,3.28,0,0,0,.72,1.85c1,1,1,1.31-.36,1.9-2.35,1-4.79,1.8-7,3-2.4,1.41-4.59.87-6.89-.06l-.81-.32a4.87,4.87,0,0,0,.87-.38c1.53-.82,3-1.69,4.59-2.39a1.1,1.1,0,0,0,.61.16l-.46-.33a37,37,0,0,1,4.23-4.83,31.49,31.49,0,0,1,14.14-6.31,52.46,52.46,0,0,0,5.3-1.79,4.35,4.35,0,0,1,1.68.05c-.3.49-.51,1.2-.91,1.47-3.68,2-7.4,4-11.12,6-1,.55-1.94,1.41-3,2.12m13.67-9a1,1,0,0,0,.3.22c0-.16,0-.33-.3-.22" transform="translate(-28.68 -33.39)"/></g></svg>