<svg id="Layer_1" data-name="Layer 1" xmlns="http://www.w3.org/2000/svg" viewBox="0 0 202.48 220.83"><defs><style>.cls-1{fill:#55951b;}</style></defs><g id="neliapila"><path class="cls-1" d="M205.64,167a50.86,50.86,0,0,1-4.82,2.15c-.13.06-.26.26-.39.39,3.52,1.43,1.17,5,2.67,7.36,1.7,2.54,2.41,5.73,3.85,8.47,3.9,7.23,5.4,15.18,5.53,23.13.2,9.18-3.51,17.39-11.46,22.8-3.13,2.08-7,3.06-10.43,4.69-5.47,2.54-10.74,5.53-16.35,7.62-2.6,1-5.79.26-8.79,0-8.4-.72-14-6.13-20.07-10.75-6.64-5.08-12.5-10.88-14.13-19.94-1.11-6.12-3.45-12-5-18.17-.39-1.43.13-3.13.2-4.76,0-.19-.39-.45-.78-.84s-.66-.78-.92-1.11c0-.07-.32.13-.45.26l1.24,1a12.94,12.94,0,0,1-.53,2.41,2.17,2.17,0,0,0-.78-.19c.2.13.46.26.65.39-1.62,2.34-3.64,4.56-4.75,7.1-1.56,3.84-2.35,8-3.78,11.86-2.15,5.53,0,11.33-1.17,16.87-.26,1.11.45,2.41.52,3.65s-.33,1.43-2.09,1.17c-.26-.07-.52,1.37-1,1.63-1.89,1-3.78,1.82-5.73,2.67-2.8,1.24-5.21,2.8-6.58,5.67a2.33,2.33,0,0,0-.78-.2c.19.13.45.26.65.39-.33.2-.65.39-1.17.65-.52-.19-1.11-.58-1.24-.52-2.93,2.28-5.6,4.89-6.65,8.54-.71,2.34-2.34,2.86-4,2.21-.66-.26-.92-2.61-.72-3.91.65-3.45,2-6.71,1.69-10.49-.13-2.28,2.48-4.62,2.87-7.1.72-5.08,3.39-9.31,5.41-13.81s4.62-8.79,6.58-13.29c2.8-6.32,5.73-12.51,10.09-17.85,1.37-1.69-.58-3.12-.52-4.69-.65.46-1.69.85-1.82,1.44-1.18,4-3.91,4.56-7.62,4.23A8.24,8.24,0,0,0,97.24,190c-2.8,2.67-6.32,1.63-9.38,2.67-4.43,1.43-9.12,2.67-13.74,1.69-4.89-.91-10-1.82-14.2-4.17-7.69-4.23-13.88-10-16-19.28a48.76,48.76,0,0,1-1-13.35c.19-3.52,1.43-7,2-10.49a5.08,5.08,0,0,0-.2-3.13c-3.19-6.25-3.52-13-3.13-19.74.13-2,1.5-3.9,2.09-5.92.46-1.24.33-2.74.85-3.91,1.49-3.33,2.8-6.71,5-9.58,1.17-1.63,3.78-2.08,5.6-3.26,1.3-.78,2.47-1.82,3.84-2.67a3.11,3.11,0,0,0,.78.26l-.58-.39A101.71,101.71,0,0,1,69.3,94.26c2.47-.78,5.14-2.15,8-.46a5,5,0,0,0,3.13.13c3.32-.78,6.18.2,9.12,1.7a23.9,23.9,0,0,0,4.36,1.17,8.46,8.46,0,0,1,1.5.26,6.64,6.64,0,0,1,1.43,1.37c0-1.05.46-2.28.07-3.07-1.7-3.25-4-6.31-3.59-10.22.4-2.74-.65-5-1.69-7.3a37.49,37.49,0,0,1-1.82-5,1.24,1.24,0,0,0,.19-.72c-.13.19-.19.39-.32.58a27.53,27.53,0,0,1,.65-5.27c1.37-4,3.12-7.82,4.49-11.79,2-5.61,3.91-11,10.3-13.16,2.28-.78,4.88-2,6.25-3.78,3-3.84,7.17-3.32,10.94-3.65,5.41-.58,10.82-.72,16.29-1.69,6.06-1,12.57.58,19,2.86s10.75,7.24,16.22,10.56c2.41,1.43,4,4.43,5.34,7.1,2.54,5.27,4.69,10.75,6.84,16.22.59,1.56.53,3.32.85,5,.65,3.38,2.22,4.1,5.47,4.16,5.35.2,10.75.72,16,1.44A57,57,0,0,1,216.26,83a4,4,0,0,1,.85.26c.06,0,.06.32,0,.45-.33.46-.07,1.11.71,1.37C223,88.33,229,90.35,231.05,96.86a78.25,78.25,0,0,0,4,10.23c1.24,2.74,3.65,5.08,4.56,7.88,1.44,4.43,4,8.73,3.59,13.68a9.11,9.11,0,0,0,.26,3.26c1.82,8.34-2.09,15.05-5.93,21.76a5.07,5.07,0,0,1-2.15,1.69,8.26,8.26,0,0,1-2.22.52c.39-.52,1.05-1,1.24-1.56a8.75,8.75,0,0,0,.2-2.21c-.46.26-1,.52-1.44.84-4.82,3.59-9.44,7.69-14.72,10.56-3.78,2-8.47,2.28-12.77,3.45m-25.08-30.42a1.91,1.91,0,0,0-.06.58,1.37,1.37,0,0,1,.71-.58,2.37,2.37,0,0,1-.32-1c-.2,0-.46-.07-.65-.07a1.46,1.46,0,0,1,.65.72.32.32,0,0,1-.33.33m-.13,2a4.87,4.87,0,0,1,.33,1,2.81,2.81,0,0,1-1.31.65,1.27,1.27,0,0,1-.65-.65c-.19,0-.45-.07-.65-.07a1.37,1.37,0,0,1,.65.72.31.31,0,0,1-.32.32,5.71,5.71,0,0,1-1.44.72c-1.63.39-3.25,1-4.88.91-1.44-.06-1.63,2.93-3.39,1.05-.13.32-.46.71-.33.91a4.21,4.21,0,0,0,.92,1c-.53-.06-1.44,0-1.5-.26-1.18-3.12-1.5,0-1.76.33-.52.72-.72,1.69-1.3,2.54a8.54,8.54,0,0,1-.33-1.17c-.13-.46-.26-1-.39-1.44a3.66,3.66,0,0,1-.33,1.44,4.18,4.18,0,0,1-1.23,1.5.32.32,0,0,1,.32-.33,16.83,16.83,0,0,1-1-2.28c-.19,0-.45-.06-.65-.06a1.38,1.38,0,0,1,.65.71,3.48,3.48,0,0,1,.33,1.63,5.65,5.65,0,0,1,.33,1c-.4,2.73-.13,3.06,2.28,2.28v-.59a1.18,1.18,0,0,1-.66.59c-.13-.46-.52-1-.39-1.31a5.93,5.93,0,0,1,1.7-1.95c.39,1.89,1.82,2.74,3.58,3.58a.32.32,0,0,1-.33.33,16.56,16.56,0,0,0-2.54,0c-.58.13-1.1.72-1.62,1a19.73,19.73,0,0,0,2,.46,4.44,4.44,0,0,1,1.83.13,1.91,1.91,0,0,1,.58.06,1.37,1.37,0,0,1-.58-.71,2.22,2.22,0,0,1,1-1c.78.19,1.62.32,2.47.52,1.63.46,3.26,1.3,4.95,1.3,1.37.07,2,3.13,3.72.85,2.21,1.89,4.62,1,7.1.65,1.75-.19,3.64.65,5.47.85a68,68,0,0,1,7.23.71,1.73,1.73,0,0,1,.59.07,1.32,1.32,0,0,1-.59-.72,16.46,16.46,0,0,1,2.15-.91c1.43-.26,2.87-.52,3.52,1.37s-.52,2-1.89,2.34c-.39.07-.65,1-.91,1.5-.07.13.39.59.52.52,1.23-.39,2.47-.84,4.1-1.23,1.37-.46,2.74-.79,4-1.37a39.09,39.09,0,0,0,7-3.32c2.15-1.44,4.56-3.13,5.73-5.28a10.21,10.21,0,0,1,5-4.69,2,2,0,0,1,.59.06,1.37,1.37,0,0,1-.59-.71,20.59,20.59,0,0,0,1.24-2c.33-.91.46-1.89.72-2.54a1.91,1.91,0,0,1,.58.06,1.37,1.37,0,0,1-.58-.71c3.52-3.59,3.13-4.69-1.5-6.32-1.24-.39-2.8-2-2.87-3s1.5-2.67,2.67-3.19c.92-.33,2.41.71,3.65,1.43.2.07.39.2.65.65a.32.32,0,0,1-.32.33,1.68,1.68,0,0,0-.07.59,1.32,1.32,0,0,1,.72-.59,2.51,2.51,0,0,1-.33-1,1.27,1.27,0,0,1-.65-.65c-.91-4.23-1.76-8.47-2.6-13-.46-.32-.92-1-1.24-.91-2.93.78-6,1.3-8.66,2.61-3.59,1.82-6.91,4.23-10.62,6.44-2.15,1-4.3,2.15-6.39,3.26-1.5.78-2.93,1.7-4.36,2.28-.26.07-.46.2-1,.33a98.87,98.87,0,0,1-15.31,8.14c-.19,0-.45-.06-.65-.06a1.38,1.38,0,0,1,.65.71,15.65,15.65,0,0,1-2.28,1,2,2,0,0,1-.65.65M50.27,126.76a2,2,0,0,0-.06.59,1.41,1.41,0,0,1,.72-.59,2.3,2.3,0,0,1-.33-1,1.19,1.19,0,0,1,.33-1,6.35,6.35,0,0,0,1.82.72c2.34.39,2.67,2.54,3.71,4a14.81,14.81,0,0,1-2.28,1.1,18.76,18.76,0,0,0-2.54-.52c-2.93-.26-4,.91-3.71,3.72.32,2.41.45,4.82.72,7.23a3.08,3.08,0,0,0,3.19,3.25c3.19.07,6.38.07,9.57-.06,4-.13,8.08-.39,12.12-.59,3.84-.19,7.69-.52,11.53-.65s7.69.13,11.47-.13c4.3-.2,8.6-.91,12.83-1.17,3.52-.2,7.1.58,10.42-.13,7.82-1.76,14.73,1.17,22,3a2.54,2.54,0,0,1,1.3,1c2,2.8,2,11.79.13,14.59-2.09,3.19-4,6.45-5.86,9.84-.39.71.19,1.88.13,2.86,0,.26-.59.46-.85.39s-.46-.06-.65-.06a1.47,1.47,0,0,1,.65.71,1.5,1.5,0,0,1,.33,1c-.26.2-.72.52-.66.65.46,2-.45,3.91-.65,5.87a4.69,4.69,0,0,1,.33,1c-.26,1.7-.46,3.46-.65,5.15a62.94,62.94,0,0,1-1,6.9,5.13,5.13,0,0,1,.33,1c2,1.11.06,2.87.32,4.24.07.84.2,1.69.33,2.93.39,1.82.84,3.65,1.3,5.86.52,1.17.72,2.74,1.63,3.45,2.47,1.89,2.6,1.76,2.6,4a2,2,0,0,0-.06.59,1.37,1.37,0,0,1,.72-.59l.39,2c2.28-1.37.65,1,.91,1.3a1.68,1.68,0,0,0-.07.59,1.32,1.32,0,0,1,.72-.59c1.3,1.95,2.48,4,4,5.86.53.65,1.63.85,2.48,1.24.19-.85.46-1.69.65-2.61.46-1.69.59-3.51,1.37-5a3,3,0,0,1,2.73-1.11,3,3,0,0,1,1.37,2.48c0,2.28-.52,4.56-.71,6.84a9.75,9.75,0,0,0,.52,2.73c1-.45,1.95-.78,2.86-1.24s1.63-1,2.48-1.49c.13-.07.65.32.72.52.39,1.56.26,3.38,1,4.56s1.5,3.19,4,1.69c1.89-1.17,5,1.17,5.47,3.39.06.26.52.72.65.65,4.63-1.82,9.38-3.52,13.94-5.54,1.24-.58,3.52-1.43,2.67-3.84a4.29,4.29,0,0,1,1.63-.65c5.86.32,9.9-2.67,12.7-7.36,1.24-2,2-4.37.26-6.91-.65-1,0-2.87,0-4.3a15.88,15.88,0,0,0-.32-4.56V202a11.1,11.1,0,0,1,3.56-.33v-.59c-3,.2-3,.39-3.5.59,0-.59.07-1.24.13-1.82.27-1.57-.19-2.09-1.75-2.15-.13,0-.33-.39-.33-.66.2-1,.07-2.28.59-3.06,1.62-2.47,1-4.69-.2-6.9a33.27,33.27,0,0,1-2-4.11c-3.06-8.46-10.68-15.24-19.28-18.69-5.21-2.15-10.36-4.3-15.9-5.34a38.3,38.3,0,0,1-8.47-3.2c-.39-.32-1-.71-1-.91.91-2.6-.91-4.49-1.89-6.51-.65-1.37-2.08-2.54-2.21-3.85-.26-3.64-.39-7.23-2-10.88A1.24,1.24,0,0,1,149,133c-.2-1.82-.26-3.64-.52-5.4-.59-4.89-1.24-9.71-1.89-14.6-.91-6.71-1.89-13.35-2.8-20.06-.66-4.43-.72-9.06-2.15-13.16-2.09-6-3.13-12.12-4.76-18.17-1.5-5.41-3.06-10.75-4.36-16.1-1.05-4.16-2.48-5.53-6.84-5.34-5.67.26-10.17,3-13.81,6.84-.27.07-.46.2-1,.33a19.57,19.57,0,0,1-2,1.3,4.87,4.87,0,0,1,.33,1c-2.48.45-2.67,1.69-1.3,3.91a1.83,1.83,0,0,1,1-.33,31.32,31.32,0,0,1,2,4.56.32.32,0,0,1-.33-.32c-.26.06-.45.19-1,.32-2-1.69-4.43-1-6.71-1-.4-.07-1.37,1-1.24,1.5.84,4-.85,7.62-2.15,10.94-.2,0-.46-.06-.65-.06a1.47,1.47,0,0,1,.65.71C96.53,76,99.85,81.68,101,87.55c0,.19.72.26,1.11.39a14.28,14.28,0,0,1-.07-1.89,32.18,32.18,0,0,1-.65-3.45,4,4,0,0,1,.33-1.44c.32.33.65.59.91.92a73.2,73.2,0,0,1,7,13.94c.26.71,1.1,1.17,1.49,1.82,1.44,2.22,2.48,4.89,4.3,6.71,3.78,3.52,8,6.58,11.66,9.84.2.65.2,1.63.66,1.89a16,16,0,0,0,2.6.71,7.31,7.31,0,0,1-1.3.65.32.32,0,0,1-.33-.32c-.19,0-.45-.07-.65-.07a1.37,1.37,0,0,1,.65.72,1.88,1.88,0,0,1,1-.33l.59.59a2.49,2.49,0,0,1,.71-1.24c.33.2.65.39.65.65a2,2,0,0,0-.06.59,1.41,1.41,0,0,1,.72-.59c5.4,4.24,10.81,8.47,14.65,14.66a1.81,1.81,0,0,1,1-.32,5.86,5.86,0,0,1,1,1.62c.19.07.39.2.65.66-.2.65-.39,1.36-.59,2.08-.32,1.11-.39,2.93-1,3.19a6.11,6.11,0,0,1-3.84-.39c-.92-.39-1.57-1.5-2.35-2.28-1.63-1.63-3.06-3.84-5.08-4.88-8.14-4.37-13.81-11.47-20.19-17.79a44,44,0,0,0-4-3.71,53.83,53.83,0,0,0-6.19-3.78,57.37,57.37,0,0,0-7.81-3.32,30.55,30.55,0,0,0-6.91-1c-5.21-.26-10.42-.26-15.63-.72-.26.07-.46.2-1,.33-3.13,1.17-6.78,1.24-9.06,4.3-.32.52-1.69.19-2.54.46-.26.06-.32.71-.78,1.1a28.31,28.31,0,0,1-3.26,2,33.49,33.49,0,0,1-2.6,2.6,6,6,0,0,1,.32,1c-1.43.52-.39,2-1,3.13-1.63,2.67-7.88,2.41-5.27,7.68.06.13-.14.39-.53.59.07.39.2.85.33,1.63a.32.32,0,0,1-.33.32m153,33.88a.32.32,0,0,1-.32-.33c-.2,0-.46-.06-.66-.06a1.42,1.42,0,0,1,.66.72.32.32,0,0,1-.33.32,2,2,0,0,0-.06.59,1.37,1.37,0,0,1,.71-.59c.07-.26.2-.46.65-.65v-.59a1.15,1.15,0,0,1-.65.59m-72.25.65a2.37,2.37,0,0,1-.32-1c0-.45-.13-1,.06-1.36,1.7-2.22,3.72-4.24,5.08-6.65.65-1,.07-2.67.07-4.36-2.41-.59-4.76-1.57-7.17-1.57-5.8-.06-11.53.39-17.33.59-3.38.06-6.77-.13-10.22,0-4.3.19-8.67.65-13,.78-1.43.07-2.93-.59-4.36-.52-3.91.2-7.88.65-11.79.72-.26.06-.46.19-1,.32a1.22,1.22,0,0,1-1-.32c-.26.06-.45.19-1,.32-1,.2-2,.52-3,.65-4.24.46-8.47.79-12.7,1.31A5.7,5.7,0,0,0,48.25,155c-.26,2.28.92,4.76,1.57,7.1.06.13,1.37-.06,2.08.2a2,2,0,0,1,.59.06,1.37,1.37,0,0,1-.59-.71c.33-.79.52-1.76,1.11-2.22a22.61,22.61,0,0,1,4.43-2.67c1.56,2-.33,3.26-1.3,4.43-4.5,5.54-5,8.08-1.63,11.79a12.06,12.06,0,0,0,3.19,2,20.92,20.92,0,0,1,.07-2.87,2.71,2.71,0,0,1,1-1.69c.07-.26.2-.46.65-.65a2.37,2.37,0,0,1-.32-1,6.87,6.87,0,0,1,1.3-1.95,1.88,1.88,0,0,1,1-.33,13.63,13.63,0,0,1,1.63-.13c0,.65-.07,1.37-.07,2.09,0,.39.07.84.07,1.63-.72,1.3-1.18,2.93-2.15,4-2,2-1.37,4,1,5.54,3,2,7-1,9.45,2.34,0,0,.52-.32.78-.13s.32.65.45,1a2.36,2.36,0,0,1,1.18-.65c.45.39.84,1.17,1.3,1.23,4.17.66,8.4,1.76,12.51,1.7,3.71-.13,7.68-.65,10.35-4.17.66-1,2.94-2,3.2-1.76,1.3,1.3,2,1,3-.26.13-.13.78.2,1.24.26,1.43.07,2.93.2,4.37.13a14.57,14.57,0,0,0,.19-2.67c.46-.65.91-1.37,1.37-2,3.13-4.63,7-8.08,13-8.53a7.1,7.1,0,0,0,5.54-3.46c.07-.26.2-.45.65-.65.07-.26.2-.45.65-.65M125,167.15a1.71,1.71,0,0,0-.07.59,1.37,1.37,0,0,1,.72-.59v-.58a1.18,1.18,0,0,1-.65.58M189.68,87a1.91,1.91,0,0,0-.06.58,1.37,1.37,0,0,1,.71-.58c.07-.26.2-.46.66-.65.26.13.52.26.84.45a3.25,3.25,0,0,1,.07-.85,15.84,15.84,0,0,1-1.57.4,2,2,0,0,1-.65.65m-.62,2a2,2,0,0,0-.06.59,1.37,1.37,0,0,1,.71-.59v-.59a1.12,1.12,0,0,1-.65.59m-66.8,21.82c-.2,0-.46-.06-.65-.06a1.46,1.46,0,0,1,.65.72,1.91,1.91,0,0,1,.58.06,1.36,1.36,0,0,1-.58-.72m1.95,78.83c-.19,0-.45-.07-.65-.07a1.37,1.37,0,0,1,.65.72,1.71,1.71,0,0,1,.59.07,1.45,1.45,0,0,1-.59-.72m46.91,47.55c-.2,0-.46-.06-.66-.06a1.42,1.42,0,0,1,.66.72,1.91,1.91,0,0,1,.58.06,1.36,1.36,0,0,1-.58-.72m-73,3.26c-.19,0-.45-.06-.65-.06a1.38,1.38,0,0,1,.65.71,1.84,1.84,0,0,1,1-.32c.26.13.52.26.85.45a3.69,3.69,0,0,1,.06-.84,13,13,0,0,1-1.56.39.32.32,0,0,1-.33-.33m25.41-67.75c-.26.07-.45.2-1,.33a.32.32,0,0,1-.32-.33c-1.11-.13-2.15-.26-3.26-.32-.19,0-.39.26-.59.39.27.06.79.06.85.26,1,2.28,2-1.11,3,.32a.32.32,0,0,1-.33.33l-.91.19a2.62,2.62,0,0,1,1.24.79c.32.26.71.52,1.11.84a3.61,3.61,0,0,1,.52-1.82,2.51,2.51,0,0,1-.33-1m12.76-16.83v-2.32a2.62,2.62,0,0,1-.65,1.24,1.65,1.65,0,0,0-.07.58,1.36,1.36,0,0,1,.72-.58m31.54,81.75c-.2,0-.46-.06-.65-.06a1.47,1.47,0,0,1,.65.71c-.65.2-1.3.46-2,.66a3.22,3.22,0,0,0,1.5.26,12.2,12.2,0,0,0,2.28-1,3.85,3.85,0,0,1-1.82-.52m-16.07-188c-.39-.52-1-1.1-1-1.56a14,14,0,0,1,1.11-4.36c1.24-2.61-.26-3.2-2.28-3.52a26.29,26.29,0,0,1-4.36-1c-.27.07-.46.2-1,.33h-6.45c-2.93-.07-3.45,1.88-2.93,4,.71,3.26,1.89,6.39,2.8,9.58,2.28,8.08,4.82,16.16,6.77,24.36,1.18,4.56,1.44,9.39,2,14.14.13.85-.19,1.76,0,2.61.59,2.15,1.7,4.23,1.89,6.45.52,4.23.46,8.53.85,12.83.06.72-.07,1.82,1.95,2,3.39.26,3.13-2.34,4.5-3.32a1.65,1.65,0,0,1,.58.07,1.36,1.36,0,0,1-.58-.72c-.26-.26-.72-.59-.65-.72,1.43-3.51,1.82-7.55,5.08-10.29s6.12-5.47,9.25-7.88a2,2,0,0,1,.59.06,1.33,1.33,0,0,1-.59-.71,13.45,13.45,0,0,0,8.14-9.38c1-4.37.39-9.38-.39-13.94-.65-4-2.34-7.89-4-11.73a12.84,12.84,0,0,0-3.52-5c-1.89-1.43-4-.78-6,.52-1.31.91-3.13,1.11-3.33-1-.13-1.44.79-2.87,1.11-4.37.07-.52-.32-1.1-.19-1.69v-.59a1.18,1.18,0,0,1-.66.59c-.78.32-1.62.65-2.41,1-2.15,1.11-3.19,4.37-6.38,3.19m39.85,41.8a30.36,30.36,0,0,0-5.54,2.28c-3.52,2.35-6.91,4.89-10.23,7.5a20.16,20.16,0,0,0-4.1,4.1c-2.74,4.3-5.28,8.66-7.82,13.09a27.6,27.6,0,0,0-1.95,5c-.66,2.08-.85,4.3-1.63,6.32-.65,1.76-2.54,3.26-2.8,4.95-.39,2.93-1.5,6.19.84,8.86a1.94,1.94,0,0,0-.06.59,1.33,1.33,0,0,1,.71-.59,14.41,14.41,0,0,0,2.87-.65c2.54-1,5.08-2.15,7.56-3.26a14.73,14.73,0,0,1,2.21-.91,26.34,26.34,0,0,1,5.28-1.37,1.73,1.73,0,0,1,.59.07,1.36,1.36,0,0,1-.59-.72l2.21.39c-.06-2.48,2.35-2.28,3.65-3a1.71,1.71,0,0,1,.59.07,1.37,1.37,0,0,1-.59-.72c.85-.58,1.7-1.24,2.61-1.76,3.45-1.89,7-3.91,10.55-5.73,3.26-1.63,6.84-2.93,10-4.76s6.13-4.36,9.38-6.25c2.94-1.69,6.13-2.87,9.19-4.43s3.13-3.13,1.5-6.19c-2-3.78-6.58-4.82-8.73-8.66-.26.06-.46.19-1,.32a47.39,47.39,0,0,1-4.88-2.93A57.41,57.41,0,0,1,205,90c-.26.06-.45.19-1,.32a13.2,13.2,0,0,0-2.21-.19c-3.26,0-6.58.13-10.16.19M105,221.22c.45,2.54.91,5.15,1.43,7.69.06.46.45,1.17.71,1.17.46,0,1.31-.32,1.37-.65.39-2.54.72-5,1-7.56.39-3.77-.26-7.55,1.56-11.2.79-1.56.13-3.91.07-5.86a4.11,4.11,0,0,0-.33-1.18c-.19.27-.52.4-.65.72-2.08,4.56-4.17,9.12-6.06,13.75-.32.71.33,1.82.92,3.12M179,90.61a8.75,8.75,0,0,0-.26-.85c-.13.72-.26,1.37-.39,2.09a2.18,2.18,0,0,0,.65.06v-.13M97.18,241.42a5,5,0,0,0-1,.71c-.06.07.13.33.2.53a1.85,1.85,0,0,0,.78-1.24M97.83,98.1a4.79,4.79,0,0,0,.32.65c.07-.26.2-.45-.32-.65m28.66,90.55c.07-.32.13-.72.2-1a3.33,3.33,0,0,1-.39-.13,1.39,1.39,0,0,0,.19,1.17m11.73-35.83.78-.19a2.47,2.47,0,0,0-.06-.39c-.4.06-.72.13-.72.58M58.09,176.27a1.47,1.47,0,0,1,.26-.39c-.19,0-.39,0-.26.39M106,180.51a1.26,1.26,0,0,1,.39.26c-.06-.2-.06-.39-.39-.26M124.86,172a1.26,1.26,0,0,0-.39-.26c0,.19,0,.39.39.26m15.31,42.67a1.47,1.47,0,0,0-.26.39c.2-.07.39-.07.26-.39m25.08,21.82a1.47,1.47,0,0,1,.39.26c-.06-.19-.06-.39-.39-.26m-50.16-5.21a1.47,1.47,0,0,0-.39-.26c0,.2,0,.39.39.26m42.67-1a1.47,1.47,0,0,0-.26.39c.2-.06.39-.06.26-.39M134.64,187a1.37,1.37,0,0,0-.4-.26c0,.2,0,.39.4.26m-9.45.33a1.26,1.26,0,0,1,.26-.39c-.2,0-.39,0-.26.39m1.63-1a1.47,1.47,0,0,0-.39-.26c0,.2,0,.39.39.26m7.49,11.4a1.47,1.47,0,0,1,.26-.39c-.19,0-.39,0-.26.39m45.6-105.53a1.47,1.47,0,0,1,.26-.39c-.19,0-.39,0-.26.39m-77.85-2.93a1.26,1.26,0,0,1,.39.26c-.06-.2-.06-.39-.39-.26m33.55,65.47a1.47,1.47,0,0,0-.26.39c.2-.07.39-.07.26-.39m26.06-7.17a1.47,1.47,0,0,1,.26-.39c-.19,0-.39,0-.26.39m38.44,13.68a1.26,1.26,0,0,1,.26-.39c-.2,0-.39,0-.26.39m34.52-30.62a1.47,1.47,0,0,1,.26-.39c-.19,0-.39,0-.26.39m-186-1a1.3,1.3,0,0,0-.4-.26c0,.19,0,.39.4.26M236.91,146a1.47,1.47,0,0,0-.39-.26c0,.2,0,.39.39.26" transform="translate(-41.41 -33.03)"/><path class="cls-1" d="M98,244c.06.2-.07.39-.2.59A.71.71,0,0,1,98,244" transform="translate(-41.41 -33.03)"/><path class="cls-1" d="M98.61,243.37c.07.2-.06.39-.32.65-.07-.26.06-.45.32-.65" transform="translate(-41.41 -33.03)"/><path class="cls-1" d="M218.15,85.07a1,1,0,0,1,.2-.58.7.7,0,0,1-.2.58" transform="translate(-41.41 -33.03)"/><path class="cls-1" d="M205.64,167.28a1.18,1.18,0,0,1,.59.26,1.1,1.1,0,0,1-.59-.26" transform="translate(-41.41 -33.03)"/><path class="cls-1" d="M166.56,210.6c-1.89-1.56.39-2.08,1.1-3.06-.26,1-.71,2-1.1,3.06" transform="translate(-41.41 -33.03)"/><path class="cls-1" d="M147.66,140.9a3,3,0,0,1-1.3-.19,4.45,4.45,0,0,1,1.3.19" transform="translate(-41.41 -33.03)"/><path class="cls-1" d="M68.32,124.16a3.79,3.79,0,0,1,.19-1.24,3,3,0,0,1-.19,1.24" transform="translate(-41.41 -33.03)"/><path class="cls-1" d="M203.49,203a2.69,2.69,0,0,1-.19,1.24,2.83,2.83,0,0,1,.19-1.24" transform="translate(-41.41 -33.03)"/><path class="cls-1" d="M149.62,208a3.08,3.08,0,0,1-1.3-.2,4.56,4.56,0,0,1,1.3.2" transform="translate(-41.41 -33.03)"/><path class="cls-1" d="M168,207.54a3.78,3.78,0,0,1,.19-1.23,2.92,2.92,0,0,1-.19,1.23" transform="translate(-41.41 -33.03)"/><path class="cls-1" d="M136.07,182.14c-.13,0-.13-.33-.13-.52a.58.58,0,0,1,.13.52" transform="translate(-41.41 -33.03)"/><path class="cls-1" d="M143.23,178.68c.07-.19.27-.19.46-.19-.13.13-.19.26-.46.19" transform="translate(-41.41 -33.03)"/><path class="cls-1" d="M143.76,176.73a.86.86,0,0,1-.66-.2,1.3,1.3,0,0,1,.66.2" transform="translate(-41.41 -33.03)"/><path class="cls-1" d="M143.76,177.06a1.15,1.15,0,0,1,.58.26,1.25,1.25,0,0,1-.58-.26" transform="translate(-41.41 -33.03)"/><path class="cls-1" d="M156.13,171.71c-.13-.26-.26-.45-.19-.52a.85.85,0,0,1,.19.52" transform="translate(-41.41 -33.03)"/><path class="cls-1" d="M137.24,175.1a1.18,1.18,0,0,1,.59.26,1.1,1.1,0,0,1-.59-.26" transform="translate(-41.41 -33.03)"/><path class="cls-1" d="M134.77,195.17c-.13,0-.13-.33-.13-.53a.62.62,0,0,1,.13.53" transform="translate(-41.41 -33.03)"/><path class="cls-1" d="M148.12,209c0,.19-.19.19-.39.26a.37.37,0,0,1,.39-.26" transform="translate(-41.41 -33.03)"/><path class="cls-1" d="M165.71,217.77c-.2,0-.2-.19-.2-.39.13.07.26.13.2.39" transform="translate(-41.41 -33.03)"/><path class="cls-1" d="M150.07,212.1c.07.2-.06.39-.19.59a.74.74,0,0,1,.19-.59" transform="translate(-41.41 -33.03)"/><path class="cls-1" d="M150.4,212.1a1,1,0,0,1,.2-.58.7.7,0,0,1-.2.58" transform="translate(-41.41 -33.03)"/><path class="cls-1" d="M159.2,211.26c-.2,0-.2-.2-.2-.39a.29.29,0,0,1,.2.39" transform="translate(-41.41 -33.03)"/><path class="cls-1" d="M162.45,209.63c0,.19-.19.19-.39.26a.38.38,0,0,1,.39-.26" transform="translate(-41.41 -33.03)"/><path class="cls-1" d="M136.72,208.19a1,1,0,0,1,.2-.58.7.7,0,0,1-.2.58" transform="translate(-41.41 -33.03)"/><path class="cls-1" d="M151.7,207.35c.07-.2.26-.2.46-.2-.13.13-.2.26-.46.2" transform="translate(-41.41 -33.03)"/><path class="cls-1" d="M150.73,207.35c-.2,0-.2-.2-.2-.39a.29.29,0,0,1,.2.39" transform="translate(-41.41 -33.03)"/><path class="cls-1" d="M151.38,205.72c0,.19-.2.19-.39.26a.37.37,0,0,1,.39-.26" transform="translate(-41.41 -33.03)"/><path class="cls-1" d="M204.14,204.94c.07.19-.06.39-.19.58a.72.72,0,0,1,.19-.58" transform="translate(-41.41 -33.03)"/><path class="cls-1" d="M147.47,205.07c0,.19-.2.19-.39.26a.37.37,0,0,1,.39-.26" transform="translate(-41.41 -33.03)"/><path class="cls-1" d="M152.35,204.74c.07-.19.27-.19.46-.19-.13.13-.19.26-.46.19" transform="translate(-41.41 -33.03)"/><path class="cls-1" d="M151.05,204.74c.07-.19.26-.19.46-.19-.13.13-.2.26-.46.19" transform="translate(-41.41 -33.03)"/><path class="cls-1" d="M169.94,233.08c.2.06.2.26.26.46-.13-.13-.26-.2-.26-.46" transform="translate(-41.41 -33.03)"/><path class="cls-1" d="M169.62,222.33c-.2,0-.2-.19-.2-.39.13.07.26.13.2.39" transform="translate(-41.41 -33.03)"/><path class="cls-1" d="M166.36,219.73c-.19,0-.19-.2-.19-.4.13.07.26.13.19.4" transform="translate(-41.41 -33.03)"/><path class="cls-1" d="M163.43,219.4c.19.06.19.26.26.46-.13-.13-.26-.2-.26-.46" transform="translate(-41.41 -33.03)"/><path class="cls-1" d="M146.36,189.11a.89.89,0,0,1-.65-.2,1.23,1.23,0,0,1,.65.2" transform="translate(-41.41 -33.03)"/><path class="cls-1" d="M147.47,193c-.2,0-.2-.2-.2-.39a.29.29,0,0,1,.2.39" transform="translate(-41.41 -33.03)"/><path class="cls-1" d="M147.14,191.39c.2.06.2.26.26.45-.13-.13-.26-.19-.26-.45" transform="translate(-41.41 -33.03)"/><path class="cls-1" d="M145.71,191.06a.82.82,0,0,1-.65-.19,1.27,1.27,0,0,1,.65.19" transform="translate(-41.41 -33.03)"/><path class="cls-1" d="M141.61,187.8c-.2,0-.2-.19-.2-.39.13.07.26.13.2.39" transform="translate(-41.41 -33.03)"/><path class="cls-1" d="M141.93,184.87c.2.07.2.26.26.46-.13-.13-.26-.2-.26-.46" transform="translate(-41.41 -33.03)"/><path class="cls-1" d="M142.58,183.9c.07-.2.26-.2.46-.2-.13.13-.2.26-.46.2" transform="translate(-41.41 -33.03)"/><path class="cls-1" d="M153,181.62c.19.06.19.26.26.45-.13-.13-.26-.19-.26-.45" transform="translate(-41.41 -33.03)"/><path class="cls-1" d="M146.49,195.62c.07-.19.26-.19.46-.19-.13.13-.2.26-.46.19" transform="translate(-41.41 -33.03)"/><path class="cls-1" d="M145.19,196.47a1.06,1.06,0,0,1,.19-.59.74.74,0,0,1-.19.59" transform="translate(-41.41 -33.03)"/><path class="cls-1" d="M144.86,196.47c.07.19-.06.39-.19.58a.72.72,0,0,1,.19-.58" transform="translate(-41.41 -33.03)"/><path class="cls-1" d="M143.76,198.23a.9.9,0,0,1-.66-.2,1.3,1.3,0,0,1,.66.2" transform="translate(-41.41 -33.03)"/><path class="cls-1" d="M143.76,198.55c.19-.06.39.07.65.33-.26.06-.46-.07-.65-.33" transform="translate(-41.41 -33.03)"/><path class="cls-1" d="M135.29,199.86a1.15,1.15,0,0,1,.58.26,1.25,1.25,0,0,1-.58-.26" transform="translate(-41.41 -33.03)"/><path class="cls-1" d="M145.06,199.86a1.22,1.22,0,0,1,.59.26,1.24,1.24,0,0,1-.59-.26" transform="translate(-41.41 -33.03)"/><path class="cls-1" d="M144.41,201.16c.19-.07.39.06.65.32-.26.07-.46-.06-.65-.32" transform="translate(-41.41 -33.03)"/><path class="cls-1" d="M135.42,202.33a1,1,0,0,1,.19-.58.72.72,0,0,1-.19.58" transform="translate(-41.41 -33.03)"/><path class="cls-1" d="M144.41,202.79a.87.87,0,0,1-.65-.2,1.29,1.29,0,0,1,.65.2" transform="translate(-41.41 -33.03)"/><path class="cls-1" d="M203.82,203c-.07-.26.06-.45.32-.65.07.2-.06.39-.32.65" transform="translate(-41.41 -33.03)"/><path class="cls-1" d="M75.35,102.14c0-.13.33-.13.46-.13a.49.49,0,0,1-.46.13" transform="translate(-41.41 -33.03)"/><path class="cls-1" d="M67.67,124.81c-.07-.26.06-.46.32-.65.07.19-.06.39-.32.65" transform="translate(-41.41 -33.03)"/><path class="cls-1" d="M57.24,113.08c-.13,0-.13-.32-.13-.52a.54.54,0,0,1,.13.52" transform="translate(-41.41 -33.03)"/><path class="cls-1" d="M59.72,110a1.18,1.18,0,0,1,.59.26,1.28,1.28,0,0,1-.59-.26" transform="translate(-41.41 -33.03)"/><path class="cls-1" d="M61.15,109.31c.2.06.2.26.26.45-.13-.13-.26-.19-.26-.45" transform="translate(-41.41 -33.03)"/><path class="cls-1" d="M62.78,108.52c.07.2-.06.39-.19.59a.74.74,0,0,1,.19-.59" transform="translate(-41.41 -33.03)"/><path class="cls-1" d="M67,125.46c-.07-.26.06-.45.32-.65.07.2-.06.39-.32.65" transform="translate(-41.41 -33.03)"/><path class="cls-1" d="M145.84,151c.2.06.2.26.26.45-.13-.13-.26-.19-.26-.45" transform="translate(-41.41 -33.03)"/><path class="cls-1" d="M156.59,156.08c.06.19-.07.39-.2.59a.71.71,0,0,1,.2-.59" transform="translate(-41.41 -33.03)"/><path class="cls-1" d="M54.51,130.8a1.15,1.15,0,0,1,.58.26,1.07,1.07,0,0,1-.58-.26" transform="translate(-41.41 -33.03)"/><path class="cls-1" d="M55.94,126.89c.2.07.2.27.26.46-.13-.13-.26-.19-.26-.46" transform="translate(-41.41 -33.03)"/><path class="cls-1" d="M66.69,125.46c.07.2-.06.39-.2.59a.71.71,0,0,1,.2-.59" transform="translate(-41.41 -33.03)"/><path class="cls-1" d="M147.66,141.23a1.15,1.15,0,0,1,.59.26,1.32,1.32,0,0,1-.59-.26" transform="translate(-41.41 -33.03)"/><path class="cls-1" d="M103.17,57.71A2.69,2.69,0,0,1,103,59a2.83,2.83,0,0,1,.19-1.24" transform="translate(-41.41 -33.03)"/><path class="cls-1" d="M117.83,81.16a3.78,3.78,0,0,1,.19-1.23,2.92,2.92,0,0,1-.19,1.23" transform="translate(-41.41 -33.03)"/><path class="cls-1" d="M106.62,77.91c-.26.19-.45.06-.65,0,.2-.13.39-.26.65,0" transform="translate(-41.41 -33.03)"/><path class="cls-1" d="M121.74,94.84a3.78,3.78,0,0,1,.19-1.23,2.92,2.92,0,0,1-.19,1.23" transform="translate(-41.41 -33.03)"/><path class="cls-1" d="M121.41,94.84c.07.2-.06.39-.32.66-.07-.27.06-.46.32-.66" transform="translate(-41.41 -33.03)"/><path class="cls-1" d="M120.76,95.5c.07.19-.07.39-.2.58a.7.7,0,0,1,.2-.58" transform="translate(-41.41 -33.03)"/><path class="cls-1" d="M122.71,102.47c-.19,0-.19-.2-.19-.4a.29.29,0,0,1,.19.4" transform="translate(-41.41 -33.03)"/><path class="cls-1" d="M122.39,92.69c.06-.19.26-.19.45-.19-.13.13-.19.26-.45.19" transform="translate(-41.41 -33.03)"/><path class="cls-1" d="M127.47,114.52a1.18,1.18,0,0,1,.59.26,1.28,1.28,0,0,1-.59-.26" transform="translate(-41.41 -33.03)"/><path class="cls-1" d="M130.21,115.49c.06-.19.26-.19.45-.19-.13.13-.19.26-.45.19" transform="translate(-41.41 -33.03)"/><path class="cls-1" d="M128.9,115.17c.2.06.2.26.26.45-.13-.13-.26-.19-.26-.45" transform="translate(-41.41 -33.03)"/><path class="cls-1" d="M124,104.42c-.2,0-.2-.2-.2-.39a.29.29,0,0,1,.2.39" transform="translate(-41.41 -33.03)"/><path class="cls-1" d="M108.58,53c0,.19-.33.19-.52.19a.44.44,0,0,1,.52-.19" transform="translate(-41.41 -33.03)"/><path class="cls-1" d="M113.92,62.4c.2.07.2.26.26.46-.13-.13-.26-.2-.26-.46" transform="translate(-41.41 -33.03)"/><path class="cls-1" d="M111.64,57.71a.47.47,0,0,1-.46.13c0-.13.33-.13.46-.13" transform="translate(-41.41 -33.03)"/><path class="cls-1" d="M109.88,57.84c0-.13.33-.13.46-.13a.47.47,0,0,1-.46.13" transform="translate(-41.41 -33.03)"/><path class="cls-1" d="M112,57.71a1,1,0,0,1,.19-.58.72.72,0,0,1-.19.58" transform="translate(-41.41 -33.03)"/><path class="cls-1" d="M103.5,57.71a1,1,0,0,1,.19-.58.72.72,0,0,1-.19.58" transform="translate(-41.41 -33.03)"/><path class="cls-1" d="M110,69.24c.07-.19.26-.19.46-.19-.13.13-.2.26-.46.19" transform="translate(-41.41 -33.03)"/><path class="cls-1" d="M109.36,49.24c-.13,0-.13-.32-.13-.52a.59.59,0,0,1,.13.52" transform="translate(-41.41 -33.03)"/><path class="cls-1" d="M111.18,47.42c0-.13.33-.13.46-.13a.52.52,0,0,1-.46.13" transform="translate(-41.41 -33.03)"/><path class="cls-1" d="M101.87,86.38c.06.19-.07.39-.2.58a.7.7,0,0,1,.2-.58" transform="translate(-41.41 -33.03)"/><path class="cls-1" d="M116.85,84.55c0,.2-.19.2-.39.26a.38.38,0,0,1,.39-.26" transform="translate(-41.41 -33.03)"/><path class="cls-1" d="M117.05,81a.87.87,0,0,1-.65-.2,1.29,1.29,0,0,1,.65.2" transform="translate(-41.41 -33.03)"/><path class="cls-1" d="M117.5,79c-.19,0-.19-.19-.19-.39.13.07.26.13.19.39" transform="translate(-41.41 -33.03)"/><path class="cls-1" d="M114.9,78.36c-.2,0-.2-.19-.2-.39.13.07.26.13.2.39" transform="translate(-41.41 -33.03)"/><path class="cls-1" d="M113.14,77.39a1.15,1.15,0,0,1,.58.26,1.25,1.25,0,0,1-.58-.26" transform="translate(-41.41 -33.03)"/><path class="cls-1" d="M113.14,77.06a.87.87,0,0,1-.65-.2,1.29,1.29,0,0,1,.65.2" transform="translate(-41.41 -33.03)"/><path class="cls-1" d="M147.66,131.78c0,.2-.32.2-.52.2a.46.46,0,0,1,.52-.2" transform="translate(-41.41 -33.03)"/><path class="cls-1" d="M84.47,174.45a4.59,4.59,0,0,1,1.24.26,3.66,3.66,0,0,1-1.24-.26" transform="translate(-41.41 -33.03)"/><path class="cls-1" d="M78.09,173.67a3.79,3.79,0,0,1,.2-1.24,2.85,2.85,0,0,1-.2,1.24" transform="translate(-41.41 -33.03)"/><path class="cls-1" d="M70.14,180.18c.2-.26.39-.13.65,0-.26.07-.45.2-.65,0" transform="translate(-41.41 -33.03)"/><path class="cls-1" d="M72.75,181.29c0,.2-.33.2-.52.2a.44.44,0,0,1,.52-.2" transform="translate(-41.41 -33.03)"/><path class="cls-1" d="M73.4,181.94c-.26.07-.46-.06-.65-.32.19-.07.39.06.65.32" transform="translate(-41.41 -33.03)"/><path class="cls-1" d="M109.36,177.58c-.07-.26.06-.46.33-.65.06.19-.07.39-.33.65" transform="translate(-41.41 -33.03)"/><path class="cls-1" d="M63.11,169.76a1.06,1.06,0,0,1,.19-.59.74.74,0,0,1-.19.59" transform="translate(-41.41 -33.03)"/><path class="cls-1" d="M58.22,169.76c.2,0,.2.33.2.46a.42.42,0,0,1-.2-.46" transform="translate(-41.41 -33.03)"/><path class="cls-1" d="M86.56,170.87c.06-.2.26-.2.46-.2-.13.13-.2.26-.46.2" transform="translate(-41.41 -33.03)"/><path class="cls-1" d="M89.49,170.54c0,.2-.19.2-.39.26a.38.38,0,0,1,.39-.26" transform="translate(-41.41 -33.03)"/><path class="cls-1" d="M77.11,171.19c0,.2-.19.2-.39.26a.38.38,0,0,1,.39-.26" transform="translate(-41.41 -33.03)"/><path class="cls-1" d="M88.19,171.19c0,.2-.2.2-.39.26a.37.37,0,0,1,.39-.26" transform="translate(-41.41 -33.03)"/><path class="cls-1" d="M104.67,171.06c-.26.07-.46.2-.52.13a1.11,1.11,0,0,1,.52-.13" transform="translate(-41.41 -33.03)"/><path class="cls-1" d="M84.28,172.17c-.2,0-.2-.2-.2-.39a.29.29,0,0,1,.2.39" transform="translate(-41.41 -33.03)"/><path class="cls-1" d="M102.19,172.17c.07-.2.26-.2.46-.2-.13.13-.2.27-.46.2" transform="translate(-41.41 -33.03)"/><path class="cls-1" d="M75.16,174.12c-.2,0-.2-.19-.2-.39.13.07.26.13.2.39" transform="translate(-41.41 -33.03)"/><path class="cls-1" d="M77.76,173.67c.07.19-.06.39-.19.58a.72.72,0,0,1,.19-.58" transform="translate(-41.41 -33.03)"/><path class="cls-1" d="M84.47,174.12a.84.84,0,0,1-.65-.19,1.22,1.22,0,0,1,.65.19" transform="translate(-41.41 -33.03)"/><path class="cls-1" d="M86.89,173.67c.06.19-.07.39-.2.58a.7.7,0,0,1,.2-.58" transform="translate(-41.41 -33.03)"/><path class="cls-1" d="M95.68,174.12c.06-.19.26-.19.46-.19-.13.13-.2.26-.46.19" transform="translate(-41.41 -33.03)"/><path class="cls-1" d="M88.84,174.45c0,.2-.2.2-.39.26a.37.37,0,0,1,.39-.26" transform="translate(-41.41 -33.03)"/><path class="cls-1" d="M94.7,175.43c-.19,0-.19-.2-.19-.39a.28.28,0,0,1,.19.39" transform="translate(-41.41 -33.03)"/><path class="cls-1" d="M71.58,156.21c.19.06.19.26.26.46-.13-.13-.26-.2-.26-.46" transform="translate(-41.41 -33.03)"/><path class="cls-1" d="M73.53,155.88c.07-.19.26-.19.46-.19-.13.13-.2.26-.46.19" transform="translate(-41.41 -33.03)"/><path class="cls-1" d="M70.14,155.56a1.18,1.18,0,0,1,.59.26,1.28,1.28,0,0,1-.59-.26" transform="translate(-41.41 -33.03)"/><path class="cls-1" d="M70.14,155.23a.84.84,0,0,1-.65-.19,1.22,1.22,0,0,1,.65.19" transform="translate(-41.41 -33.03)"/><path class="cls-1" d="M72.23,153.93c.06-.2.26-.2.45-.2-.13.13-.19.26-.45.2" transform="translate(-41.41 -33.03)"/><path class="cls-1" d="M135.74,148.26c.07.2-.06.39-.19.59a.74.74,0,0,1,.19-.59" transform="translate(-41.41 -33.03)"/><path class="cls-1" d="M71.45,148.39c0-.13.32-.13.45-.13a.45.45,0,0,1-.45.13" transform="translate(-41.41 -33.03)"/><path class="cls-1" d="M69.49,148.39c0-.13.33-.13.46-.13a.47.47,0,0,1-.46.13" transform="translate(-41.41 -33.03)"/><path class="cls-1" d="M61,166.31c0,.19-.32.19-.52.19a.44.44,0,0,1,.52-.19" transform="translate(-41.41 -33.03)"/><path class="cls-1" d="M128.58,162.59c.06.2-.07.39-.2.59a.71.71,0,0,1,.2-.59" transform="translate(-41.41 -33.03)"/><path class="cls-1" d="M216.72,95c0-.13.32-.13.45-.13a.45.45,0,0,1-.45.13" transform="translate(-41.41 -33.03)"/><path class="cls-1" d="M211,95.3c.07-.2.27-.2.46-.2-.13.13-.19.26-.46.2" transform="translate(-41.41 -33.03)"/><path class="cls-1" d="M205.64,94.84c.07.2.2.39.13.46a.81.81,0,0,1-.13-.46" transform="translate(-41.41 -33.03)"/><path class="cls-1" d="M213.59,94.65c.07-.2.26-.2.46-.2-.13.13-.2.26-.46.2" transform="translate(-41.41 -33.03)"/><path class="cls-1" d="M209.36,94c-.2,0-.2-.2-.2-.39a.29.29,0,0,1,.2.39" transform="translate(-41.41 -33.03)"/><path class="cls-1" d="M208.05,92.89a.5.5,0,0,1-.45.13c0-.13.32-.13.45-.13" transform="translate(-41.41 -33.03)"/><path class="cls-1" d="M211.31,92.24c.07.19-.06.39-.2.58a.7.7,0,0,1,.2-.58" transform="translate(-41.41 -33.03)"/><path class="cls-1" d="M208.38,92.89a1.06,1.06,0,0,1,.19-.59.74.74,0,0,1-.19.59" transform="translate(-41.41 -33.03)"/><path class="cls-1" d="M207.6,92.69a.82.82,0,0,1-.65-.19,1.27,1.27,0,0,1,.65.19" transform="translate(-41.41 -33.03)"/><path class="cls-1" d="M204.34,90.41c0-.13.33-.13.46-.13a.47.47,0,0,1-.46.13" transform="translate(-41.41 -33.03)"/><path class="cls-1" d="M192,90.41a1.18,1.18,0,0,1,.59.26,1.1,1.1,0,0,1-.59-.26" transform="translate(-41.41 -33.03)"/><path class="cls-1" d="M143.56,47.29c.07.19-.06.39-.2.58a.7.7,0,0,1,.2-.58" transform="translate(-41.41 -33.03)"/><path class="cls-1" d="M146.36,39.6c0-.13.33-.13.46-.13a.47.47,0,0,1-.46.13" transform="translate(-41.41 -33.03)"/><path class="cls-1" d="M177.76,84.23c.07-.2.26-.2.46-.2-.13.13-.2.26-.46.2" transform="translate(-41.41 -33.03)"/><path class="cls-1" d="M233.13,123.31c.07-.19.26-.19.46-.19-.13.13-.2.26-.46.19" transform="translate(-41.41 -33.03)"/><path class="cls-1" d="M211.51,122.33a1.09,1.09,0,0,1,.58.27,1.18,1.18,0,0,1-.58-.27" transform="translate(-41.41 -33.03)"/><path class="cls-1" d="M231.51,114.39c.06.19-.07.39-.2.58a.7.7,0,0,1,.2-.58" transform="translate(-41.41 -33.03)"/><path class="cls-1" d="M173.53,151c0,.19-.2.19-.39.26a.37.37,0,0,1,.39-.26" transform="translate(-41.41 -33.03)"/><path class="cls-1" d="M169.94,150.87a1.07,1.07,0,0,1,.2-.59.71.71,0,0,1-.2.59" transform="translate(-41.41 -33.03)"/><path class="cls-1" d="M169.29,146.44c.2.06.2.26.26.45-.13-.13-.26-.19-.26-.45" transform="translate(-41.41 -33.03)"/><path class="cls-1" d="M208.25,159.14a.82.82,0,0,1-.65-.19,1.27,1.27,0,0,1,.65.19" transform="translate(-41.41 -33.03)"/><path class="cls-1" d="M199.78,128.2c0-.13.33-.13.46-.13a.52.52,0,0,1-.46.13" transform="translate(-41.41 -33.03)"/><path class="cls-1" d="M203.49,127.22c-.19,0-.19-.2-.19-.39a.28.28,0,0,1,.19.39" transform="translate(-41.41 -33.03)"/><path class="cls-1" d="M231.83,124.94c.2.07.2.26.26.46-.13-.13-.26-.2-.26-.46" transform="translate(-41.41 -33.03)"/><path class="cls-1" d="M230.53,124.94c.19.07.19.26.26.46-.13-.13-.26-.2-.26-.46" transform="translate(-41.41 -33.03)"/><path class="cls-1" d="M230.53,142.53c.19.06.19.26.26.46-.13-.13-.26-.2-.26-.46" transform="translate(-41.41 -33.03)"/><path class="cls-1" d="M179.59,140.57c0-.13.32-.13.45-.13a.45.45,0,0,1-.45.13" transform="translate(-41.41 -33.03)"/><path class="cls-1" d="M227.92,138c.2.06.2.26.26.46-.13-.14-.26-.2-.26-.46" transform="translate(-41.41 -33.03)"/><path class="cls-1" d="M227.27,137c.07-.19.26-.19.46-.19-.13.13-.2.26-.46.19" transform="translate(-41.41 -33.03)"/><path class="cls-1" d="M162.78,215.82c-.59-.59-1-1-1.44-1.37l1.37-.39a8.42,8.42,0,0,1,.07,1.76" transform="translate(-41.41 -33.03)"/><path class="cls-1" d="M164,211.45a3.24,3.24,0,0,1,1.24,1,3,3,0,0,1-.46.32,3.45,3.45,0,0,1-.78-1.3" transform="translate(-41.41 -33.03)"/><path class="cls-1" d="M144.21,199.73a1.93,1.93,0,0,1,.2,1.1,6.56,6.56,0,0,1-1.24-.91c.33-.06.59-.13,1-.19" transform="translate(-41.41 -33.03)"/><path class="cls-1" d="M166.56,210.93a3.62,3.62,0,0,1,1.1-.59c.07.26.07.53.13.79a2.66,2.66,0,0,1-1.23-.2" transform="translate(-41.41 -33.03)"/><path class="cls-1" d="M143.89,186.18a3.73,3.73,0,0,1,.39,1.56,1.57,1.57,0,0,1-.39.06,4.37,4.37,0,0,1,0-1.62" transform="translate(-41.41 -33.03)"/><path class="cls-1" d="M170.46,220.57c.2,0,.46.33.59.65.07.13-.26.33-.39.52a9.84,9.84,0,0,1-.2-1.17" transform="translate(-41.41 -33.03)"/><path class="cls-1" d="M171.92,188a7.51,7.51,0,0,1,.78,1.11,2.67,2.67,0,0,1-.78-.65v-.56" transform="translate(-41.41 -33.03)"/><path class="cls-1" d="M144.86,203a3.92,3.92,0,0,1-.26,1.18,10.46,10.46,0,0,1-.19-1c0-.13.32-.13.45-.13" transform="translate(-41.41 -33.03)"/><path class="cls-1" d="M145.71,202.79c0,.19-.33.19-.52.19a3,3,0,0,1-.13-1.17,5.27,5.27,0,0,1,.65,1" transform="translate(-41.41 -33.03)"/><path class="cls-1" d="M63.11,108.52c-.13,0-.13-.32-.13-.52a2.59,2.59,0,0,1,1.17.33c-.33.06-.59.13-1,.19" transform="translate(-41.41 -33.03)"/><path class="cls-1" d="M145.71,191.39a3.58,3.58,0,0,1,.59.91,1.56,1.56,0,0,0-.46.13c-.06-.33-.06-.59-.13-1" transform="translate(-41.41 -33.03)"/><path class="cls-1" d="M163.43,218.42a1.59,1.59,0,0,1,0-1,3.33,3.33,0,0,0,.39.13c-.06.32-.13.71-.39.84" transform="translate(-41.41 -33.03)"/><path class="cls-1" d="M145.71,203.11a3.66,3.66,0,0,1,.59.92,1.56,1.56,0,0,0-.46.13c-.06-.33-.06-.59-.13-1" transform="translate(-41.41 -33.03)"/><path class="cls-1" d="M146.36,189.43a3.66,3.66,0,0,1,.59.92,1.56,1.56,0,0,0-.46.13c-.06-.33-.06-.59-.13-1" transform="translate(-41.41 -33.03)"/><path class="cls-1" d="M145.06,199.53c0,.2-.33.2-.52.2s-.13-.33-.13-.53c.19-.06.39.07.65.33" transform="translate(-41.41 -33.03)"/><path class="cls-1" d="M124.86,94a6.84,6.84,0,0,1-1.3-1.37s.26-.2.39-.33c.26.52.59,1,.91,1.7" transform="translate(-41.41 -33.03)"/><path class="cls-1" d="M125.32,99.86a1.62,1.62,0,0,1-1-.2,5.56,5.56,0,0,1,.84-.84,1.62,1.62,0,0,1,.2,1" transform="translate(-41.41 -33.03)"/><path class="cls-1" d="M115.09,63.57c.2,0,.46.33.59.66.06.13-.26.32-.39.52a8.31,8.31,0,0,1-.2-1.18" transform="translate(-41.41 -33.03)"/><path class="cls-1" d="M114.9,60.45a2.07,2.07,0,0,1-.2,1.11l-.85-.85a2.28,2.28,0,0,1,1.05-.26" transform="translate(-41.41 -33.03)"/><path class="cls-1" d="M108.06,70.22a4.4,4.4,0,0,1,1,0,2.65,2.65,0,0,1-.06.46,1.38,1.38,0,0,1-.91-.46" transform="translate(-41.41 -33.03)"/><path class="cls-1" d="M91,173.67c-.65-.39-1.24-.78-1.82-1.11a13,13,0,0,1,2.28-.06,2.92,2.92,0,0,1-.46,1.17" transform="translate(-41.41 -33.03)"/><path class="cls-1" d="M57.11,156.54a5.63,5.63,0,0,1-1.23-.85c.13-.13.45-.33.45-.26a7.61,7.61,0,0,1,.78,1.11" transform="translate(-41.41 -33.03)"/><path class="cls-1" d="M87.21,173.67a5.27,5.27,0,0,1-.65-1.17c.33-.07.59-.07.85-.13a3,3,0,0,1-.2,1.3" transform="translate(-41.41 -33.03)"/><path class="cls-1" d="M92.29,170.41c0,.2-.32.46-.71.59-.07.06-.33-.26-.53-.39a10,10,0,0,1,1.24-.2" transform="translate(-41.41 -33.03)"/><path class="cls-1" d="M105.13,169.76a1.36,1.36,0,0,1-.33,1.11,4.2,4.2,0,0,0-.78-.46,4.22,4.22,0,0,1,1.11-.65" transform="translate(-41.41 -33.03)"/><path class="cls-1" d="M104,171.06c-.39-.13-.85-.32-1.24-.45a2.64,2.64,0,0,1,1-.07.82.82,0,0,1,.2.52" transform="translate(-41.41 -33.03)"/><path class="cls-1" d="M105.45,169.76a4.8,4.8,0,0,1,.85-.59,1,1,0,0,1,.13.39,8.17,8.17,0,0,1-1,.2" transform="translate(-41.41 -33.03)"/><path class="cls-1" d="M109,177.58a4.69,4.69,0,0,1-.84.58c-.07-.13-.07-.26-.13-.39a8.75,8.75,0,0,1,1-.19" transform="translate(-41.41 -33.03)"/><path class="cls-1" d="M129.23,161.94c.19,0,.19.33.19.46s-.32.19-.52.19c-.06-.26.07-.45.33-.65" transform="translate(-41.41 -33.03)"/><path class="cls-1" d="M129.88,161.29c.2,0,.2.33.2.46s-.33.19-.53.19c-.06-.26.07-.45.33-.65" transform="translate(-41.41 -33.03)"/><path class="cls-1" d="M130.53,160.64c.2,0,.2.33.2.46s-.33.19-.52.19c-.07-.26.06-.46.32-.65" transform="translate(-41.41 -33.03)"/><path class="cls-1" d="M59.07,169.56c0,.2-.33.2-.52.2-.07-.26.06-.46.32-.65.2,0,.2.32.2.45" transform="translate(-41.41 -33.03)"/><path class="cls-1" d="M207.4,96.28a1.32,1.32,0,0,1-.85.45,4.51,4.51,0,0,0-.13-.45,4.5,4.5,0,0,1,1,0" transform="translate(-41.41 -33.03)"/><path class="cls-1" d="M205.12,92.89a4.8,4.8,0,0,1,.85-.59,1,1,0,0,1,.13.39,8.17,8.17,0,0,1-1,.2" transform="translate(-41.41 -33.03)"/><path class="cls-1" d="M153.33,49.89a4.23,4.23,0,0,1-.84.59c-.07-.13-.07-.26-.14-.39a9.11,9.11,0,0,1,1-.2" transform="translate(-41.41 -33.03)"/><path class="cls-1" d="M122.26,173.8c0-.13.32-.13.45-.13.07.19-.06.39-.32.65-.13,0-.13-.33-.13-.52" transform="translate(-41.41 -33.03)"/><path class="cls-1" d="M66,121a4,4,0,0,1,.32,1.3,4.42,4.42,0,0,1-1.49-.58c-.33-.33-.2-1-.33-1.5.46.2.91.46,1.5.78" transform="translate(-41.41 -33.03)"/><path class="cls-1" d="M149.62,208.32a4.9,4.9,0,0,1,.59,1.7c-.07.45-.66.91-1,1.37a12.49,12.49,0,0,0,.32-1.57,9.8,9.8,0,0,0,.07-1.5" transform="translate(-41.41 -33.03)"/><path class="cls-1" d="M144.41,193.86c.78.07,1.3.13,1.82.2-.78.06-1.56.13-2.34.26-.07,0-.07-.2-.07-.26s.13-.13.59-.2" transform="translate(-41.41 -33.03)"/><path class="cls-1" d="M151.57,208.85a9.7,9.7,0,0,1-.26,1.82l-.19-2.35a.7.7,0,0,1,.19-.06c.07.06.13.2.26.59" transform="translate(-41.41 -33.03)"/><path class="cls-1" d="M124.86,94.32c.2.85.46,1.89.59,2.87.07.26-.13.59-.26.85-.07-.33-.33-.66-.33-1-.06-.85,0-1.7,0-2.74" transform="translate(-41.41 -33.03)"/><path class="cls-1" d="M117.5,81.16c.2.07.2.2.2.33-.2.72-.33,1.43-.46,2.15-.06-.72-.13-1.43-.19-2.35,0-.13.32-.13.45-.13" transform="translate(-41.41 -33.03)"/><path class="cls-1" d="M92.75,175.43a2.56,2.56,0,0,1-1.11.19l-2-.39c.71-.06,1.43-.26,2.08-.26a1.29,1.29,0,0,1,1,.46" transform="translate(-41.41 -33.03)"/><path class="cls-1" d="M181.54,138.62a5.69,5.69,0,0,1,.65-.65,8.68,8.68,0,0,1,1.82.26c-.71.33-1.43.59-2.34.91-.13,0-.13-.32-.13-.52" transform="translate(-41.41 -33.03)"/><path class="cls-1" d="M123.37,173c.19,0,.19.32.19.45s-.32.2-.52.2-.13-.33-.13-.52.33-.13.46-.13" transform="translate(-41.41 -33.03)"/><path class="cls-1" d="M108.06,74.45c-.13-.58-.33-1.1-.13-1.43a23.92,23.92,0,0,1,1.95-2.61c.07-.06.39,0,.65,0a10.71,10.71,0,0,1-.78,2.61,3.38,3.38,0,0,1-1.69,1.43" transform="translate(-41.41 -33.03)"/><path class="cls-1" d="M105.78,75.11c.58,0,1.17,0,1.43.26s-.13.78-.2,1.17l-1.56-.78a.43.43,0,0,1-.06-.26l.39-.39" transform="translate(-41.41 -33.03)"/><path class="cls-1" d="M74.7,171.71a1.79,1.79,0,0,0-.78,1.11,7.12,7.12,0,0,1-.52-1l1.56-.78c.07,0,.26.13.26.2a.72.72,0,0,1-.52.45" transform="translate(-41.41 -33.03)"/><path class="cls-1" d="M143.89,47.29c-1-4.11-.2-5.41,3.58-6.06a1.45,1.45,0,0,0-.2.78l.39-.58c0,.91.33,2.08-.13,2.67a17.83,17.83,0,0,1-3.64,3.19" transform="translate(-41.41 -33.03)"/><path class="cls-1" d="M91.64,172.37a7,7,0,0,1,2.54-.27c.39.14.46,1.24.65,1.89a14.34,14.34,0,0,1-2.41.26,1.86,1.86,0,0,1-1.3-.45c.91-.39,1.69-.65,2.47-1-.65-.13-1.3-.32-2-.45" transform="translate(-41.41 -33.03)"/><path class="cls-1" d="M106.62,64.65c.79,1.89.79,1.89-1,1.95-.32,0-.58.26-.91.26h-3.26a20.72,20.72,0,0,1,2.22-3.9c.19-.2,2,.84,2.8,1.49a1.46,1.46,0,0,0-.2.79l.39-.59" transform="translate(-41.41 -33.03)"/><path class="cls-1" d="M204.8,92.74a3.24,3.24,0,0,1,.65,1.76,4.72,4.72,0,0,1-.65.84.71.71,0,0,0-.2.59,2.12,2.12,0,0,1,.52-.59h.52c-.45.72-.91,1.5-1.37,2.22-.45-.65-1.17-1.31-1.17-2,0-1.1-.84-3,1.7-2.86" transform="translate(-41.41 -33.03)"/><path class="cls-1" d="M189.36,226.79a6.12,6.12,0,0,1-2.48-.33,1.15,1.15,0,0,0,.2-.71c-.13.19-.2.39-.33.58-2.15-3.26-4.36-6.38-6.25-9.7s-3.26-6.58-4.82-9.84c-.52-1.11-1.05-2.28-1.57-3.32a3.7,3.7,0,0,0-1-1.24,3,3,0,0,1-1-3.32,1.36,1.36,0,0,0-.39-1.24c-1.56-1-2.08-2.22-1-4,.06-.06-.66-.52-.85-.84a29,29,0,0,1-2.54-4.17,3.94,3.94,0,0,0,.19-1.37c-.13.39-.19.78-.32,1.24-2-3.06-5.08-5.15-5.6-9.51-.4-3-3.59-5.6-5.35-8.6a1.22,1.22,0,0,0-.13-.78c-1.23-2.41-2.47-4.76-3.58-7.17-1.63-3.45-4.62-6.38-4.23-10.68.13-1.57,1-2.28,2.08-1.63,1.69,1,3.84,1.63,3.84,4.49.07,1.76,1.11,3.52,1.89,5.15,1.89,3.84,3.78,7.62,5.8,11.4,1.11,1.95,2.54,3.71,3.65,5.67.91,1.63,1.43,3.52,2.28,5.14s1.69,2.81,2.41,4.37a1.73,1.73,0,0,0,.19,1c0,.19,0,.52-.19.52a5.34,5.34,0,0,0-1.11.71c-.06.07.13.33.2.52a7.22,7.22,0,0,1,1.24-1.23h.52c.84-.2-1.57,2.21.71.91a2.42,2.42,0,0,1,.65.85c.66,1.75,1.7,3.58,1.76,5.4.2,3.39,2.09,5.54,4.24,7.76a19.72,19.72,0,0,1,2.28,3.58,21.3,21.3,0,0,1,1.89,4.1,1.45,1.45,0,0,0-.2.78l.39-.58c1.7,3.58,3.52,7.16,5.15,10.88a30.26,30.26,0,0,1,1.37,5.21m-18.24-30a1.47,1.47,0,0,1,.39.26c-.07-.19-.07-.39-.39-.26" transform="translate(-41.41 -33.03)"/></g></svg>