<svg id="Layer_1" data-name="Layer 1" xmlns="http://www.w3.org/2000/svg" viewBox="0 0 254.37 178.2"><defs><style>.cls-1{fill:#ffd100;}</style></defs><g id="Muoto_1" data-name="Muoto 1"><path class="cls-1" d="M118.89,205.56c-2,3.88-4.63,6.87-9.1,7.37a2.13,2.13,0,0,0-1.49,1.41c-1,3.49-4.26,3.71-6.55,5.12-2.56,1.58-5.7,2.19-8.62,2.87-2.35.56-4.8.73-7-1C84.45,220,82,220.92,80,224a8.82,8.82,0,0,1-5.43,3.94c-1.92.62-3.73,1.69-5.65,2.53-.31.11-1,.17-1.11-.05-.75-.74-1.28-1.75-2,0a1,1,0,0,1-.85.45c-3.25-.45-6.76,0-9.31-2.93-1.18-1.35-2.72-2.31-3.78-3.66-5.49-6.86-5.54-15.3-1.28-23.46,2.29-4.5,5.06-7.37,10-7.65,2.13-.11,4.26-.45,6.44-.51,1.91,0,2.71-.67,2.93-2.87.32-2.76.32-5.68,3.62-7.14,1.54-.74,2.61-2.82,3.78-4.39a6.42,6.42,0,0,1,4.2-2.82c2.29-.39,3-3.26,1.65-5.68s-2.34-5.68-4.36-6.86c-5.11-2.93-5.65-9.4-10-12.89-1.33-1.07-1.76-3.32-2.71-4.95-1.81-2.93-3.68-5.91-5.65-8.72s-4.52-5.63-6.49-8.67c-1.71-2.64-2.82-5.62-4.37-8.38-2-3.38-4.15-6.58-6.12-10-.85-1.46-1.49-3.09-2.29-4.61-3.41-6.47-6.92-12.94-10.33-19.41-2.23-4.17-4.1-8.61-6.71-12.5-1.86-2.87-1.7-5.9-2.23-8.89-.69-4.05,2.82-6.52,5.69-7.48,5.12-1.74,9.75.51,14.49,2,6,1.86,11,5.85,15,10.47,3.24,3.82,6.92,7,10.48,10.41,4.9,4.72,9.27,10.18,13.69,15.47,1.11,1.4,1.54,3.43,2.5,5.06.32.56,1.17.73,1.81,1.13-.11-.68-.11-1.3-.27-1.92-1.22-5.28-2.82-10.46-3.62-15.81a16,16,0,0,1,2.34-10.8c1.66-2.76,3-5.29,5.86-7.15,4.53-3,8.89-2.81,13.42-.73a32.52,32.52,0,0,1,12.88,11.2,3.22,3.22,0,0,0,.69.84c2.77,1.86,4.1,4.62,5.43,7.77,2.19,5.29,5.43,10,8.1,15,1.11,2.08,1.91,4.22,2.82,6.36,1.33,3.26,2.82,6.47,3.94,9.85.74,2.19.8,4.67,1.43,7a11.61,11.61,0,0,0,2,3.27.94.94,0,0,0,.59.17,2,2,0,0,0-.48-.29c-.32-1.91-.58-3.82-.9-5.73-.06-.34-.16-.68-.22-1a2.87,2.87,0,0,1,1.12.68c1.33,1.91,2.4,4.39,1.49,6.52-1.12,2.42.16,4.34.11,6.53q-.16,8.28-.16,16.54a15,15,0,0,1-1.92,7.21c-.58,1.18-.48,2.81-.53,4.22,0,.33.64.95,1,1,2.24.28,4.69,1.07,6.76.45,5.11-1.41,10.12-3.55,15.18-5.29,6.49-2.19,10.75-8.27,17-10.75,2.08-.84,4.05-2,6-3a69.7,69.7,0,0,0,6.39-3.38c4.26-2.7,8.19-6.07,13.36-6.8.27-.06.48-.51.9-.9.22-.34.27-.51.38-.68,3.35-2,6.81-4,10.64-4.73,2.19-.39,4.42,0,6.23-2a18.35,18.35,0,0,1,4.8-3.94A101.9,101.9,0,0,1,240.06,115a88,88,0,0,1,12.3-4c3.84-1,7.72-2.42,11.66-1,1.44.56,3.89,1,3.41,3.94-.32,2.19-2.66,5.06-4.47,5.57a69.75,69.75,0,0,0-9.21,3c-4.16,1.8-8.15,4.1-12.3,6-4.74,2.08-9.58,4.05-14.48,5.8-1.12.39-2.61-.45-3.89-.68-.27,0-.8.23-.8.34.16,2.53.16,2.48-2.45,2.53-.21,0-.37.68-.69.9a1.15,1.15,0,0,0-.64-.17l.48.34c-2.66,3.26-6.65,3.94-10,5.8-3.94,2.13-7.88,4.27-11.87,6.3-3.25,1.69-6.65,3-9.8,4.84-5.11,3-10,6.64-15.12,9.62-4.84,2.81-9.84,5.23-14.85,7.71a7,7,0,0,1-2.18.39,8.14,8.14,0,0,1,1.22-1.91,44.52,44.52,0,0,1,15.12-8.95c2.77-1,5.06-3.49,7.56-5.29.38-.28.69-.73,1.12-.84a24.28,24.28,0,0,0,7.67-5c2.77-2.42,6.49-3.66,9.79-5.34,2.66-1.41,5.22-3.55,8-4,4.84-.84,7.82-4.67,11.71-6.92a9.31,9.31,0,0,1,2-.9c.91-.34,1.87-.62,2.77-.9-1-.84-2-1.69-3-2.48a1.06,1.06,0,0,0-1,0c-2.93,2-7.14,1.8-8.84,5.91a2.4,2.4,0,0,1-2,1.3c-3.78.22-7.14.84-9.8,4.33-1.17,1.57-3.51,2.19-5.38,3-2.82,1.23-5.69,2.25-8.46,3.48a1.61,1.61,0,0,0-.53,1.52,6.34,6.34,0,0,0,1.27,1.58,16.32,16.32,0,0,1-2.71.34c-3.84-.4-7.19.45-9.43,4.05a3.83,3.83,0,0,0-.58,1.46c-.11,1.75-1,2.08-2.61,2.31-4.79.67-9.42,2-12,7.14a27.11,27.11,0,0,1-2.77,4.51,2,2,0,0,1-2.07,0c-1.65-2-3.41-2-5.59-1.13-1.12.45-2.61,1.24-3.41-.9-.21-.45-1.54-.56-2.34-.68s-1.33-.22-.85,1.3c1.65,5,3.24,5.91,8.19,4.67,2.4-.56,5-.11,7.4-.4,3.09-.33,6.07-1,9.16-1.4,2.34-.34,4.74-.62,7.14-.79a97.75,97.75,0,0,1,12.77-.51c8,.45,16.13.68,24,2.42,7,1.52,13.79,4.56,20.28,7.77,5.12,2.53,9.59,6.3,14.43,9.51,2.08,1.35,4.31,2.53,6.44,3.88,2,1.24,3.78,2.64,2.29,5.63a3.78,3.78,0,0,0,0,2.19c.32,1.69-.75,2.14-1.81,2.25-5.48.62-11,1.3-16.45,1.69a89.56,89.56,0,0,1-27.58-2.76c-5.11-1.29-10.38-2.08-15.49-3.49-5.48-1.46-10.86-3.54-16.35-5.12-4.79-1.46-9.74-2.47-14.58-3.82-7.4-2.08-14.8-4.28-22.52-4.5-.43,0-1,0-1.23-.23-1.86-2.59-4.68-2.7-7.34-3.15a1.59,1.59,0,0,1-.7-.28,3.18,3.18,0,0,1,.7-.23,22.76,22.76,0,0,1,4.73-.11c6.07.68,12.14,1.24,18,2.42,5,1,9.69,3,14.54,4.33,5.43,1.47,10.91,2.59,16.34,4.05,2.82.79,5.54,2.25,8.41,2.93,5.06,1.24,10.17,2.19,15.23,3.26,1.76.34,3.46.85,5.16,1.07,4.37.68,8.68,1.35,13.05,1.8,3.67.34,7.34.4,11,.4,3,0,6-.34,8.89-.45,1.75-.12,3.46,0,5.16-.06.21,0,.64-.22.59-.34-.06-1.24.1-2.64-.43-3.65a7.11,7.11,0,0,0-2.71-2.42c-6.23-4.06-12.41-8.22-18.8-11.93-4.52-2.59-9.47-4.28-14.37-6.08-6.44-2.36-13.1-2.42-19.59-3.43-7.14-1.07-14.54-.06-21.83.11-2.4.11-4.79.45-7.19.79-4.31.51-8.57,1.18-12.88,1.63-3,.28-6,.28-9,.45a26.33,26.33,0,0,0-4.16.17c-4.31.84-8.62,2-13,2.7a11.86,11.86,0,0,1-4.41-.45c-.32-.06-.59-.62-.86-1,.38-.17.75-.56,1.12-.56,3.41.39,6.23-1.86,9.42-2.42,2.93-.5,5.91-.79,8.84-1.18a3.38,3.38,0,0,0,.75-.17c-.11-.11-.22-.34-.27-.34-2.87.06-3.14-2.75-3.78-4.44a7,7,0,0,0-4.68-4.5,23.61,23.61,0,0,0-7.72-.51c-1.44.11-2.77,1.46-4.16,2.25-.21.17-.42.4-.63.4-.7,0-1.34-.12-2-.17.32-.57.59-1.19,1-1.75.21-.28.59-.5.85-.79-.42,0-1-.16-1.22.06-1.33,1.46-2.61,2.93-3.89,4.45-.11.11-.11.33-.21.45l-2.24,1.68c0-1.07-.48-2.47,0-3.15a23.91,23.91,0,0,1,5.11-5.85c1.28-1,3.36-.9,5.11-1.07,1.55-.17,3.09.11,4.64-.05,3-.29,6.07-.68,9.1-1.19.37-.05.64-1,.85-1.51a41.34,41.34,0,0,0,3.09-20,87.66,87.66,0,0,0-2.66-12.55c-1-3.71-2.13-7.31-3.41-10.91a110.41,110.41,0,0,0-12.94-25.55c-2.23-3.32-3.94-7.09-6.23-10.35-1.7-2.48-3.46-5.12-6.44-6.13.11-.34.11-.51.16-.68-.1.17-.21.34-.32.56-3.83-.56-6.71-3.32-10-5.12-1.43-.73-3.94-1.18-5-.33-2.19,1.52-4.58,3.71-5.38,6.19-1.86,5.9-2.61,12-.43,18.28.85,2.37,1.76,5.57,1,7.65-1.12,2.65-.64,4.06.69,6.08a109.65,109.65,0,0,1,5.86,10.35c1.81,3.72,2.77,7.94,5,11.31s1,8.27,4.47,10.92a1.25,1.25,0,0,1,.22.79c.37,5.06.32,10.18,1.17,15.13,1,5.8.1,11.87,2.87,17.39,1.23,2.42-.1,4.22-2.23,3.71a2.14,2.14,0,0,1-1.23-1.35c-.8-5.91-1.44-11.76-2.18-17.67s-.85-12.15-2.45-17.89c-1.7-6.24-4.79-12.1-7.35-18.12a64.82,64.82,0,0,0-9.53-15.81c-1.86-2.3-3-5.29-4.79-7.7a68.94,68.94,0,0,0-6.17-7.15c-7.51-7.82-15-15.76-22.74-23.41-4.15-4.1-9.63-5.62-15.12-6.81-2.45-.5-5-1.18-7,.68-.86.73-1,2.31-1.55,3.54-1.6,4,2.24,6.25,2.66,9.57.59,3.94,4.05,6,5.33,9.45A37.65,37.65,0,0,0,36.37,88c1.28,2.25,2.66,4.45,4,6.7,2.07,3.49,4.2,6.92,6.06,10.52,2.61,4.9,4.64,10,8.52,14.07,1.55,1.57,2.08,4.16,3.36,6.07,2.77,4.28,5.75,8.39,8.62,12.55,4.58,6.7,9.8,13,13.52,20.26,3.57,6.8,9.37,12.26,10.92,20.25a9.27,9.27,0,0,1-.21,2.65c-.54-.45-1.12-.85-1.71-1.3a.89.89,0,0,1-.16-.22c-.9-1.3-1.75-2.59-2.66-3.83A36.76,36.76,0,0,0,83,178.55a60.13,60.13,0,0,0-4.48,5.35c-.74,1-1.65,2.08.64,2.59,1.6.34,2.08,3.21,1.07,4.56-1.55,2.08-1.23,4.67-.32,6.92a10.24,10.24,0,0,1,.48,6.19c-.59,2.42-.37,4.67,1.65,6a3.21,3.21,0,0,0,1.06.34c0-.4-.21-.73-.26-1.13-.22-2.3-.48-4.61-.64-6.86a1.35,1.35,0,0,1,.8-.85c1.11.29,2.18.68,3.24,1a16.45,16.45,0,0,0,.43-3.89c-.37-2.08-.21-3.88,1.38-5.45,1.6,2.75.27,5.79.32,8.77a6.41,6.41,0,0,1-.37,2.65c-.21.5-1,.84-1.22,1.41-.43.61-1,1.63-.75,2.13a4,4,0,0,0,2,2.25c1.6.45,3.62-.56,4.58,1.75,0,.11.37,0,.53.05,0-.22.06-.5,0-.61a9.65,9.65,0,0,0-1.86-2.48c-1.34-1-1.71-1.74-1.12-3.6.64-2,.42-4.33.64-6.47a9.71,9.71,0,0,1,.32-1.41c.42.45,1.17.85,1.22,1.35.16,1.63.53,3.49,0,4.95-.85,2.42.53,3.27,2.08,4.45a13.9,13.9,0,0,0,1.17,1c.42.9.74,2.59,1.22,2.65,1.39.16,3.52-3.32,2.82-4.73-.85-1.74-2.34-3.15-3.51-4.73-.43-.56-1.17-1.46-1-1.8a17.21,17.21,0,0,1,2-2.53,3,3,0,0,1,.22,1.52c-.69,1.86-.16,2.53,1.81,2.31.64.95,1.06,2,1.65,3,.26.39.8.62,1.17,1,.16-.57.53-1.13.43-1.64-.27-2.75,2.82-6.52,5.21-6.13.43.06.8.68,1.23,1.07a7.11,7.11,0,0,1-1.49.28c-.48,0-1-.39-1.44-.34-.32.06-.53.62-.8,1,.27.06.64,0,.85.17,1.17.84,2.29,1.69,3.41,2.59.48.39.85.9,1.33,1.35-1.06.67-2.08,1.52-3.19.05-.22-.33-.8-.33-1.23-.45a12.26,12.26,0,0,0-.1,1.35c0,1.07-.06,2.14,0,3.21a9.63,9.63,0,0,0,.37.9,6.78,6.78,0,0,1,.69-.56c1.76-1.41,3.51-2.81,5.32-4.22.54-.45,1.23-.68,1.65-1.24,3-3.88,7.25-4.84,11.5-5.79,1-.23,2-.4,3-.62.47-.12,1-.4,1.43-.57a4.08,4.08,0,0,0-1.33-1.07c-1.22-.45-2.55-1.23-3.78-1.06-4,.45-7.19-2.14-10.75-3.16s-7-2.53-10.54-3.6c-.64-.17-1.55.85-2.35,1.47a21.1,21.1,0,0,1-2.44-.45c-1.18-.23-2.4-.4-3.63-.62a7.42,7.42,0,0,1-1.27-.62,3.57,3.57,0,0,1,1-.4c2.34-.73,4.68-1.8,7.13-2.08,1.7-.22,3.57.73,5.32.85,2.24.11,4.64.5,6.6-.23a18.15,18.15,0,0,1,14.43.45c1.12.51,2.56.23,3.78.45.59.11,1.07.68,1.6,1.07a6.18,6.18,0,0,0-1.07,1c-3.19,0-5.9-2.87-9.42-1.68a1.15,1.15,0,0,0-.64-.17l.48.33c1.12.34,2.29.68,3.41,1.13a7.59,7.59,0,0,1,1.28.73c-.43.11-.85.4-1.23.34-3-.62-5.85-1.35-8.84-2a10.43,10.43,0,0,0-2.6.11,12.32,12.32,0,0,0,2,1.86c3.51,2,7.45,2.25,11.34,2.92,3.67.62,7.24,2.14,10.91,2.65,5.16.67,9.37,4.05,14.16,5.29,7.35,1.91,14.32,6.19,22.31,4.89,3.25-.5,6.71-.17,9.69-2.47,1-.85,2.61-2.2,3.72.39.16.34,1.92-.17,2.93-.22a4.42,4.42,0,0,1,.91.05c-.11.34-.11.85-.32,1-1.6.67-3.25,1.29-4.9,1.86a44.89,44.89,0,0,1-4.63,1.68c-8.73,2.48-17.14,1-25.45-2.36-6.44-2.59-13-4.84-19.48-7.2-4.37-1.58-5.6-1.13-8.42,2.7-.26.28-1.17.56-1.38.34-.91-.79-.69-.62-1.76.11-1.49,1-3.3,1.52-4.84,2.48-1,.56-1.87,1.51-2.88,2.13a1.15,1.15,0,0,0-.64-.17l.48.34m28-39.87h.15a1.26,1.26,0,0,1-.48-.56,1.32,1.32,0,0,0-.48-.06,1.14,1.14,0,0,1,.48.62m-43.92,47.75a1.49,1.49,0,0,1-.06.51,1.14,1.14,0,0,1,.59-.51,1.91,1.91,0,0,1,0-.56,1.53,1.53,0,0,1-.58.56m-.72-5.51h.93c-.16,1.18-.32,1.06-.48,1.06h-.48c.16-.28.32-.16.48.23m4.55,4h.72a1.2,1.2,0,0,1-.48-.56,1.57,1.57,0,0,0-.48-.05,1.14,1.14,0,0,1,.48.61m123.25-92.67a3.5,3.5,0,0,1-1.07.62,1.77,1.77,0,0,1-.05.51,1.44,1.44,0,0,1,.59-.56,3.87,3.87,0,0,1,1.06-.51,2,2,0,0,1,0-.56,1.06,1.06,0,0,1-.58.5m22.36-7.66c-.37-.22-.75-.39-1.07-.56,0,.17,0,.56.06.56h1.54a2,2,0,0,1,.05-.56,1.4,1.4,0,0,1-.58.56M104.25,208.94c.11-.68.22-1.3.32-1.91l-1.28.67a2.14,2.14,0,0,1,.43,1.24,1.67,1.67,0,0,1,0,.5,1.14,1.14,0,0,1,.58-.5M66.45,196c-2.29.28-4.52.62-6.76,1-.32.06-.53.73-.74,1.13a6.58,6.58,0,0,0,1.43.28,6.72,6.72,0,0,0,1.49-.51,9.49,9.49,0,0,0-.42,1.69c-.27,1.69-.27,3.43-.64,5.12-.64,2.87,1.6,2.42,2.93,3.09.26.17.32.79.58,1.07A19.19,19.19,0,0,0,66,210a9,9,0,0,0,0-2.08c-.37-1.69-1.17-3.21.8-4.56A3,3,0,0,0,67.2,201c-2.13-1.58-.53-3.32-.21-4.95a7,7,0,0,1,.69-.17,1,1,0,0,1-.11-.4,11.17,11.17,0,0,1-1.12.57m.27,29c-.43-.5-.75-1.18-1.28-1.4-1.06-.4-2.71-.11-3.3-.85-1.12-1.46-1.33,0-1.22.4.32.79.95,1.85,1.59,2,1.33.28,2.82.12,4.21.4,1.33,1.07,2.45.84,3.19-.79.38-.84.7-1.74,1.07-2.59.53-1.35,1.12-2.7,1.7-4,1,.68,2,1.35,3,2,.16.11.38.05.48.16,1.28,1.47,2.66,1.41,4.15.4-.85-.9-1.81-1.8-2.66-2.82-1.33-1.57-3-3-3.88-4.83a51,51,0,0,1-2.56-7.6,6.9,6.9,0,0,1,0-1.52,7.83,7.83,0,0,0,1.12.39c1.17.4,2.34.85,3.51,1.19.27.11.64-.12,1-.17-.27-.28-.43-.73-.75-.9-1.12-.62-2.29-1.13-3.35-1.75-.53-.28-1.28-.95-1.55-.84-.69.51-1.65,1.35-1.59,2a18.28,18.28,0,0,0,1,5.68c1.33,3.26,1.81,6.25-.53,9.34-.8,1-.8,2.76-1.12,4.22-.21,1.3-.48,2.48-2.13,1.91M237.88,124c-1-.4-2.71-1.35-2.87-1.07-1.44,2-3.09,2.7-5.38,1.85,0,0-.11.17-.16.23-1.86,1.35-3.73,2.7-5.48,4.16-.32.28-.16,1.18-.22,1.8a5,5,0,0,0,1.6,0c2.13-.78,4.1-1.74,6.23-2.47,2.87-1,5.91-1.58,8.78-2.76,2.13-.84,4-2.42,6.07-3.43,3-1.46,6-2.7,9.05-3.94,1.33-.51,2.72-.73,4.1-1.18,1.65-.51,3.84-.4,4.37-2.81.32-1.3,0-2.59-1.44-2.14a34.38,34.38,0,0,0-7.29,3c-1.81,1.06-3.3,3-5.7,1.4-.16-.11-.58.23-.85.4-2.82,1.85-6.66,1.18-9.05,4,0,.11-.32,0-.53,0-1.28.06-2,.34-.48,1.52.16.06-.11.85-.75,1.3m-164,69.77c.1.22.32.62.26.67-2.13,1.86.11,3.66.06,5.52,0,.56.85,1.12,1.27,1.63.11-.62.16-1.3.27-1.92.48-3.15,1-6.24,1.33-9.34.05-.45-.53-.95-.85-1.4a5.28,5.28,0,0,1-.48,1,19,19,0,0,0-1.33,1.64,4,4,0,0,0-.53,2.25M53.38,216c1.22,1.07.74,3.77,3.24,3.66.32-.06.64.17,1,.28-.21-.28-.37-.73-.63-.84-1.71-.68-2-2.14-2-3.77v-2.82a3.23,3.23,0,0,0-.42-.62A37.7,37.7,0,0,0,53.38,216m97.72-51.48a14.8,14.8,0,0,0-2.29.17c-.42.17-.8.73-1.17,1.07a6.89,6.89,0,0,0,1.33.39c1,.23,2,.39,3,.62a7,7,0,0,1,1,.28,4.1,4.1,0,0,0-.26-.9,14.59,14.59,0,0,0-1.55-1.63m-92.37,43c.16.17.38.34.54.51.26-1.75.58-3.55.79-5.29,0-.11-.48-.28-.74-.39.37,1.63-2.45,2.75-.59,5.17m3.46,5.35c.86-2.2.16-3.6-1.7-3.38-.16,0-.53.34-.48.45a29.32,29.32,0,0,0,.91,3.15c0,.11.63,0,1.27-.22m20,2a10.16,10.16,0,0,0-1-.73c.16.9.27,1.85.48,2.75,0,.23.48.34.74.51a9.13,9.13,0,0,0-.26-2.53m-3.73-4.5a16.07,16.07,0,0,0-1.6-.57c.16.57.38,1.13.54,1.69a2.26,2.26,0,0,0,1.06-1.12m21.83,4.5c-.48-.28-1-.51-1.44-.73.11.61.27,1.23.43,1.91a12.61,12.61,0,0,1,1-1.18m37-50.92c.43,0,.8.11,1.22.11a2.74,2.74,0,0,0,.64,0c-.16-.23-.37-.68-.48-.68-.63.12-1.27.34-1.38.57m-21.83,43.32c-.64.34-1.22.62-1.86,1,0,0,.05.34.11.51.63-.39,1.22-.73,1.81-1.07.1-.06.16-.11-.06-.45M105.32,69.4c.05-.11.16-.17.16-.23s0-.17,0-.17a15.69,15.69,0,0,0-1.6-.33c-.11,0-.21.33-.32.56.43.06.8.11,1.76.17M70.45,198c-.48.11-1,.28-1.44.39a1.12,1.12,0,0,0,.1.39,8.58,8.58,0,0,0,1.34-.78M93.07,218.5c-.37-.22-.74-.39-1.06-.56a1,1,0,0,0-.11.39,1.86,1.86,0,0,0,1.17.17m41.94-56,.91.17v-1c-.32.06-.59.11-.91.79M75.24,223.29c-.06-.28-.11-.51-.16-.79-.11.17-.38.39-.38.45.16.34.38.62.54.34m23.42-157a5.06,5.06,0,0,0-.85-.22,2,2,0,0,1-.11.34,1.25,1.25,0,0,0,1-.12m.53.57.86.17a2.32,2.32,0,0,1,.1-.34,1.08,1.08,0,0,0-1,.17M96.8,213.44a2.75,2.75,0,0,0,.21-.39c-.16,0-.32,0-.21.39m-32.21-.28a1.28,1.28,0,0,0-.32-.23c0,.12,0,.34.32.23m9-24.76a1,1,0,0,0-.32-.22c0,.11.05.33.32.22m12.51-14.35c-.05.12-.16.17-.21.34.16-.06.32-.06.21-.34M154,163.64a1.22,1.22,0,0,0-.32-.22c0,.17,0,.28.32.22m-19.43-1.4a1.44,1.44,0,0,0-.21.34c.16-.06.31-.06.21-.34m86.51-26.17.32.17c0-.17-.05-.28-.32-.17" transform="translate(-14.54 -52.63)"/><path class="cls-1" d="M14.54,52.63c.11.06.16.23.11.45-.11,0-.11-.28-.11-.45" transform="translate(-14.54 -52.63)"/><path class="cls-1" d="M223.24,135.23a1.34,1.34,0,0,1,1.07.28,1.54,1.54,0,0,1-1.07-.28" transform="translate(-14.54 -52.63)"/><path class="cls-1" d="M56.6,114a7.48,7.48,0,0,1,.54,1.41A7.48,7.48,0,0,1,56.6,114" transform="translate(-14.54 -52.63)"/><path class="cls-1" d="M38.5,63.77c.16.17.11.34,0,.56-.1-.22-.16-.39,0-.56" transform="translate(-14.54 -52.63)"/><path class="cls-1" d="M99.19,84.59a.45.45,0,0,1,0-.56.44.44,0,0,1,0,.56" transform="translate(-14.54 -52.63)"/><path class="cls-1" d="M134.33,189.08c-.16,0-.32-.06-.48-.17a.57.57,0,0,1,.48.17" transform="translate(-14.54 -52.63)"/><path class="cls-1" d="M101.22,201.46c-.16,0-.22-.23-.22-.34a.32.32,0,0,1,.22.34" transform="translate(-14.54 -52.63)"/><path class="cls-1" d="M99.35,202.19a.76.76,0,0,1,.16-.57,2.79,2.79,0,0,1-.16.57" transform="translate(-14.54 -52.63)"/><path class="cls-1" d="M101.32,189.36c.16-.06.32,0,.48.17a.57.57,0,0,1-.48-.17" transform="translate(-14.54 -52.63)"/><path class="cls-1" d="M132.89,189.92c.11,0,.16.23.16.34a.26.26,0,0,1-.16-.34" transform="translate(-14.54 -52.63)"/><path class="cls-1" d="M67.14,230.71c-.15,0-.21-.22-.21-.33a.31.31,0,0,1,.21.33" transform="translate(-14.54 -52.63)"/><path class="cls-1" d="M107.61,191.05c-.06.16-.22.16-.38.22.06-.17.16-.22.38-.22" transform="translate(-14.54 -52.63)"/><path class="cls-1" d="M88,193c-.16,0-.32-.06-.47-.17A.56.56,0,0,1,88,193" transform="translate(-14.54 -52.63)"/><path class="cls-1" d="M231.92,195c.11,0,.16.23.16.34-.11,0-.21-.11-.16-.34" transform="translate(-14.54 -52.63)"/><path class="cls-1" d="M238.57,197.24c0,.16-.21.16-.37.22a.27.27,0,0,1,.37-.22" transform="translate(-14.54 -52.63)"/><path class="cls-1" d="M89.24,101.86c0-.16.16-.16.32-.22a.36.36,0,0,1-.32.22" transform="translate(-14.54 -52.63)"/><path class="cls-1" d="M113,119.87c-.16.06-.32-.06-.48-.17a.57.57,0,0,1,.48.17" transform="translate(-14.54 -52.63)"/><path class="cls-1" d="M139.55,118.18c-.16-.05-.21-.17-.21-.34a.34.34,0,0,1,.21.34" transform="translate(-14.54 -52.63)"/><path class="cls-1" d="M98.82,115.65A.35.35,0,0,1,99,116a.26.26,0,0,1-.16-.34" transform="translate(-14.54 -52.63)"/><path class="cls-1" d="M97.76,115.65a.36.36,0,0,1,.16.34.25.25,0,0,1-.16-.34" transform="translate(-14.54 -52.63)"/><path class="cls-1" d="M58.36,115a.71.71,0,0,1,.16-.56,2.56,2.56,0,0,1-.16.56" transform="translate(-14.54 -52.63)"/><path class="cls-1" d="M104.15,111.43c0-.17.16-.17.32-.23-.06.17-.16.29-.32.23" transform="translate(-14.54 -52.63)"/><path class="cls-1" d="M97.49,110.87a.31.31,0,0,1-.21-.34.33.33,0,0,1,.21.34" transform="translate(-14.54 -52.63)"/><path class="cls-1" d="M97.06,108.9c.16-.06.32,0,.48.17a.57.57,0,0,1-.48-.17" transform="translate(-14.54 -52.63)"/><path class="cls-1" d="M95.89,103.16c.11,0,.11.28.11.39a.32.32,0,0,1-.11-.39" transform="translate(-14.54 -52.63)"/><path class="cls-1" d="M108.14,124.37a.31.31,0,0,1-.21-.34.34.34,0,0,1,.21.34" transform="translate(-14.54 -52.63)"/><path class="cls-1" d="M120.92,101c-.06.17-.22.17-.38.23.06-.12.16-.29.38-.23" transform="translate(-14.54 -52.63)"/><path class="cls-1" d="M120.65,100.18c0-.17.16-.17.32-.23,0,.17-.16.28-.32.23" transform="translate(-14.54 -52.63)"/><path class="cls-1" d="M101,89.77c.11,0,.16.17.16.39-.11-.11-.21-.17-.16-.39" transform="translate(-14.54 -52.63)"/><path class="cls-1" d="M100.15,86.84a1,1,0,0,1-.21.51,1,1,0,0,1,.21-.51" transform="translate(-14.54 -52.63)"/><path class="cls-1" d="M100.42,86.84a.71.71,0,0,1,.16-.56,2.56,2.56,0,0,1-.16.56" transform="translate(-14.54 -52.63)"/><path class="cls-1" d="M99.35,85.55c0-.17.16-.17.32-.23a.37.37,0,0,1-.32.23" transform="translate(-14.54 -52.63)"/><path class="cls-1" d="M41.16,78.51c.16-.05.32.06.48.17a.57.57,0,0,1-.48-.17" transform="translate(-14.54 -52.63)"/><path class="cls-1" d="M36.91,75.7c.15-.06.31.06.47.17a.54.54,0,0,1-.47-.17" transform="translate(-14.54 -52.63)"/><path class="cls-1" d="M33.18,68.67c-.16,0-.32-.06-.48-.17a.57.57,0,0,1,.48.17" transform="translate(-14.54 -52.63)"/><path class="cls-1" d="M83.65,188.23c-.05.17-.21.17-.37.23,0-.17.16-.23.37-.23" transform="translate(-14.54 -52.63)"/><path class="cls-1" d="M223.13,184.86c0,.17-.21.17-.37.22.05-.17.16-.22.37-.22" transform="translate(-14.54 -52.63)"/><path class="cls-1" d="M81,185.14c-.16,0-.22-.23-.22-.34a.33.33,0,0,1,.22.34" transform="translate(-14.54 -52.63)"/><path class="cls-1" d="M221.8,184.58c0-.17.16-.17.32-.23a.37.37,0,0,1-.32.23" transform="translate(-14.54 -52.63)"/><path class="cls-1" d="M155.79,181.2c0-.17.16-.17.32-.23a.3.3,0,0,1-.32.23" transform="translate(-14.54 -52.63)"/><path class="cls-1" d="M268.92,180.36c-.05.16-.21.16-.37.22a.38.38,0,0,1,.37-.22" transform="translate(-14.54 -52.63)"/><path class="cls-1" d="M208,178.39c0-.17.16-.17.32-.23-.05.17-.16.28-.32.23" transform="translate(-14.54 -52.63)"/><path class="cls-1" d="M97.22,167.41a.35.35,0,0,1,.16.34.26.26,0,0,1-.16-.34" transform="translate(-14.54 -52.63)"/><path class="cls-1" d="M132.73,188.8c.16-.06.32,0,.48.16a.59.59,0,0,1-.48-.16" transform="translate(-14.54 -52.63)"/><path class="cls-1" d="M85.51,151.94c0-.17.16-.17.32-.22a.36.36,0,0,1-.32.22" transform="translate(-14.54 -52.63)"/><path class="cls-1" d="M129.17,151.55a.68.68,0,0,1,.16-.57,5.2,5.2,0,0,1-.16.57" transform="translate(-14.54 -52.63)"/><path class="cls-1" d="M206.2,131.29c.16-.11.38-.22.43-.17a.66.66,0,0,1-.43.17" transform="translate(-14.54 -52.63)"/><path class="cls-1" d="M104.52,129.43c-.16.06-.32-.05-.48-.16a.59.59,0,0,1,.48.16" transform="translate(-14.54 -52.63)"/><path class="cls-1" d="M221.54,124.37a.32.32,0,0,1-.22-.34.33.33,0,0,1,.22.34" transform="translate(-14.54 -52.63)"/><path class="cls-1" d="M36.91,75.42c-2-1.52-3.89-3.26-3.73-6.47.16-.4.37-.68.53-1.13,1.07,2.42,2.13,5,3.2,7.6" transform="translate(-14.54 -52.63)"/><path class="cls-1" d="M56.6,113.68c-2.87-.17-1.91-2.81-2.5-4.5,0-.06.37-.28.59-.4.42,1.64,3,2.42,1.91,4.9" transform="translate(-14.54 -52.63)"/><path class="cls-1" d="M112.5,198.81c1.07.84.38,4.11-.63,4.33a1.64,1.64,0,0,1-.38-.11,20.87,20.87,0,0,1,1-4.22" transform="translate(-14.54 -52.63)"/><path class="cls-1" d="M104.52,129.72c2,1,.69,3,1.06,4.55-.32-.11-.85-.17-.85-.28-.11-1.4-.16-2.75-.21-4.27" transform="translate(-14.54 -52.63)"/><path class="cls-1" d="M36.27,78.23a17.2,17.2,0,0,1-2.56-1.8c.21-.11.53-.34.64-.28a14.18,14.18,0,0,1,1.92,2.08" transform="translate(-14.54 -52.63)"/><path class="cls-1" d="M93.87,97.64c1.44.12.85,1.41,1.07,2.31a2.14,2.14,0,0,1-.48.11c-.22-.73-.38-1.52-.59-2.42" transform="translate(-14.54 -52.63)"/><path class="cls-1" d="M96.53,168.54a13.56,13.56,0,0,1,1.07,1.63l-1.23.51c.06-.68.11-1.35.16-2.14" transform="translate(-14.54 -52.63)"/><path class="cls-1" d="M96.16,103.16a12.27,12.27,0,0,1-.48-2.25,13.3,13.3,0,0,1,1.23,1.29c0,.11-.43.62-.75,1" transform="translate(-14.54 -52.63)"/><path class="cls-1" d="M41.16,78.23A1.75,1.75,0,0,1,40,78c-.21-.22-.21-.73-.32-1.12a10.9,10.9,0,0,1,1.49,1.4" transform="translate(-14.54 -52.63)"/><path class="cls-1" d="M97.06,198.08a3,3,0,0,1-1.06-.51c.27-.33.48-.67.75-1,.1.45.21.9.31,1.52" transform="translate(-14.54 -52.63)"/><path class="cls-1" d="M100.15,117.34a3.28,3.28,0,0,1-.48,1c-.16-.51-.26-1-.37-1.52a5,5,0,0,1,.85.51" transform="translate(-14.54 -52.63)"/><path class="cls-1" d="M167.77,200.33a1.79,1.79,0,0,1,.32-1c.1-.11.53.17.85.28a6.27,6.27,0,0,0-1.17.68" transform="translate(-14.54 -52.63)"/><path class="cls-1" d="M93.87,154.92c.37.06.69.45,1.07.85-.16,0-.38.28-.43.22a2.83,2.83,0,0,1-.64-1.07" transform="translate(-14.54 -52.63)"/><path class="cls-1" d="M152.33,181.48c.1-.28.42-.51.58-.45s.27.51.43.79a2.92,2.92,0,0,1-1-.34" transform="translate(-14.54 -52.63)"/><path class="cls-1" d="M87.48,154.36a3,3,0,0,1-1.06-.9c.16-.06.37-.28.42-.22a3.07,3.07,0,0,1,.64,1.12" transform="translate(-14.54 -52.63)"/><path class="cls-1" d="M164.31,178.39a3,3,0,0,1,1.11-1s.16.22.27.34a5.79,5.79,0,0,1-1.38.62" transform="translate(-14.54 -52.63)"/><path class="cls-1" d="M239.21,197.12c.16,0,.38.23.53.57,0,.05-.26.28-.37.45-.05-.29-.1-.51-.16-1" transform="translate(-14.54 -52.63)"/><path class="cls-1" d="M66.72,97.93a4.1,4.1,0,0,1-1-.79c.16-.06.37-.23.42-.17a4.1,4.1,0,0,1,.59,1" transform="translate(-14.54 -52.63)"/><path class="cls-1" d="M52.88,107.77c.16.34.32.85.48,1.3a3,3,0,0,0-.32.11c-.06-.4-.11-.85-.16-1.41" transform="translate(-14.54 -52.63)"/><path class="cls-1" d="M97.06,108.62a4.07,4.07,0,0,1-1,.56c0-.28-.06-.51-.06-.73a2.1,2.1,0,0,1,1,.17" transform="translate(-14.54 -52.63)"/><path class="cls-1" d="M106.54,134.5a1.2,1.2,0,0,1-.37-.73c0-.06.21-.12.32-.12a2.18,2.18,0,0,1,.05.85" transform="translate(-14.54 -52.63)"/><path class="cls-1" d="M106,190.48a1.17,1.17,0,0,1-.75.34,2.75,2.75,0,0,0-.1-.34,1.52,1.52,0,0,1,.85,0" transform="translate(-14.54 -52.63)"/><path class="cls-1" d="M98.82,82.45a1.48,1.48,0,0,1,.32.73c0,.06-.21.12-.32.12a1.6,1.6,0,0,1,0-.85" transform="translate(-14.54 -52.63)"/><path class="cls-1" d="M96.69,171.8a1.55,1.55,0,0,1,.69-.56,1.15,1.15,0,0,0,.11.39c-.27.06-.48.12-.8.17" transform="translate(-14.54 -52.63)"/><path class="cls-1" d="M54.1,108.05c.11-.22.43-.28.69-.33a3,3,0,0,0,.11.33,1.22,1.22,0,0,1-.8,0" transform="translate(-14.54 -52.63)"/><path class="cls-1" d="M98.29,114a1.48,1.48,0,0,1,.32.73c0,.06-.21.12-.32.12a1.5,1.5,0,0,1,0-.85" transform="translate(-14.54 -52.63)"/><path class="cls-1" d="M104.15,114.81a1.42,1.42,0,0,1,0-.85c.1,0,.32.06.32.11a1.57,1.57,0,0,1-.32.74" transform="translate(-14.54 -52.63)"/><path class="cls-1" d="M111.07,159.54a1.58,1.58,0,0,1,.32.73s-.22.11-.32.11a1.38,1.38,0,0,1,0-.84" transform="translate(-14.54 -52.63)"/><path class="cls-1" d="M206.2,131.85a7.61,7.61,0,0,0-.95-.39,2,2,0,0,1,.85-.06,1.07,1.07,0,0,1,.1.45" transform="translate(-14.54 -52.63)"/><path class="cls-1" d="M69.91,105.8c-1.7,1.07-1.7-.9-2-1.52a28.6,28.6,0,0,1-2-5.17c0-.12.58-.51.85-.9,1.06,2.42,2.13,5,3.19,7.59" transform="translate(-14.54 -52.63)"/><path class="cls-1" d="M64.59,111.43c-1.07-2-2.13-4.22-3.2-6.42,0-.16.06-.33.06-.56l.53.17c1.86,1,3.3,4.67,2.61,6.81" transform="translate(-14.54 -52.63)"/><path class="cls-1" d="M91.74,160.94c-1.06-1.46-2.13-3-3.14-4.61-.11-.11.37-.56.59-.84.63.61,1.59,1.18,2,2a14.21,14.21,0,0,1,.58,3.48" transform="translate(-14.54 -52.63)"/><path class="cls-1" d="M128.9,151.55a19.65,19.65,0,0,1,0,4,7.66,7.66,0,0,1-.74,2.14c-.43-.62-1.38-1.41-1.22-1.91a17.08,17.08,0,0,1,1.91-4.22" transform="translate(-14.54 -52.63)"/><path class="cls-1" d="M69.91,106.08c1.6,1.58,2.24,3.77,2.88,6a4.19,4.19,0,0,1,0,1.13c-.42-.23-1.12-.39-1.22-.73-.64-2.08-1.12-4.17-1.71-6.42" transform="translate(-14.54 -52.63)"/><path class="cls-1" d="M96,103.83c1.33.45,2.24,2.76,1.44,3.6-.16.23-.64.17-1,.23,0-.28,0-.56,0-.84-.16-1-.37-1.92-.53-3" transform="translate(-14.54 -52.63)"/><path class="cls-1" d="M33.71,67.54c-2.24-.39-3.14-2.19-2.08-4.11.11-.16.48-.16.7-.22a1.69,1.69,0,0,0-.11.73c.48,1.18,1,2.31,1.49,3.6" transform="translate(-14.54 -52.63)"/><path class="cls-1" d="M32.27,73.45a9.76,9.76,0,0,1,1.17-.68,9.14,9.14,0,0,1,.06,2.09c-.06.28-.69.39-1,.62a6.14,6.14,0,0,1-.22-2" transform="translate(-14.54 -52.63)"/><path class="cls-1" d="M191.83,176.87a6,6,0,0,1-1-.4,10.49,10.49,0,0,1,1.76-.17,11.66,11.66,0,0,1,1.81.34c-.8.06-1.55.11-2.61.23" transform="translate(-14.54 -52.63)"/><path class="cls-1" d="M187,176.87c-.69-.12-1.07-.17-1.49-.23l1.91-.17s.06.12,0,.17-.1.11-.42.23" transform="translate(-14.54 -52.63)"/><path class="cls-1" d="M64.59,203.87a1.25,1.25,0,0,1-.53-1c.37-1.12.8-2.25,1.17-3.37.16.11.42.28.42.33a22.41,22.41,0,0,1-1.06,4.05" transform="translate(-14.54 -52.63)"/><path class="cls-1" d="M96.53,168.26c-1.59-2.2-3.19-4.56-4.79-7,1.39,0,3.36.79,1.7-2.13-.26-.45.59-1.63.91-2.48.37.68.75,1.41,1.12,2.08,1.54,3,1,6.25,1.06,9.57" transform="translate(-14.54 -52.63)"/><path class="cls-1" d="M233.89,191.89c-3.73-.23-7.45-.62-11.18-1-.37-.06-.69-.51-1-.73a4.18,4.18,0,0,1,1.06-.34,9.1,9.1,0,0,1,2.5,0c2.88.56,5.75,1.29,8.63,2.08" transform="translate(-14.54 -52.63)"/><path class="cls-1" d="M134.33,189.36c.43-.34,1.07-.79,1.33-.62A15.36,15.36,0,0,1,138,190.6c-.8.05-1.6.22-2.4.22a3.13,3.13,0,0,1-1.33-.51c-.11-.05,0-.5.05-.95" transform="translate(-14.54 -52.63)"/><path class="cls-1" d="M233.89,192.17a2.27,2.27,0,0,1,1.06-.11,5.25,5.25,0,0,1,1,.34c-.16.39-.37.78-.53,1.18a9.72,9.72,0,0,0-.59-.85c-.26-.22-.58-.28-.9-.56" transform="translate(-14.54 -52.63)"/><path class="cls-1" d="M102.92,103.16c-.32,2-.64,3.82-1,5.62-.16-1.74-.43-3.43-.59-5.17-.32-3.55-.63-7.15-.9-10.75a5.23,5.23,0,0,1,.32-1.52c.37.4,1,.73,1.06,1.24.43,3.38.75,6.81,1.12,10.58" transform="translate(-14.54 -52.63)"/><path class="cls-1" d="M93.87,97.36a17,17,0,0,1-1.33-3.88c-.69-3.83-1.28-7.71-1.86-11.59a3.49,3.49,0,0,1,.26-1.24,3.9,3.9,0,0,1,.53,1.13c1.18,4.16,2.4,8.32,3.41,12.54.16.85-.64,1.92-1,3" transform="translate(-14.54 -52.63)"/><path class="cls-1" d="M132.36,168.54c-2.82.28-5.53,1.86-8.2.06a8.26,8.26,0,0,1-1-.85,2.82,2.82,0,0,1,1.07-.45c2.45-.05,4.89-.05,7.4,0,.53,0,1,.45,1.54.73a3.89,3.89,0,0,0-.8.51" transform="translate(-14.54 -52.63)"/><path class="cls-1" d="M167,177c4.31-.11,8.52-.17,12.67-.11a4.37,4.37,0,0,1,1.38.45,11.2,11.2,0,0,1-1.49.33c-2.87.12-5.8.23-8.73.29-1.44.05-2.87,0-4.31,0a3.55,3.55,0,0,1,.48-1" transform="translate(-14.54 -52.63)"/><path class="cls-1" d="M94.4,208.38c.32-1.52.64-3,1-4.51.59,1.24,1.17,2.48,1.7,3.72.11.22,0,.56,0,.84.11.73.22,1.41.27,2.14a20.27,20.27,0,0,1-1.7-1.24c-.53-.39-.85-.67-1.23-1" transform="translate(-14.54 -52.63)"/><path class="cls-1" d="M214.72,182.49a7.88,7.88,0,0,1-1.54-.84c.21-.23.37-.62.64-.73,1-.56,4.74.84,5.21,1.91a8.15,8.15,0,0,1,.38,1.18c-.38-.11-.75-.17-1.12-.28-1.07-.39-2.18-.84-3.57-1.24" transform="translate(-14.54 -52.63)"/><path class="cls-1" d="M107.18,118.91c.16,1,.37,1.8.53,2.53a11,11,0,0,1,0,1.41c-.37-.34-1-.56-1.12-1a13,13,0,0,1-.47-2.87,19.88,19.88,0,0,1,.31-2.31,21.83,21.83,0,0,1,.75,2.25" transform="translate(-14.54 -52.63)"/><path class="cls-1" d="M120.49,146.48c.37,3.1.85,5.91,1,8.78,0,1-.64,2-1,3-.53-.84-1.49-1.69-1.54-2.48-.11-5.45-.06-11-.06-16.43,0-.45,0-.9,0-1.35.37.51,1,1,1.06,1.52.32,2.2.43,4.39.59,6.92" transform="translate(-14.54 -52.63)"/><path class="cls-1" d="M52.88,107.49c-2.29-3.6-4.69-7.26-6.92-11-1.07-1.8-2-3.82-2.93-5.74a4.59,4.59,0,0,1-.16-1c.37.11.9,0,1.06.33.85,1.13,1.55,2.31,2.29,3.49,1.81,2.82,3.84,5.63,5.38,8.61.8,1.46.9,3.43,1.28,5.29" transform="translate(-14.54 -52.63)"/><path class="cls-1" d="M38.93,81.33c1.33,2.19,2.61,4.27,3.78,6.36.16.33-.11.9-.16,1.29a4.39,4.39,0,0,1-.75-.68c-1.27-1.91-2.61-3.82-3.88-5.79-.06-.06-.16-.11-.22-.17-.48-1-1-2-1.54-2.93.9.62,1.76,1.19,2.77,1.92" transform="translate(-14.54 -52.63)"/><path class="cls-1" d="M84,193.18c0,2.14.38,4.28-2.13,5-.16,0-.21.39-.26.61a1.91,1.91,0,0,1-.27-.73l1.6-8.49a.69.69,0,0,1,.64-.28.73.73,0,0,1,.42.56v3.34" transform="translate(-14.54 -52.63)"/><path class="cls-1" d="M147.11,194.31a14.08,14.08,0,0,1,3.51.11c2.67.79,5.22,1.86,7.83,2.65,2.45.78,4.9,1.4,7.35,2.08.37.11.69.28,1,.39-.37.28-.8,1-1.12.9a44.82,44.82,0,0,1-5.64-1.24c-4.48-1.4-8.89-3-13.37-4.55,0,0-.05-.12,0-.17s.11-.11.43-.17" transform="translate(-14.54 -52.63)"/><path class="cls-1" d="M86,144.63c-2.55-5.69-4.84-11.2-7.34-16.71-1.76-3.89-3.78-7.71-5.59-11.6a8.94,8.94,0,0,1-.32-2.47,8.73,8.73,0,0,1,1.7,1.74c1.71,3.55,2.88,7.54,5.11,10.64,2.56,3.49,3.62,7.48,5.06,11.36l5,12.83a6.68,6.68,0,0,1,0,1.46,5.29,5.29,0,0,1-.75-.95c-.9-2-1.81-4.11-2.77-6.3" transform="translate(-14.54 -52.63)"/><path class="cls-1" d="M64.59,111.71c3.78,2.87,5.06,7.65,7.45,11.59,1.49,2.48,2.88,5,4.21,7.65,2,4.05,3.94,8.16,5.91,12.27.9,1.91,1.81,3.88,2.71,5.85a3.65,3.65,0,0,1,.22.79c-.27-.11-.59-.06-.7-.23-2-3.37-4-6.69-6-10.07-1.49-2.7-3-5.4-4.36-8.16-1.71-3.43-3.15-7-4.8-10.46-1.49-3-3.14-6.08-4.68-9.23" transform="translate(-14.54 -52.63)"/><path class="cls-1" d="M39.73,66.42a3.78,3.78,0,0,1-.16-1.24c.69.45,1.7.79,2.07,1.52,1.33,2.47,2.45,5.06,3.68,7.59.48,1.07,1.06,2.14,1.59,3.15C49,81.21,51.39,84.87,53.3,88.7c2,4,3.68,8.33,6.76,11.64a4.49,4.49,0,0,1,.8,1.64,3.2,3.2,0,0,1-.16,1,2.46,2.46,0,0,1-.74-.56c-2.34-2.76-4.58-5.52-5.65-9.34-.63-2.42-2.82-4.28-4-6.59-1.49-2.81-2.24-6.19-4.15-8.61-2.77-3.43-4.1-7.59-6.39-11.47" transform="translate(-14.54 -52.63)"/><path class="cls-1" d="M58.09,115c.86,1.24,1.49,2.59,2.45,3.72.27.28.06,3.09,1.6.79a5.66,5.66,0,0,0,.32.61c1.81,2.93,3.62,5.8,5.38,8.73,5.32,8.72,10.54,17.49,16,26.1C87.06,160.1,90.73,165,94,170.11c.64,1,.8,2.09,2.4,1.69-2.51,1.8-3.14,1.58-4.74-1-3-5.06-6.34-10-9.43-15-2.28-3.71-4.25-7.71-6.6-11.36-2-3.21-4.42-6.14-6.49-9.23-3.36-5-6.66-10-9.9-15.08a30.24,30.24,0,0,1-2.13-4.5,2,2,0,0,1,1-.68" transform="translate(-14.54 -52.63)"/><path class="cls-1" d="M113,120.15c1.86-.67,1.49.68,1.59,1.8.32,3.94.86,7.88,1,11.82.16,2.7-.38,5.45-.11,8.16.27,3.09-.64,6.13,1,9.34,1.06,2.13.26,5.34.21,8,0,.23-.53.62-.8.62a1.2,1.2,0,0,1-.74-.79c-.91-5.06-1.6-10.18-2.72-15.19-1.22-5.46-1.33-11.2-4-16.26-.26-.39-.1-1.07-.15-1.63-.06-.34-.16-.68-.22-1a5.18,5.18,0,0,1,.75.73c2.39,3.21,2.61,7.15,3.19,10.92a9.29,9.29,0,0,0,.85,1.91,9.94,9.94,0,0,0,.59,1c.21-.28.69-.56.64-.85-.21-3.26-.59-6.52-.8-9.84-.16-2.87-.16-5.74-.21-8.78" transform="translate(-14.54 -52.63)"/></g></svg>