<svg xmlns="http://www.w3.org/2000/svg" xmlns:xlink="http://www.w3.org/1999/xlink" viewBox="0 0 1920 799">
  <defs>
    <style>
      .cls-1 {
        fill: #fcf951;
      }

      .cls-1, .cls-12, .cls-24 {
        opacity: 0.9;
      }

      .cls-2 {
        fill: #123a08;
      }

      .cls-3 {
        fill: #030f01;
      }

      .cls-4 {
        fill: url(#linear-gradient);
      }

      .cls-5 {
        fill: none;
        stroke: #030f01;
        stroke-miterlimit: 10;
      }

      .cls-6 {
        fill: #55951b;
      }

      .cls-7 {
        fill: url(#linear-gradient-2);
      }

      .cls-8 {
        fill: url(#linear-gradient-3);
      }

      .cls-9 {
        fill: #436d16;
      }

      .cls-10 {
        fill: #e0b500;
      }

      .cls-11 {
        fill: #ffd100;
      }

      .cls-12, .cls-13 {
        fill: #fff;
      }

      .cls-14, .cls-17, .cls-18, .cls-26, .cls-29, .cls-30, .cls-35, .cls-38, .cls-39, .cls-44, .cls-47, .cls-48, .cls-53, .cls-56, .cls-57, .cls-62, .cls-65, .cls-66, .cls-70, .cls-73, .cls-74 {
        opacity: 0.3;
      }

      .cls-14 {
        fill: url(#linear-gradient-4);
      }

      .cls-15, .cls-16, .cls-19, .cls-20, .cls-27, .cls-28, .cls-31, .cls-32, .cls-36, .cls-37, .cls-40, .cls-41, .cls-45, .cls-46, .cls-49, .cls-50, .cls-54, .cls-55, .cls-58, .cls-59, .cls-63, .cls-64, .cls-67, .cls-68, .cls-71, .cls-72, .cls-75, .cls-76 {
        opacity: 0.42;
      }

      .cls-15 {
        fill: url(#linear-gradient-5);
      }

      .cls-16 {
        fill: url(#linear-gradient-6);
      }

      .cls-17 {
        fill: url(#linear-gradient-7);
      }

      .cls-18 {
        fill: url(#linear-gradient-8);
      }

      .cls-19 {
        fill: url(#linear-gradient-9);
      }

      .cls-20 {
        fill: url(#radial-gradient);
      }

      .cls-21 {
        fill: url(#linear-gradient-10);
      }

      .cls-22 {
        opacity: 0.72;
      }

      .cls-23 {
        fill: url(#linear-gradient-11);
      }

      .cls-25 {
        opacity: 0.5;
      }

      .cls-26 {
        fill: url(#linear-gradient-12);
      }

      .cls-27 {
        fill: url(#linear-gradient-13);
      }

      .cls-28 {
        fill: url(#linear-gradient-14);
      }

      .cls-29 {
        fill: url(#linear-gradient-15);
      }

      .cls-30 {
        fill: url(#linear-gradient-16);
      }

      .cls-31 {
        fill: url(#linear-gradient-17);
      }

      .cls-32 {
        fill: url(#radial-gradient-2);
      }

      .cls-33 {
        fill: url(#linear-gradient-18);
      }

      .cls-34 {
        fill: url(#linear-gradient-19);
      }

      .cls-35 {
        fill: url(#linear-gradient-20);
      }

      .cls-36 {
        fill: url(#linear-gradient-21);
      }

      .cls-37 {
        fill: url(#linear-gradient-22);
      }

      .cls-38 {
        fill: url(#linear-gradient-23);
      }

      .cls-39 {
        fill: url(#linear-gradient-24);
      }

      .cls-40 {
        fill: url(#linear-gradient-25);
      }

      .cls-41 {
        fill: url(#radial-gradient-3);
      }

      .cls-42 {
        fill: url(#linear-gradient-26);
      }

      .cls-43 {
        fill: url(#linear-gradient-27);
      }

      .cls-44 {
        fill: url(#linear-gradient-28);
      }

      .cls-45 {
        fill: url(#linear-gradient-29);
      }

      .cls-46 {
        fill: url(#linear-gradient-30);
      }

      .cls-47 {
        fill: url(#linear-gradient-31);
      }

      .cls-48 {
        fill: url(#linear-gradient-32);
      }

      .cls-49 {
        fill: url(#linear-gradient-33);
      }

      .cls-50 {
        fill: url(#radial-gradient-4);
      }

      .cls-51 {
        fill: url(#linear-gradient-34);
      }

      .cls-52 {
        fill: url(#linear-gradient-35);
      }

      .cls-53 {
        fill: url(#linear-gradient-36);
      }

      .cls-54 {
        fill: url(#linear-gradient-37);
      }

      .cls-55 {
        fill: url(#linear-gradient-38);
      }

      .cls-56 {
        fill: url(#linear-gradient-39);
      }

      .cls-57 {
        fill: url(#linear-gradient-40);
      }

      .cls-58 {
        fill: url(#linear-gradient-41);
      }

      .cls-59 {
        fill: url(#radial-gradient-5);
      }

      .cls-60 {
        fill: url(#linear-gradient-42);
      }

      .cls-61 {
        fill: url(#linear-gradient-43);
      }

      .cls-62 {
        fill: url(#linear-gradient-44);
      }

      .cls-63 {
        fill: url(#linear-gradient-45);
      }

      .cls-64 {
        fill: url(#linear-gradient-46);
      }

      .cls-65 {
        fill: url(#linear-gradient-47);
      }

      .cls-66 {
        fill: url(#linear-gradient-48);
      }

      .cls-67 {
        fill: url(#linear-gradient-49);
      }

      .cls-68 {
        fill: url(#radial-gradient-6);
      }

      .cls-69 {
        fill: url(#linear-gradient-50);
      }

      .cls-70 {
        fill: url(#linear-gradient-51);
      }

      .cls-71 {
        fill: url(#linear-gradient-52);
      }

      .cls-72 {
        fill: url(#linear-gradient-53);
      }

      .cls-73 {
        fill: url(#linear-gradient-54);
      }

      .cls-74 {
        fill: url(#linear-gradient-55);
      }

      .cls-75 {
        fill: url(#linear-gradient-56);
      }

      .cls-76 {
        fill: url(#radial-gradient-7);
      }

      .cls-77 {
        fill: url(#linear-gradient-57);
      }

      .cls-78 {
        fill: url(#linear-gradient-58);
      }
    </style>
    <linearGradient id="linear-gradient" x1="925" y1="433.57" x2="995.05" y2="433.57" gradientUnits="userSpaceOnUse">
      <stop offset="0.02" stop-color="#030f01"/>
      <stop offset="0.49" stop-color="#051202" stop-opacity="0.99"/>
      <stop offset="0.66" stop-color="#0d1f04" stop-opacity="0.95"/>
      <stop offset="0.78" stop-color="#1a3408" stop-opacity="0.89"/>
      <stop offset="0.87" stop-color="#2c520e" stop-opacity="0.8"/>
      <stop offset="0.96" stop-color="#447916" stop-opacity="0.68"/>
      <stop offset="1" stop-color="#55951b" stop-opacity="0.6"/>
    </linearGradient>
    <linearGradient id="linear-gradient-2" x1="939.55" y1="157.54" x2="939.55" y2="194.81" gradientUnits="userSpaceOnUse">
      <stop offset="0.05" stop-color="#55951b" stop-opacity="0"/>
      <stop offset="0.24" stop-color="#508d19" stop-opacity="0.11"/>
      <stop offset="0.55" stop-color="#447712" stop-opacity="0.41"/>
      <stop offset="0.92" stop-color="#305308" stop-opacity="0.9"/>
      <stop offset="0.99" stop-color="#2c4c06"/>
    </linearGradient>
    <linearGradient id="linear-gradient-3" x1="982.15" y1="158.84" x2="977.49" y2="194.84" gradientUnits="userSpaceOnUse">
      <stop offset="0.05" stop-color="#55951b" stop-opacity="0"/>
      <stop offset="0.29" stop-color="#53921a" stop-opacity="0.05"/>
      <stop offset="0.5" stop-color="#4d8717" stop-opacity="0.19"/>
      <stop offset="0.7" stop-color="#447612" stop-opacity="0.42"/>
      <stop offset="0.89" stop-color="#365e0b" stop-opacity="0.75"/>
      <stop offset="1" stop-color="#2c4c06"/>
    </linearGradient>
    <linearGradient id="linear-gradient-4" x1="724.62" y1="-370.24" x2="724.62" y2="-119.58" gradientTransform="matrix(-0.41, -0.87, 0.88, -0.4, 2233.38, 1305.88)" gradientUnits="userSpaceOnUse">
      <stop offset="0" stop-color="#0e7a13"/>
      <stop offset="0.07" stop-color="#39b80f" stop-opacity="0.54"/>
      <stop offset="0.14" stop-color="#5deb0c" stop-opacity="0.15"/>
      <stop offset="0.18" stop-color="#6bff0b" stop-opacity="0"/>
    </linearGradient>
    <linearGradient id="linear-gradient-5" x1="4079.01" y1="-1094.55" x2="4079.01" y2="-847.73" gradientTransform="matrix(0, -0.94, 0.94, 0, 2634.31, 4631.41)" gradientUnits="userSpaceOnUse">
      <stop offset="0" stop-color="#770072"/>
      <stop offset="0.03" stop-color="#9a0070" stop-opacity="0.74"/>
      <stop offset="0.07" stop-color="#bd006e" stop-opacity="0.47"/>
      <stop offset="0.11" stop-color="#d8006c" stop-opacity="0.26"/>
      <stop offset="0.15" stop-color="#ec006b" stop-opacity="0.12"/>
      <stop offset="0.19" stop-color="#f7006a" stop-opacity="0.03"/>
      <stop offset="0.25" stop-color="#fb006a" stop-opacity="0"/>
    </linearGradient>
    <linearGradient id="linear-gradient-6" x1="3162.17" y1="460.1" x2="3162.17" y2="684.41" gradientTransform="matrix(0, 1.02, -0.94, 0, 2271.93, -2451.23)" gradientUnits="userSpaceOnUse">
      <stop offset="0" stop-color="#fb006a"/>
      <stop offset="0.01" stop-color="#fb006a" stop-opacity="0.93"/>
      <stop offset="0.09" stop-color="#fb006a" stop-opacity="0.61"/>
      <stop offset="0.15" stop-color="#fb006a" stop-opacity="0.35"/>
      <stop offset="0.21" stop-color="#fb006a" stop-opacity="0.16"/>
      <stop offset="0.25" stop-color="#fb006a" stop-opacity="0.04"/>
      <stop offset="0.27" stop-color="#fb006a" stop-opacity="0"/>
    </linearGradient>
    <linearGradient id="linear-gradient-7" x1="-2444.95" y1="-1912.35" x2="-2444.95" y2="-1658.62" gradientTransform="matrix(-0.38, -0.83, 0.82, -0.39, 2245.41, -1954.81)" gradientUnits="userSpaceOnUse">
      <stop offset="0" stop-color="#fb006a"/>
      <stop offset="0.01" stop-color="#fb006a" stop-opacity="0.8"/>
      <stop offset="0.03" stop-color="#fb006a" stop-opacity="0.61"/>
      <stop offset="0.05" stop-color="#fb006a" stop-opacity="0.45"/>
      <stop offset="0.07" stop-color="#fb006a" stop-opacity="0.31"/>
      <stop offset="0.09" stop-color="#fb006a" stop-opacity="0.2"/>
      <stop offset="0.11" stop-color="#fb006a" stop-opacity="0.11"/>
      <stop offset="0.13" stop-color="#fb006a" stop-opacity="0.05"/>
      <stop offset="0.15" stop-color="#fb006a" stop-opacity="0.01"/>
      <stop offset="0.19" stop-color="#fb006a" stop-opacity="0"/>
    </linearGradient>
    <linearGradient id="linear-gradient-8" x1="-1320.38" y1="-1664.5" x2="-1320.38" y2="-1415.65" gradientTransform="matrix(0.87, -0.4, 0.4, 0.87, 3485.98, 1578.87)" gradientUnits="userSpaceOnUse">
      <stop offset="0" stop-color="#27fffb"/>
      <stop offset="0.05" stop-color="#27fffb" stop-opacity="0.79"/>
      <stop offset="0.1" stop-color="#27fffb" stop-opacity="0.58"/>
      <stop offset="0.15" stop-color="#27fffb" stop-opacity="0.4"/>
      <stop offset="0.2" stop-color="#27fffb" stop-opacity="0.26"/>
      <stop offset="0.25" stop-color="#27fffb" stop-opacity="0.14"/>
      <stop offset="0.3" stop-color="#27fffb" stop-opacity="0.06"/>
      <stop offset="0.35" stop-color="#27fffb" stop-opacity="0.02"/>
      <stop offset="0.4" stop-color="#27fffb" stop-opacity="0"/>
    </linearGradient>
    <linearGradient id="linear-gradient-9" x1="1987.7" y1="307.72" x2="1987.7" y2="563.51" gradientTransform="matrix(0, 0.94, -0.94, 0, 2128.32, -1099.15)" gradientUnits="userSpaceOnUse">
      <stop offset="0" stop-color="#fff"/>
      <stop offset="0.26" stop-color="#fff" stop-opacity="0"/>
    </linearGradient>
    <radialGradient id="radial-gradient" cx="1718.61" cy="777.73" r="120.74" gradientTransform="translate(0 0.05)" gradientUnits="userSpaceOnUse">
      <stop offset="0.84" stop-color="#fff" stop-opacity="0"/>
      <stop offset="0.97" stop-color="#fff" stop-opacity="0.57"/>
      <stop offset="0.99" stop-color="#fff" stop-opacity="0.6"/>
      <stop offset="1" stop-color="#fff"/>
    </radialGradient>
    <linearGradient id="linear-gradient-10" x1="-1176.45" y1="631.89" x2="-1176.45" y2="649.17" gradientTransform="matrix(-0.95, -0.31, 0.31, -0.95, 435.68, 929.94)" gradientUnits="userSpaceOnUse">
      <stop offset="0" stop-color="#fff" stop-opacity="0"/>
      <stop offset="1" stop-color="#fff"/>
    </linearGradient>
    <linearGradient id="linear-gradient-11" x1="1837.82" y1="233.68" x2="1837.82" y2="258.99" gradientTransform="matrix(0.45, 0.63, -0.82, 0.59, 1017.48, -469.44)" xlink:href="#linear-gradient-10"/>
    <linearGradient id="linear-gradient-12" x1="1889.38" y1="126.49" x2="1889.38" y2="336.82" gradientTransform="matrix(-0.41, -0.87, 0.88, -0.4, 1098.42, 2354.2)" xlink:href="#linear-gradient-4"/>
    <linearGradient id="linear-gradient-13" x1="5235.34" y1="-1610.47" x2="5235.34" y2="-1403.36" gradientTransform="matrix(0, -0.94, 0.94, 0, 1947.1, 5568.67)" xlink:href="#linear-gradient-5"/>
    <linearGradient id="linear-gradient-14" x1="2936.31" y1="1730.91" x2="2936.31" y2="1919.14" gradientTransform="matrix(0, 1.02, -0.94, 0, 2259.45, -2373.86)" xlink:href="#linear-gradient-6"/>
    <linearGradient id="linear-gradient-15" x1="-1668.05" y1="-2964.46" x2="-1668.05" y2="-2751.55" gradientTransform="matrix(-0.38, -0.83, 0.82, -0.39, 2232.89, -1877.65)" xlink:href="#linear-gradient-7"/>
    <linearGradient id="linear-gradient-16" x1="-2162.31" y1="-2577.5" x2="-2162.31" y2="-2368.68" gradientTransform="matrix(0.87, -0.4, 0.4, 0.87, 3400.9, 1893.92)" xlink:href="#linear-gradient-8"/>
    <linearGradient id="linear-gradient-17" x1="811.48" y1="819.33" x2="811.48" y2="1033.96" gradientTransform="matrix(0, 0.94, -0.94, 0, 1398.91, -142.33)" xlink:href="#linear-gradient-9"/>
    <radialGradient id="radial-gradient-2" cx="525.28" cy="624.3" r="101.31" xlink:href="#radial-gradient"/>
    <linearGradient id="linear-gradient-18" x1="5.7" y1="389.25" x2="5.7" y2="403.74" xlink:href="#linear-gradient-10"/>
    <linearGradient id="linear-gradient-19" x1="776.83" y1="1095.73" x2="776.83" y2="1116.96" gradientTransform="matrix(0.45, 0.63, -0.82, 0.59, 1017.48, -469.44)" xlink:href="#linear-gradient-10"/>
    <linearGradient id="linear-gradient-20" x1="2153.73" y1="569.93" x2="2153.73" y2="739.78" gradientTransform="matrix(-0.41, -0.87, 0.88, -0.4, 486.54, 2423.8)" xlink:href="#linear-gradient-4"/>
    <linearGradient id="linear-gradient-21" x1="5733.49" y1="-1490.07" x2="5733.49" y2="-1322.83" gradientTransform="matrix(0, -0.94, 0.94, 0, 1504.95, 5707.67)" xlink:href="#linear-gradient-5"/>
    <linearGradient id="linear-gradient-22" x1="2591.16" y1="2095.75" x2="2591.16" y2="2247.74" gradientTransform="matrix(0, 1.02, -0.94, 0, 2237.26, -2351.83)" xlink:href="#linear-gradient-6"/>
    <linearGradient id="linear-gradient-23" x1="-1169.71" y1="-3106.23" x2="-1169.71" y2="-2934.3" gradientTransform="matrix(-0.38, -0.83, 0.82, -0.39, 2210.65, -1855.83)" xlink:href="#linear-gradient-7"/>
    <linearGradient id="linear-gradient-24" x1="-2213.03" y1="-3055.93" x2="-2213.03" y2="-2887.31" gradientTransform="matrix(0.87, -0.4, 0.4, 0.87, 3299.35, 1975.09)" xlink:href="#linear-gradient-8"/>
    <linearGradient id="linear-gradient-25" x1="317.6" y1="720.73" x2="317.6" y2="894.05" gradientTransform="matrix(0, 0.94, -0.94, 0, 939.06, -6.57)" xlink:href="#linear-gradient-9"/>
    <radialGradient id="radial-gradient-3" cx="177.78" cy="293.78" r="81.81" xlink:href="#radial-gradient"/>
    <linearGradient id="linear-gradient-26" x1="440.41" y1="580.26" x2="440.41" y2="591.97" xlink:href="#linear-gradient-10"/>
    <linearGradient id="linear-gradient-27" x1="168.21" y1="1172.06" x2="168.21" y2="1189.2" gradientTransform="matrix(0.45, 0.63, -0.82, 0.59, 1017.48, -469.44)" xlink:href="#linear-gradient-10"/>
    <linearGradient id="linear-gradient-28" x1="467.41" y1="3.77" x2="467.41" y2="162.76" gradientTransform="matrix(-0.41, -0.87, 0.88, -0.4, 1996.15, 842.6)" xlink:href="#linear-gradient-4"/>
    <linearGradient id="linear-gradient-29" x1="4148.15" y1="-624.51" x2="4148.15" y2="-467.96" gradientTransform="matrix(0, -0.94, 0.94, 0, 2391.53, 4321.94)" xlink:href="#linear-gradient-5"/>
    <linearGradient id="linear-gradient-30" x1="2807.55" y1="313.55" x2="2807.55" y2="455.82" gradientTransform="matrix(0, 1.02, -0.94, 0, 2248.04, -2461.94)" xlink:href="#linear-gradient-6"/>
    <linearGradient id="linear-gradient-31" x1="-2173.12" y1="-1516.19" x2="-2173.12" y2="-1355.25" gradientTransform="matrix(-0.38, -0.83, 0.82, -0.39, 2221.42, -1966)" xlink:href="#linear-gradient-7"/>
    <linearGradient id="linear-gradient-32" x1="-941.04" y1="-1807.62" x2="-941.04" y2="-1649.77" gradientTransform="matrix(0.87, -0.4, 0.4, 0.87, 3391.64, 1522.49)" xlink:href="#linear-gradient-8"/>
    <linearGradient id="linear-gradient-33" x1="1935.08" y1="-71.82" x2="1935.08" y2="90.42" gradientTransform="matrix(0, 0.94, -0.94, 0, 1884.33, -1422.42)" xlink:href="#linear-gradient-9"/>
    <radialGradient id="radial-gradient-4" cx="1876.58" cy="404.44" r="76.58" xlink:href="#radial-gradient"/>
    <linearGradient id="linear-gradient-34" x1="-1206.95" y1="1004.97" x2="-1206.95" y2="1015.93" xlink:href="#linear-gradient-10"/>
    <linearGradient id="linear-gradient-35" x1="1564.9" y1="-138.11" x2="1564.9" y2="-122.07" gradientTransform="matrix(0.45, 0.63, -0.82, 0.59, 1017.48, -469.44)" xlink:href="#linear-gradient-10"/>
    <linearGradient id="linear-gradient-36" x1="847.5" y1="-73.93" x2="847.5" y2="45.49" gradientTransform="matrix(-0.41, -0.87, 0.88, -0.4, 1909.91, 1319.69)" xlink:href="#linear-gradient-4"/>
    <linearGradient id="linear-gradient-37" x1="4336.39" y1="-957.23" x2="4336.39" y2="-839.64" gradientTransform="matrix(0, -0.94, 0.94, 0, 2396.38, 4686.02)" xlink:href="#linear-gradient-5"/>
    <linearGradient id="linear-gradient-38" x1="2969.7" y1="692.87" x2="2969.7" y2="799.73" gradientTransform="matrix(0, 1.02, -0.94, 0, 2259.52, -2440.09)" xlink:href="#linear-gradient-6"/>
    <linearGradient id="linear-gradient-39" x1="-2177.88" y1="-1910.19" x2="-2177.88" y2="-1789.31" gradientTransform="matrix(-0.38, -0.83, 0.82, -0.39, 2232.86, -1944.35)" xlink:href="#linear-gradient-7"/>
    <linearGradient id="linear-gradient-40" x1="-1328.23" y1="-1862.25" x2="-1328.23" y2="-1743.69" gradientTransform="matrix(0.87, -0.4, 0.4, 0.87, 3429.94, 1617.45)" xlink:href="#linear-gradient-8"/>
    <linearGradient id="linear-gradient-41" x1="1733.34" y1="293.44" x2="1733.34" y2="415.3" gradientTransform="matrix(0, 0.94, -0.94, 0, 1882.48, -1044.82)" xlink:href="#linear-gradient-9"/>
    <radialGradient id="radial-gradient-5" cx="1548.64" cy="591.51" r="57.52" xlink:href="#radial-gradient"/>
    <linearGradient id="linear-gradient-42" x1="-953.36" y1="711.05" x2="-953.36" y2="719.28" xlink:href="#linear-gradient-10"/>
    <linearGradient id="linear-gradient-43" x1="1513.02" y1="223.52" x2="1513.02" y2="235.57" gradientTransform="matrix(0.45, 0.63, -0.82, 0.59, 1017.48, -469.44)" xlink:href="#linear-gradient-10"/>
    <linearGradient id="linear-gradient-44" x1="1508.89" y1="704.22" x2="1508.89" y2="823.64" gradientTransform="matrix(-0.41, -0.87, 0.88, -0.4, 695.23, 1644.06)" xlink:href="#linear-gradient-4"/>
    <linearGradient id="linear-gradient-45" x1="5372.46" y1="-905.09" x2="5372.46" y2="-787.5" gradientTransform="matrix(0, -0.94, 0.94, 0, 1546.14, 5100.85)" xlink:href="#linear-gradient-5"/>
    <linearGradient id="linear-gradient-46" x1="2368.21" y1="1500.61" x2="2368.21" y2="1607.48" gradientTransform="matrix(0, 1.02, -0.94, 0, 2221.24, -2389.23)" xlink:href="#linear-gradient-6"/>
    <linearGradient id="linear-gradient-47" x1="-1218.41" y1="-2390.08" x2="-1218.41" y2="-2269.19" gradientTransform="matrix(-0.38, -0.83, 0.82, -0.39, 2194.58, -1893.49)" xlink:href="#linear-gradient-7"/>
    <linearGradient id="linear-gradient-48" x1="-1580.58" y1="-2853.89" x2="-1580.58" y2="-2735.34" gradientTransform="matrix(0.87, -0.4, 0.4, 0.87, 3249.12, 1812.04)" xlink:href="#linear-gradient-8"/>
    <linearGradient id="linear-gradient-49" x1="700.06" y1="201.23" x2="700.06" y2="323.09" gradientTransform="matrix(0, 0.94, -0.94, 0, 994.41, -632.63)" xlink:href="#linear-gradient-9"/>
    <radialGradient id="radial-gradient-6" cx="747.64" cy="28.47" r="57.52" xlink:href="#radial-gradient"/>
    <linearGradient id="linear-gradient-50" x1="319.47" y1="542.85" x2="319.47" y2="554.9" gradientTransform="matrix(0.45, 0.63, -0.82, 0.59, 1017.48, -469.44)" xlink:href="#linear-gradient-10"/>
    <linearGradient id="linear-gradient-51" x1="2182.26" y1="752.53" x2="2182.26" y2="842.88" gradientTransform="matrix(-0.41, -0.87, 0.88, -0.4, 310.72, 2379.17)" xlink:href="#linear-gradient-4"/>
    <linearGradient id="linear-gradient-52" x1="5860.2" y1="-1370.36" x2="5860.2" y2="-1281.4" gradientTransform="matrix(0, -0.94, 0.94, 0, 1368.03, 5698.71)" xlink:href="#linear-gradient-5"/>
    <linearGradient id="linear-gradient-53" x1="2463.06" y1="2191.68" x2="2463.06" y2="2272.53" gradientTransform="matrix(0, 1.02, -0.94, 0, 2228.89, -2347.82)" xlink:href="#linear-gradient-6"/>
    <linearGradient id="linear-gradient-54" x1="-1016.18" y1="-3057.03" x2="-1016.18" y2="-2965.57" gradientTransform="matrix(-0.38, -0.83, 0.82, -0.39, 2202.19, -1852.24)" xlink:href="#linear-gradient-7"/>
    <linearGradient id="linear-gradient-55" x1="-2174.87" y1="-3158.87" x2="-2174.87" y2="-3069.17" gradientTransform="matrix(0.87, -0.4, 0.4, 0.87, 3263.04, 1986.71)" xlink:href="#linear-gradient-8"/>
    <linearGradient id="linear-gradient-56" x1="194.11" y1="676.71" x2="194.11" y2="768.91" gradientTransform="matrix(0, 0.94, -0.94, 0, 798.45, -17.01)" xlink:href="#linear-gradient-9"/>
    <radialGradient id="radial-gradient-7" cx="116.52" cy="166.48" r="43.52" xlink:href="#radial-gradient"/>
    <linearGradient id="linear-gradient-57" x1="540.5" y1="655.07" x2="540.5" y2="661.29" xlink:href="#linear-gradient-10"/>
    <linearGradient id="linear-gradient-58" x1="-12.26" y1="1123.82" x2="-12.26" y2="1132.94" gradientTransform="matrix(0.45, 0.63, -0.82, 0.59, 1017.48, -469.44)" xlink:href="#linear-gradient-10"/>
  </defs>
  <g id="bg">
    <rect class="cls-1" x="-0.5" y="-0.5" width="1920" height="800"/>
  </g>
  <g id="dragonfly">
    <g>
      <g>
        <path class="cls-2" d="M959.49,143.58s-30.07,3.31-20.39,14.49S963.05,152.85,959.49,143.58Z"/>
        <path class="cls-2" d="M960.57,143.58s30.06,3.31,20.38,14.49S957,152.85,960.57,143.58Z"/>
      </g>
      <g>
        <path class="cls-3" d="M919.34,180c0-10,18.75-27.46,41.2-27.46S1000.66,170,1000.66,180c0,4.7-4.54,11.65-11.1,14.87-7.44,3.65-17.63,3.27-29.56,3.27-11.23,0-21.93.64-29.29-2.64S919.34,185,919.34,180Z"/>
        <path class="cls-3" d="M938.4,158.15s20.82,14.14,20.82,39"/>
        <path class="cls-3" d="M981,158.15s-20.83,14.14-20.83,39"/>
      </g>
      <path class="cls-3" d="M1005.62,289.42q9.58,8.1,18.58,16.89a184.22,184.22,0,0,1,16.88,18.55,53.76,53.76,0,0,1,6.64,10.63,56.88,56.88,0,0,1,3.33,12.09,84,84,0,0,1,.29,25,84,84,0,0,0-.35-25,57.09,57.09,0,0,0-3.35-12.06,53.74,53.74,0,0,0-6.66-10.59,185.07,185.07,0,0,0-16.91-18.5q-9-8.74-18.61-16.83a.12.12,0,0,1,0-.17.13.13,0,0,1,.18,0Z"/>
      <path class="cls-3" d="M1008.7,286.3q17.87,9.18,35.6,18.58t35.32,19.1q8.78,4.86,17.47,9.88c5.79,3.36,11.55,6.77,17.15,10.44a61,61,0,0,1,8,6,80,80,0,0,1,6.13,7.95,124.41,124.41,0,0,1,9.88,17.45,123.82,123.82,0,0,0-9.91-17.43,79.89,79.89,0,0,0-6.14-7.93,60.3,60.3,0,0,0-8-6c-5.6-3.65-11.37-7.05-17.16-10.41s-11.63-6.62-17.48-9.85q-17.58-9.7-35.35-19t-35.62-18.53a.12.12,0,0,1-.06-.16.13.13,0,0,1,.17-.06Z"/>
      <path class="cls-3" d="M1364.49,143.67s-1.07,3.78.48,5.33,34.16,4.66,38.82,3.11,2.76-5.2,2.76-5.2l-18.68-3a24.22,24.22,0,0,0-3.9-.3Z"/>
      <path class="cls-3" d="M1352,314.81s-5.57,2.86-2.29,4.54,32.79,16.75,34.43,16.75,4.49-4.31,4.49-4.31Z"/>
      <path class="cls-3" d="M555.46,143.66s1.07,3.78-.49,5.34-34.15,4.65-38.81,3.1-2.76-5.2-2.76-5.2l18.68-3a24.22,24.22,0,0,1,3.9-.3Z"/>
      <path class="cls-3" d="M568,314.8s5.57,2.86,2.29,4.54-32.8,16.75-34.44,16.75-4.48-4.31-4.48-4.31Z"/>
      <path class="cls-3" d="M974.81,198s3,6.9,7.64,8.45,21.74,32.61,6.21,69.87c0,0-3.1,3.11-10.87,4.66s6.21,6.21,10.87,12.42,7.76,35.71-3.1,51.24S963.82,380.35,970,392.77s9.32,32.6,6.21,35.71c0,0,6.21,31,1.55,38.81,0,0,3.11,48.14-1.55,52.79,0,0,4.66,40.37,0,45,0,0,4.66,48.13,0,49.68,0,0,3.11,45-7.76,51.24,0,0-6.21,3.11-7.77,3.11h-1.37c-1.25,0-5.53-2-7.15-2.8l-.17-.09-.45-.22c-10.86-6.21-7.76-51.24-7.76-51.24-4.66-1.55,0-49.68,0-49.68-4.66-4.66,0-45,0-45-4.66-4.65-1.55-52.79-1.55-52.79-4.66-7.76,1.55-38.81,1.55-38.81-3.1-3.11,0-23.29,6.21-35.71s-4.66-32.61-15.52-48.13-7.77-45-3.11-51.24S950,282.53,942.26,281s-10.87-4.66-10.87-4.66c-15.53-37.26,1.55-68.32,6.21-69.87s7.64-8.45,7.64-8.45"/>
      <path class="cls-4" d="M974.81,198s3,6.9,7.64,8.45,21.74,32.61,6.21,69.87c0,0-3.1,3.11-10.87,4.66s6.21,6.21,10.87,12.42,7.76,35.71-3.1,51.24S963.82,380.35,970,392.77s9.32,32.6,6.21,35.71c0,0,6.21,31,1.55,38.81,0,0,3.11,48.14-1.55,52.79,0,0,4.66,40.37,0,45,0,0,4.66,48.13,0,49.68,0,0,3.11,45-7.76,51.24,0,0-6.21,3.11-7.77,3.11h-1.37c-1.25,0-5.53-2-7.15-2.8l-.17-.09-.45-.22c-10.86-6.21-7.76-51.24-7.76-51.24-4.66-1.55,0-49.68,0-49.68-4.66-4.66,0-45,0-45-4.66-4.65-1.55-52.79-1.55-52.79-4.66-7.76,1.55-38.81,1.55-38.81-3.1-3.11,0-23.29,6.21-35.71s-4.66-32.61-15.52-48.13-7.77-45-3.11-51.24S950,282.53,942.26,281s-10.87-4.66-10.87-4.66c-15.53-37.26,1.55-68.32,6.21-69.87s7.64-8.45,7.64-8.45"/>
      <line class="cls-5" x1="992.93" y1="267.69" x2="979.92" y2="262.35"/>
      <path class="cls-5" d="M981.5,231.29s67.8-34.21,93.48-37.07,134.1-13.55,142.65-16.4,127-34.95,150.51-34.24S1480,147,1418.78,198.5c-61,51.29-208.81,82.31-224,82.74C1182,281.61,1050,284.1,993,267.69"/>
      <path class="cls-5" d="M969.08,273.22l4.66,4.65c4.66,4.66,16.36,12.65,16.36,12.65,6.93,4.43,8.56,41.37,0,55.63s-5.71,23.54-5.71,23.54c11.77,52.65,152,52.08,211.63,49.41a194.57,194.57,0,0,0,41.26-6.41c39.12-10.41,122.3-21.6,122.3-21.6,129.1-29.25,10.7-66.34-5.71-75.61s-164-16.4-190.44-15.69-168.24-31.48-168.24-31.48l-10.58-2.86"/>
      <path class="cls-3" d="M1001.63,231.18c9-4.66,18.11-9,27.42-12.91,2.33-1,4.66-2,7-2.85,1.17-.46,2.35-.93,3.53-1.37l3.57-1.28c2.36-.9,4.79-1.6,7.19-2.4,1.21-.38,2.43-.7,3.65-1.05s2.42-.71,3.66-1a63.89,63.89,0,0,1,15-2c5,0,10.1-.14,15.15-.25l30.3-.85c10.1-.29,20.2-.55,30.3-.72s20.22-.29,30.31.24c1.27.08,2.53.1,3.79.14l1.89.05,1.89-.08c2.53-.06,5-.37,7.54-.64,5-.67,10-1.67,14.88-2.83a249.39,249.39,0,0,0,28.93-9h0q20.6-6.24,41.3-12.17,10.35-3,20.76-5.73,5.21-1.38,10.43-2.64c1.76-.38,3.5-.82,5.26-1.15l2.65-.5c.88-.13,1.78-.2,2.67-.29-.89.09-1.79.16-2.67.29l-2.65.5c-1.76.33-3.5.78-5.25,1.16-3.49.85-7,1.72-10.44,2.65q-10.41,2.76-20.75,5.74-20.7,5.91-41.3,12.2h0a250.3,250.3,0,0,1-28.94,9c-4.91,1.16-9.87,2.17-14.88,2.84-2.51.27-5,.59-7.55.64l-1.9.09-1.89,0c-1.27,0-2.53-.06-3.79-.14-10.09-.52-20.2-.35-30.3-.21s-20.21.44-30.31.74l-30.3.87c-5,.11-10.1.25-15.15.26a64,64,0,0,0-15,2c-1.24.25-2.44.63-3.66,1s-2.43.67-3.64,1c-2.39.8-4.82,1.5-7.18,2.4l-3.56,1.29c-1.19.43-2.36.91-3.53,1.36-2.36.9-4.69,1.89-7,2.86-9.3,3.93-18.44,8.26-27.4,12.92a.11.11,0,0,1-.17-.05.13.13,0,0,1,0-.17Z"/>
      <path class="cls-3" d="M1008.63,230.4c11.17-4.25,22.46-8.21,33.88-11.75,5.72-1.76,11.47-3.41,17.29-4.76s11.78-2.47,17.78-2c11.94.57,23.84,1.74,35.75,2.76s23.82,2.14,35.74,3c3,.21,6,.38,9,.51s6,.21,9,.07c1.49-.08,3-.31,4.45-.49l4.44-.6,8.88-1.23,17.75-2.56,8.86-1.33,8.83-1.57c11.77-2.09,23.57-4,35.4-5.71,5.92-.83,11.85-1.62,17.79-2.27s11.89-1.23,17.87-1.39c-6,.17-11.93.77-17.87,1.41s-11.86,1.45-17.78,2.28c-11.84,1.69-23.63,3.64-35.4,5.74l-8.83,1.58-8.86,1.34L1184.76,216l-8.88,1.24-4.44.59c-1.48.19-3,.42-4.46.5-3,.14-6,.05-9-.07s-6-.29-9-.49c-11.93-.8-23.83-1.88-35.74-2.92s-23.81-2.17-35.75-2.73c-6-.45-11.91.68-17.72,2s-11.57,3-17.27,4.77c-11.42,3.55-22.7,7.52-33.86,11.77a.12.12,0,0,1-.17-.07.14.14,0,0,1,.07-.16Z"/>
      <path class="cls-3" d="M1007.09,235.05q12.51-2.61,25.07-5c8.37-1.56,16.76-3.07,25.2-4.24,2.11-.29,4.23-.55,6.35-.75,1.06-.1,2.12-.18,3.19-.22a14.93,14.93,0,0,1,3.2.14l12.54,2.46,25.1,4.8c8.37,1.57,16.74,3.12,25.14,4.58,4.19.71,8.39,1.44,12.61,2,.53.06,1.06.12,1.59.15s1.07,0,1.6.08c1.06.08,2.12.22,3.17.38,2.11.33,4.2.74,6.28,1.2a108.77,108.77,0,0,1,12.27,3.53,75.5,75.5,0,0,1,11.66,5.2,39.24,39.24,0,0,1,10.09,7.75,19.27,19.27,0,0,1,5.17,11.43,19.24,19.24,0,0,0-5.19-11.42A39.31,39.31,0,0,0,1182,249.4a74.52,74.52,0,0,0-11.66-5.17,106.1,106.1,0,0,0-12.27-3.52c-2.08-.46-4.17-.87-6.27-1.19-1-.16-2.11-.3-3.17-.38-.53,0-1.06,0-1.59-.07s-1.07-.09-1.59-.16c-4.23-.53-8.43-1.25-12.63-2-8.39-1.45-16.77-3-25.14-4.55l-25.11-4.77-12.54-2.45a15.12,15.12,0,0,0-3.16-.13c-1.06,0-2.13.13-3.18.23-2.12.2-4.23.46-6.34.75-8.44,1.19-16.82,2.7-25.19,4.27s-16.72,3.25-25.06,5a.12.12,0,0,1-.14-.1.12.12,0,0,1,.09-.15Z"/>
      <path class="cls-3" d="M998.62,274.65q36.57,11.69,73.37,22.68c12.27,3.64,24.57,7.2,36.94,10.49,6.18,1.63,12.38,3.23,18.65,4.53,1.57.31,3.14.62,4.72.85a20.56,20.56,0,0,0,4.76.29c1.6-.14,3.19-.28,4.79-.34s3.2-.16,4.8-.21c12.79-.42,25.59-.51,38.4-.55s25.6,0,38.4.25c3.2.05,6.39.14,9.59.24s6.4.2,9.59.53c6.33,1,12.72,1.35,19.1,1.86s12.77,1,19.14,1.55c3.19.29,6.37.61,9.54,1,1.59.2,3.18.43,4.75.72a23.23,23.23,0,0,1,4.63,1.22,23.93,23.93,0,0,0-4.63-1.22c-1.58-.29-3.16-.51-4.75-.71-3.17-.41-6.35-.73-9.54-1-6.37-.58-12.76-1-19.14-1.52s-12.78-.88-19.11-1.85c-3.18-.33-6.38-.41-9.58-.53s-6.4-.18-9.6-.23c-12.79-.21-25.59-.26-38.39-.22s-25.61.16-38.4.59c-1.6,0-3.2.12-4.79.21s-3.19.2-4.79.34a20.24,20.24,0,0,1-4.79-.29c-1.59-.22-3.16-.54-4.73-.84-6.27-1.3-12.47-2.89-18.66-4.52-12.38-3.28-24.68-6.83-37-10.46q-36.82-10.9-73.4-22.62a.13.13,0,0,1-.08-.16.12.12,0,0,1,.16-.08Z"/>
      <path class="cls-3" d="M1005.62,281.64c18.26,8,36.51,16.05,54.59,24.46,4.51,2.14,9,4.2,13.4,6.66a8.18,8.18,0,0,1,.79.51,6.24,6.24,0,0,0,.75.55,16,16,0,0,0,1.68.77c1.16.46,2.33.89,3.5,1.3,2.36.83,4.72,1.62,7.08,2.41,9.47,3.14,18.93,6.29,28.29,9.73a298.46,298.46,0,0,1,27.59,11.53,118.17,118.17,0,0,1,13,7.3c4.14,2.75,8.13,5.9,11,10,6,7.95,11.71,16.15,17,24.62,2.63,4.24,5.15,8.54,7.46,13,1.14,2.22,2.24,4.46,3.22,6.75a34.81,34.81,0,0,1,2.32,7.09,34.43,34.43,0,0,0-2.33-7.09c-1-2.29-2.08-4.53-3.23-6.74-2.31-4.42-4.83-8.72-7.46-12.95-5.27-8.47-11-16.66-17-24.6-2.88-4.1-6.86-7.24-11-10a117.05,117.05,0,0,0-13-7.29c-9-4.36-18.24-8-27.6-11.49s-18.82-6.57-28.29-9.71c-2.36-.78-4.73-1.57-7.08-2.39-1.18-.42-2.35-.84-3.51-1.3a17.58,17.58,0,0,1-1.71-.78,7.88,7.88,0,0,1-.76-.56,6.91,6.91,0,0,0-.78-.5c-4.33-2.44-8.88-4.51-13.39-6.64-18.08-8.39-36.34-16.42-54.61-24.4a.12.12,0,0,1-.07-.17.13.13,0,0,1,.17-.06Z"/>
      <path class="cls-3" d="M1007.84,223.42c12.82-6,25.71-11.77,38.79-17.14,3.27-1.34,6.56-2.64,9.87-3.87a102.35,102.35,0,0,1,10.09-3.28,22.83,22.83,0,0,1,2.62-.49c.9-.08,1.77,0,2.65-.11,1.76-.08,3.53-.19,5.29-.3l10.57-.73q42.29-3.15,84.49-7.28c14.06-1.43,28.13-2.85,42.12-4.87,1.75-.25,3.49-.55,5.23-.85a41,41,0,0,0,5.15-1.2c3.31-1.23,6.68-2.31,10.07-3.33,6.76-2.05,13.57-3.95,20.37-5.86,27.23-7.58,54.56-14.82,81.9-22-27.33,7.2-54.66,14.46-81.88,22.06-6.8,1.92-13.61,3.82-20.37,5.88-3.39,1-6.75,2.1-10.06,3.33a39.79,39.79,0,0,1-5.16,1.2c-1.74.31-3.49.61-5.24.86-14,2-28,3.46-42.11,4.9q-42.21,4.18-84.49,7.34l-10.58.74c-1.76.12-3.52.23-5.29.31-.88.06-1.78,0-2.64.11a20.74,20.74,0,0,0-2.59.49,101.8,101.8,0,0,0-10.06,3.28c-3.32,1.23-6.6,2.53-9.87,3.87-13.06,5.38-26,11.19-38.76,17.16a.12.12,0,0,1-.17-.06.12.12,0,0,1,.06-.16Z"/>
      <path class="cls-5" d="M938.5,231.28S870.7,197.07,845,194.22s-134.1-13.56-142.65-16.41-127-34.95-150.51-34.24S440,147,501.22,198.49c60.95,51.29,208.81,82.31,224,82.74,12.83.37,144.79,2.86,201.86-13.55"/>
      <path class="cls-5" d="M950.92,273.21l-4.66,4.65c-4.66,4.66-16.36,12.65-16.36,12.65-6.93,4.43-8.56,41.37,0,55.63s5.71,23.54,5.71,23.54c-11.77,52.65-152,52.08-211.63,49.41a194.57,194.57,0,0,1-41.26-6.41c-39.12-10.4-122.3-21.6-122.3-21.6-129.1-29.25-10.7-66.34,5.71-75.61s164-16.4,190.44-15.69S924.81,268.3,924.81,268.3l10.58-2.86"/>
      <path class="cls-3" d="M918.26,231.39c-9-4.66-18.1-9-27.4-12.92-2.33-1-4.66-2-7-2.86-1.17-.45-2.34-.93-3.53-1.36L876.75,213c-2.36-.9-4.79-1.6-7.18-2.4-1.21-.38-2.43-.7-3.64-1.05s-2.42-.71-3.66-1a64,64,0,0,0-15-2c-5,0-10.1-.15-15.15-.26l-30.3-.87c-10.1-.3-20.2-.57-30.31-.74s-20.21-.31-30.3.21c-1.26.08-2.52.1-3.79.14l-1.89.05-1.9-.09c-2.52-.05-5-.37-7.55-.64-5-.67-10-1.68-14.88-2.84a250.3,250.3,0,0,1-28.94-9h0q-20.61-6.25-41.3-12.2-10.35-3-20.75-5.74c-3.47-.93-7-1.8-10.44-2.65-1.75-.38-3.49-.83-5.25-1.16l-2.65-.5c-.88-.13-1.78-.19-2.67-.29.89.09,1.79.16,2.67.29l2.65.5c1.76.33,3.5.77,5.26,1.15,3.48.85,7,1.72,10.43,2.64q10.41,2.76,20.76,5.73,20.7,5.89,41.3,12.17h0a249.39,249.39,0,0,0,28.93,9c4.91,1.16,9.87,2.16,14.88,2.83,2.5.27,5,.58,7.54.64l1.89.08,1.89,0c1.26,0,2.52-.06,3.79-.14,10.09-.53,20.2-.37,30.31-.24s20.2.43,30.3.72l30.3.85c5.05.11,10.1.24,15.15.25a63.89,63.89,0,0,1,15,2c1.24.25,2.45.63,3.66,1s2.44.67,3.65,1.05c2.4.8,4.83,1.5,7.19,2.4l3.57,1.28c1.18.44,2.36.91,3.53,1.37,2.37.9,4.7,1.88,7,2.85q14,5.9,27.42,12.91a.13.13,0,0,1,.06.17.13.13,0,0,1-.17.06Z"/>
      <path class="cls-3" d="M911.28,230.62c-11.16-4.25-22.44-8.22-33.86-11.77-5.7-1.76-11.45-3.41-17.27-4.77s-11.74-2.47-17.72-2c-11.94.56-23.84,1.72-35.75,2.73s-23.81,2.12-35.74,2.92c-3,.2-6,.37-9,.49s-6,.21-9,.07c-1.5-.08-3-.31-4.46-.5l-4.44-.59-8.88-1.24-17.75-2.58L708.63,212l-8.83-1.59c-11.77-2.09-23.56-4.05-35.4-5.74-5.92-.83-11.84-1.63-17.78-2.28s-11.89-1.24-17.87-1.41c6,.16,11.93.76,17.87,1.4s11.87,1.43,17.79,2.26c11.83,1.68,23.63,3.62,35.4,5.71l8.83,1.58,8.86,1.32,17.75,2.56,8.88,1.24,4.44.59c1.49.18,3,.41,4.45.49,3,.14,6,0,9-.07s6-.3,8.95-.5c11.92-.81,23.83-1.9,35.74-3s23.81-2.2,35.75-2.77c6-.46,12,.68,17.78,2s11.57,3,17.29,4.76c11.42,3.54,22.71,7.5,33.88,11.75a.13.13,0,0,1,.08.16.14.14,0,0,1-.17.08Z"/>
      <path class="cls-3" d="M912.86,235.29q-12.51-2.62-25.06-5c-8.37-1.57-16.75-3.08-25.19-4.27-2.11-.29-4.22-.55-6.34-.75-1-.1-2.12-.19-3.18-.23a15.12,15.12,0,0,0-3.16.13l-12.54,2.45-25.11,4.77c-8.37,1.56-16.75,3.1-25.14,4.55-4.2.71-8.4,1.43-12.63,2-.52.07-1,.12-1.59.16s-1.06,0-1.59.07c-1.06.09-2.12.22-3.17.38-2.1.32-4.19.73-6.27,1.19a108.13,108.13,0,0,0-12.27,3.52A75.47,75.47,0,0,0,738,249.39a39.31,39.31,0,0,0-10.09,7.74,19.24,19.24,0,0,0-5.19,11.42,19.27,19.27,0,0,1,5.17-11.43,39.47,39.47,0,0,1,10.09-7.75,75.5,75.5,0,0,1,11.66-5.2,108.77,108.77,0,0,1,12.27-3.53c2.08-.46,4.17-.87,6.28-1.2,1.05-.16,2.11-.3,3.17-.38.53-.05,1.07,0,1.6-.08s1.06-.09,1.59-.15c4.22-.54,8.42-1.27,12.61-2,8.4-1.46,16.77-3,25.14-4.58l25.1-4.8L849.9,225a14.93,14.93,0,0,1,3.2-.14c1.07,0,2.13.12,3.19.22,2.12.2,4.24.46,6.35.75,8.44,1.17,16.83,2.68,25.2,4.24s16.73,3.23,25.07,5a.13.13,0,0,1,.09.15.12.12,0,0,1-.14.1Z"/>
      <path class="cls-3" d="M921.46,274.88q-36.6,11.65-73.4,22.62c-12.27,3.63-24.57,7.18-36.95,10.47-6.19,1.62-12.39,3.21-18.66,4.51-1.57.3-3.14.62-4.73.84a20.24,20.24,0,0,1-4.79.29c-1.6-.14-3.19-.28-4.79-.34s-3.19-.17-4.79-.21c-12.79-.43-25.6-.53-38.4-.59s-25.6,0-38.39.23c-3.2,0-6.4.13-9.6.22s-6.4.2-9.58.53c-6.33,1-12.73,1.33-19.11,1.85s-12.77.94-19.14,1.52c-3.19.3-6.37.62-9.54,1-1.59.2-3.17.43-4.75.71a23.93,23.93,0,0,0-4.63,1.22,23.23,23.23,0,0,1,4.63-1.22c1.57-.29,3.16-.52,4.75-.72,3.17-.41,6.35-.73,9.54-1,6.37-.59,12.76-1.06,19.14-1.55s12.77-.88,19.1-1.86c3.19-.33,6.39-.41,9.59-.53s6.39-.19,9.59-.24c12.8-.23,25.6-.28,38.4-.25s25.61.13,38.4.55c1.6.05,3.2.13,4.8.21s3.19.2,4.79.34a20.56,20.56,0,0,0,4.76-.29c1.58-.23,3.15-.54,4.72-.85,6.27-1.3,12.47-2.9,18.65-4.53,12.37-3.29,24.67-6.85,36.94-10.49q36.81-10.94,73.37-22.68a.13.13,0,0,1,.08.24Z"/>
      <path class="cls-3" d="M914.48,281.86c-18.27,8-36.53,16-54.61,24.4-4.51,2.13-9.06,4.2-13.39,6.64a8.67,8.67,0,0,0-.78.5,6.5,6.5,0,0,1-.76.56,15.48,15.48,0,0,1-1.71.78c-1.16.46-2.33.88-3.51,1.3-2.35.82-4.72,1.61-7.08,2.39-9.47,3.14-18.94,6.27-28.29,9.71s-18.64,7.13-27.6,11.49a117.05,117.05,0,0,0-13,7.29c-4.15,2.74-8.13,5.88-11,10-6,7.94-11.73,16.13-17,24.6-2.63,4.23-5.15,8.53-7.46,12.95-1.15,2.21-2.25,4.45-3.23,6.74a34.43,34.43,0,0,0-2.33,7.09,34.81,34.81,0,0,1,2.32-7.09c1-2.29,2.08-4.53,3.22-6.75,2.31-4.42,4.83-8.72,7.46-13,5.26-8.47,11-16.67,17-24.62,2.88-4.11,6.87-7.26,11-10a118.17,118.17,0,0,1,13.05-7.3A298.46,298.46,0,0,1,804.3,328c9.36-3.44,18.82-6.59,28.29-9.73,2.36-.79,4.72-1.58,7.08-2.41,1.17-.41,2.34-.83,3.5-1.3a16,16,0,0,0,1.68-.77,6.24,6.24,0,0,0,.75-.55,8.18,8.18,0,0,1,.79-.51c4.35-2.46,8.89-4.52,13.4-6.66,18.08-8.41,36.33-16.45,54.59-24.46a.13.13,0,0,1,.17.06.12.12,0,0,1-.07.17Z"/>
      <path class="cls-3" d="M911.39,286.51q-17.88,9.15-35.62,18.53t-35.35,19q-8.79,4.85-17.49,9.85c-5.79,3.36-11.56,6.76-17.16,10.41a60.3,60.3,0,0,0-8,6,78.32,78.32,0,0,0-6.13,7.93,123.88,123.88,0,0,0-9.92,17.43,124.48,124.48,0,0,1,9.89-17.45,78.47,78.47,0,0,1,6.12-8,61.69,61.69,0,0,1,8-6c5.61-3.67,11.37-7.08,17.15-10.44s11.62-6.64,17.48-9.88q17.57-9.74,35.32-19.1t35.59-18.58a.12.12,0,0,1,.17.06.12.12,0,0,1-.05.16Z"/>
      <path class="cls-3" d="M912.05,223.63c-12.81-6-25.7-11.78-38.76-17.16-3.27-1.34-6.55-2.64-9.87-3.87a101.8,101.8,0,0,0-10.06-3.28,19,19,0,0,0-2.59-.48c-.86-.09-1.76-.06-2.64-.12-1.77-.08-3.53-.19-5.29-.31l-10.58-.74q-42.28-3.18-84.49-7.34c-14.06-1.43-28.12-2.86-42.11-4.9-1.75-.25-3.5-.55-5.24-.86a39.79,39.79,0,0,1-5.16-1.2c-3.31-1.23-6.67-2.31-10.06-3.33-6.76-2.06-13.57-4-20.37-5.88-27.22-7.6-54.55-14.86-81.88-22.06,27.34,7.18,54.67,14.42,81.9,22,6.8,1.91,13.61,3.81,20.37,5.87,3.39,1,6.76,2.09,10.07,3.32a41,41,0,0,0,5.15,1.2c1.74.3,3.48.6,5.23.85,14,2,28.06,3.44,42.12,4.87q42.19,4.14,84.49,7.28l10.57.73c1.76.11,3.53.22,5.29.3.88.06,1.75,0,2.65.12a19.2,19.2,0,0,1,2.62.49,99.71,99.71,0,0,1,10.09,3.27c3.31,1.23,6.6,2.53,9.87,3.87,13.08,5.38,26,11.17,38.79,17.14a.12.12,0,0,1,.06.16.13.13,0,0,1-.17.07Z"/>
      <path class="cls-3" d="M969.83,664.09c0,7.07-4.52,21.35-10.09,21.35s-10.09-14.28-10.09-21.35,4.51-12.81,10.09-12.81S969.83,657,969.83,664.09Z"/>
      <g>
        <path class="cls-6" d="M957.41,179.63c0,11.43-8,15.18-17.86,15.18s-17.85-3.75-17.85-15.18,16.23-22.09,26.09-22.09S957.41,168.19,957.41,179.63Z"/>
        <path class="cls-6" d="M962.07,179.63c0,11.43,8,15.18,17.85,15.18s17.86-3.75,17.86-15.18-16.24-22.09-26.1-22.09S962.07,168.19,962.07,179.63Z"/>
      </g>
      <path class="cls-7" d="M957.41,179.63c0,11.43-8,15.18-17.86,15.18s-17.85-3.75-17.85-15.18,16.23-22.09,26.09-22.09S957.41,168.19,957.41,179.63Z"/>
      <path class="cls-8" d="M962.07,179.63c0,11.43,8,15.18,17.85,15.18s17.86-3.75,17.86-15.18-16.24-22.09-26.1-22.09S962.07,168.19,962.07,179.63Z"/>
      <g>
        <path class="cls-9" d="M950.42,413s-6.21,6.21-3.1,10.87,9.31,0,9.31,0S953.53,414.5,950.42,413Z"/>
        <path class="cls-9" d="M956.63,461.08c0,2.58-2.78,3.11-6.21,3.11s-6.21,1-6.21-1.55,2.78-7.77,6.21-7.77S956.63,458.51,956.63,461.08Z"/>
        <path class="cls-9" d="M959,512.56c0,3-3.13,3.61-7,3.61s-7,1.19-7-1.81,3.13-9,7-9S959,509.57,959,512.56Z"/>
        <path class="cls-9" d="M959,557c0,3.42-3.47,4.12-7.76,4.12s-7.76,1.36-7.76-2.06,3.47-10.29,7.76-10.29S959,553.63,959,557Z"/>
        <path class="cls-9" d="M956.63,608.58c0,2.58-2.43,4.66-5.43,4.66s-5.44-.53-5.44-3.1.11-7.77,3.11-7.77c1.28,0,2.91,2.47,4.66,3.11C955.86,606.33,956.63,607.11,956.63,608.58Z"/>
        <path class="cls-9" d="M958.19,658.27c0,2.57-2.44,4.66-5.44,4.66s-5.43-.54-5.43-3.11.1-10.87,3.1-10.87c1.29,0,2.92,5.57,4.66,6.21C957.41,656,958.19,656.8,958.19,658.27Z"/>
        <path class="cls-9" d="M958.19,338.43c0,5.14-7.12,6.21-14,6.21s-12.42-11.94-12.42-17.08,7.11-3.11,14-3.11S958.19,333.28,958.19,338.43Z"/>
        <path class="cls-9" d="M959.74,287.19s-12.42-4.66-10.87-6.21,4.66-12.42,6.21-12.42h4.66"/>
        <path class="cls-9" d="M948.87,204.9s-4.66,7.76-7.76,7.76,1.55,14,3.1,14,7.76,1.55,9.32-1.56S952,204.9,948.87,204.9Z"/>
        <path class="cls-9" d="M959.74,246.82s-9.32,14,0,14"/>
      </g>
      <g>
        <path class="cls-10" d="M948.94,395.09s9.25,5.44,9.25,7v-7.76h-9.32"/>
        <path class="cls-10" d="M933.34,299.61s15.53-7.76,18.63-6.21,1.56,3.1,1.56,3.1S947.32,298.06,933.34,299.61Z"/>
        <path class="cls-10" d="M952,433.14s6.22,0,6.22,1.55v6.21S952,434.69,952,433.14Z"/>
        <path class="cls-10" d="M951.2,472.73s7.76,0,7.76,2.48v9.94S951.2,475.21,951.2,472.73Z"/>
        <path class="cls-10" d="M954.3,524s5.44,0,5.44,1.55v6.21S954.3,525.52,954.3,524Z"/>
        <path class="cls-10" d="M954.3,569s5.44,0,5.44,1.55v6.21S954.3,570.54,954.3,569Z"/>
        <path class="cls-10" d="M959.74,621s-12.42-7.76-12.42,0,0,15.53,1.55,15.53,6.21,3.11,10.87,1.55"/>
        <path class="cls-10" d="M936.45,237.5s12.42-6.21,14-4.65-7.76,6.21-7.76,6.21S930.24,243.72,936.45,237.5Z"/>
      </g>
      <path class="cls-6" d="M969.16,413s6.21,6.21,3.1,10.87-9.31,0-9.31,0S966.05,414.5,969.16,413Z"/>
      <path class="cls-6" d="M963,461.08c0,2.58,2.78,3.11,6.21,3.11s6.21,1,6.21-1.55-2.78-7.77-6.21-7.77S963,458.51,963,461.08Z"/>
      <path class="cls-6" d="M960.62,512.56c0,3,3.13,3.61,7,3.61s7,1.19,7-1.81-3.12-9-7-9S960.62,509.57,960.62,512.56Z"/>
      <path class="cls-6" d="M960.62,557c0,3.42,3.48,4.12,7.76,4.12s7.77,1.36,7.77-2.06-3.48-10.29-7.77-10.29S960.62,553.63,960.62,557Z"/>
      <path class="cls-6" d="M963,608.58c0,2.58,2.43,4.66,5.43,4.66s5.44-.53,5.44-3.1-.11-7.77-3.11-7.77c-1.28,0-2.91,2.47-4.66,3.11C963.72,606.33,963,607.11,963,608.58Z"/>
      <path class="cls-6" d="M961.4,658.27c0,2.57,2.43,4.66,5.43,4.66s5.43-.54,5.43-3.11-.1-10.87-3.1-10.87c-1.29,0-2.91,5.57-4.66,6.21C962.17,656,961.4,656.8,961.4,658.27Z"/>
      <path class="cls-11" d="M970.65,395.09s-9.25,5.44-9.25,7v-7.76h9.31"/>
      <path class="cls-6" d="M961.4,338.43c0,5.14,7.11,6.21,14,6.21s12.42-11.94,12.42-17.08-7.11-3.11-14-3.11S961.4,333.28,961.4,338.43Z"/>
      <path class="cls-11" d="M986.24,299.61s-15.53-7.76-18.63-6.21-1.56,3.1-1.56,3.1S972.26,298.06,986.24,299.61Z"/>
      <path class="cls-11" d="M967.61,433.14s-6.21,0-6.21,1.55v6.21S967.61,434.69,967.61,433.14Z"/>
      <path class="cls-11" d="M968.38,472.73s-7.76,0-7.76,2.48v9.94S968.38,475.21,968.38,472.73Z"/>
      <path class="cls-11" d="M965.28,524s-5.44,0-5.44,1.55v6.21S965.28,525.52,965.28,524Z"/>
      <path class="cls-11" d="M965.28,569s-5.44,0-5.44,1.55v6.21S965.28,570.54,965.28,569Z"/>
      <path class="cls-11" d="M959.84,621s12.42-7.76,12.42,0,0,15.53-1.55,15.53-6.21,3.11-10.87,1.55"/>
      <path class="cls-6" d="M959.84,287.19s12.42-4.66,10.87-6.21-4.66-12.42-6.21-12.42h-4.66"/>
      <path class="cls-6" d="M970.71,204.9s4.66,7.76,7.77,7.76-1.56,14-3.11,14-7.76,1.55-9.32-1.56S967.61,204.9,970.71,204.9Z"/>
      <path class="cls-6" d="M959.84,246.82s9.32,14,0,14"/>
      <path class="cls-11" d="M983.13,237.5s-12.42-6.21-14-4.65,7.76,6.21,7.76,6.21S989.34,243.72,983.13,237.5Z"/>
      <path class="cls-12" d="M973,160s10.4.95,21.09,13.87a5.84,5.84,0,0,1,1.35,3.42c0,.68-1.06,1.33-1.44,1.71C993,180,986,163,973,160Z"/>
      <path class="cls-13" d="M940,162s12-7,14,3S949,157,940,162Z"/>
      <path class="cls-13" d="M967,146s13,2.66,13,5.33S969.29,148,967,146Z"/>
      <path class="cls-13" d="M957.52,145.07a.78.78,0,0,1,.85.61c.16.7.29,1.75-.17,2.21-.72.71-2.87-2.15-4.3-2.15C952.71,145.74,956,145.24,957.52,145.07Z"/>
      <path class="cls-13" d="M969.47,162a.57.57,0,0,0-.18,0,2,2,0,0,0-1.39,2.05c0,1.3,2.07.85,3.18.52a.81.81,0,0,0,.54-1A2.14,2.14,0,0,0,969.47,162Z"/>
    </g>
  </g>
  <g id="bublle">
    <g>
      <ellipse class="cls-14" cx="1718.61" cy="777.72" rx="119.82" ry="117.88" transform="translate(651.35 2333.17) rotate(-79.89)"/>
      <ellipse class="cls-15" cx="1715.72" cy="781.7" rx="114.65" ry="114.6" transform="translate(139.63 1816.44) rotate(-57.78)"/>
      <ellipse class="cls-16" cx="1733" cy="775.95" rx="104.2" ry="112.62" transform="translate(-46.76 114.24) rotate(-3.73)"/>
      <ellipse class="cls-17" cx="1713.14" cy="780.62" rx="113.29" ry="114.92" transform="translate(-47.1 112.96) rotate(-3.73)"/>
      <ellipse class="cls-18" cx="1716.52" cy="776.13" rx="117.2" ry="117.09" transform="matrix(0.96, -0.27, 0.27, 0.96, -145.45, 489.98)"/>
      <ellipse class="cls-19" cx="1718.61" cy="776.81" rx="118.82" ry="118.76" transform="translate(186.57 1876.77) rotate(-60)"/>
      <ellipse class="cls-20" cx="1718.61" cy="777.73" rx="120.74" ry="120.73"/>
      <path class="cls-21" d="M1711,684.94c1.46-4.41,21.09-10,43.4-2.61s38.84,24.92,37.38,29.33-16-11.61-38.27-19S1709.56,689.36,1711,684.94Z"/>
      <g class="cls-22">
        <path class="cls-23" d="M1685.86,863.8c-5.55,4-30.44-1.7-46-23.34s-16-51-10.41-55,5.3,22.49,20.88,44.13S1691.42,859.8,1685.86,863.8Z"/>
      </g>
      <g class="cls-24">
        <ellipse class="cls-13" cx="1788.47" cy="742.51" rx="5.33" ry="6.62" transform="translate(-131.64 993.71) rotate(-30)"/>
      </g>
      <g class="cls-25">
        <ellipse class="cls-13" cx="1646.16" cy="764.85" rx="3.06" ry="4.33" transform="translate(-124.89 367.07) rotate(-12.26)"/>
      </g>
    </g>
    <g>
      <ellipse class="cls-26" cx="525.28" cy="624.3" rx="100.54" ry="98.91" transform="translate(-181.51 1031.86) rotate(-79.89)"/>
      <ellipse class="cls-27" cx="522.85" cy="627.64" rx="96.21" ry="96.16" transform="translate(-286.9 735.34) rotate(-57.78)"/>
      <ellipse class="cls-28" cx="537.35" cy="622.81" rx="87.43" ry="94.5" transform="translate(-39.33 36.23) rotate(-3.73)"/>
      <ellipse class="cls-29" cx="520.69" cy="626.73" rx="95.06" ry="96.43" transform="translate(-39.62 35.16) rotate(-3.73)"/>
      <ellipse class="cls-30" cx="523.52" cy="622.97" rx="98.35" ry="98.25" transform="translate(-148.19 163.65) rotate(-15.59)"/>
      <ellipse class="cls-31" cx="525.28" cy="623.53" rx="99.7" ry="99.65" transform="translate(-277.35 766.67) rotate(-60)"/>
      <ellipse class="cls-32" cx="525.28" cy="624.3" rx="101.31" ry="101.3"/>
      <path class="cls-33" d="M518.9,546.45c1.23-3.7,17.7-8.38,36.42-2.19s32.6,20.91,31.37,24.61-13.4-9.75-32.12-15.94S517.68,550.15,518.9,546.45Z"/>
      <g class="cls-22">
        <path class="cls-34" d="M497.8,696.52c-4.66,3.36-25.55-1.42-38.62-19.58s-13.39-42.82-8.73-46.18,4.44,18.88,17.51,37S502.46,693.17,497.8,696.52Z"/>
      </g>
      <g class="cls-24">
        <ellipse class="cls-13" cx="583.89" cy="594.75" rx="4.48" ry="5.55" transform="translate(-219.15 371.63) rotate(-30)"/>
      </g>
      <g class="cls-25">
        <ellipse class="cls-13" cx="464.48" cy="613.5" rx="2.57" ry="3.64" transform="translate(-119.7 112.65) rotate(-12.26)"/>
      </g>
    </g>
    <g>
      <ellipse class="cls-35" cx="177.78" cy="293.8" rx="81.19" ry="79.87" transform="translate(-142.66 417.26) rotate(-79.89)"/>
      <ellipse class="cls-36" cx="175.82" cy="296.49" rx="77.69" ry="77.65" transform="translate(-168.76 287.16) rotate(-57.78)"/>
      <ellipse class="cls-37" cx="187.53" cy="292.6" rx="70.6" ry="76.31" transform="matrix(1, -0.06, 0.06, 1, -18.62, 12.8)"/>
      <ellipse class="cls-38" cx="174.07" cy="295.77" rx="76.76" ry="77.87" transform="translate(-18.85 11.94) rotate(-3.73)"/>
      <ellipse class="cls-39" cx="176.36" cy="292.72" rx="79.42" ry="79.34" transform="translate(-72.19 58.18) rotate(-15.59)"/>
      <ellipse class="cls-40" cx="177.78" cy="293.18" rx="80.51" ry="80.47" transform="translate(-165.01 300.55) rotate(-60)"/>
      <ellipse class="cls-41" cx="177.78" cy="293.8" rx="81.81" ry="81.8"/>
      <path class="cls-42" d="M172.63,230.93c1-3,14.29-6.76,29.41-1.76s26.32,16.88,25.33,19.87-10.82-7.87-25.93-12.87S171.64,233.92,172.63,230.93Z"/>
      <g class="cls-22">
        <path class="cls-43" d="M155.59,352.12c-3.76,2.71-20.63-1.15-31.19-15.81s-10.81-34.58-7.05-37.29,3.59,15.24,14.15,29.9S159.35,349.41,155.59,352.12Z"/>
      </g>
      <g class="cls-24">
        <ellipse class="cls-13" cx="225.11" cy="269.94" rx="3.61" ry="4.48" transform="translate(-104.81 148.72) rotate(-30)"/>
      </g>
      <g class="cls-25">
        <ellipse class="cls-13" cx="128.68" cy="285.08" rx="2.07" ry="2.94" transform="translate(-57.61 33.83) rotate(-12.26)"/>
      </g>
    </g>
    <g>
      <ellipse class="cls-44" cx="1876.58" cy="404.45" rx="76" ry="74.77" transform="translate(1149.07 2180.93) rotate(-79.89)"/>
      <ellipse class="cls-45" cx="1874.74" cy="406.98" rx="72.72" ry="72.69" transform="translate(530.89 1776.04) rotate(-57.78)"/>
      <ellipse class="cls-46" cx="1885.71" cy="403.33" rx="66.09" ry="71.43" transform="translate(-22.22 123.38) rotate(-3.73)"/>
      <ellipse class="cls-47" cx="1873.11" cy="406.3" rx="71.86" ry="72.89" transform="translate(-22.44 122.57) rotate(-3.73)"/>
      <ellipse class="cls-48" cx="1875.25" cy="403.45" rx="74.34" ry="74.27" transform="translate(-39.43 518.93) rotate(-15.59)"/>
      <ellipse class="cls-49" cx="1876.58" cy="403.87" rx="75.37" ry="75.33" transform="translate(588.53 1827.1) rotate(-60)"/>
      <ellipse class="cls-50" cx="1876.58" cy="404.46" rx="76.58" ry="76.58"/>
      <path class="cls-51" d="M1871.76,345.61c.93-2.8,13.38-6.34,27.53-1.66s24.64,15.81,23.71,18.6-10.13-7.36-24.27-12S1870.84,348.41,1871.76,345.61Z"/>
      <g class="cls-22">
        <path class="cls-52" d="M1855.81,459.05c-3.52,2.53-19.31-1.08-29.19-14.8s-10.13-32.37-6.6-34.91,3.35,14.27,13.24,28S1859.33,456.51,1855.81,459.05Z"/>
      </g>
      <g class="cls-24">
        <ellipse class="cls-13" cx="1920.89" cy="382.12" rx="3.38" ry="4.2" transform="translate(66.29 1011.64) rotate(-30)"/>
      </g>
      <g class="cls-25">
        <ellipse class="cls-13" cx="1830.62" cy="396.29" rx="1.94" ry="2.75" transform="translate(-42.4 397.84) rotate(-12.26)"/>
      </g>
    </g>
    <g>
      <ellipse class="cls-53" cx="1548.64" cy="591.51" rx="57.09" ry="56.16" transform="translate(694.53 2012.31) rotate(-79.89)"/>
      <ellipse class="cls-54" cx="1547.26" cy="593.41" rx="54.62" ry="54.6" transform="translate(220.28 1586.02) rotate(-57.78)"/>
      <ellipse class="cls-55" cx="1555.5" cy="590.67" rx="49.64" ry="53.65" transform="translate(-35.09 102.32) rotate(-3.73)"/>
      <ellipse class="cls-56" cx="1546.03" cy="592.9" rx="53.97" ry="54.75" transform="translate(-35.26 101.71) rotate(-3.73)"/>
      <ellipse class="cls-57" cx="1547.64" cy="590.76" rx="55.84" ry="55.78" transform="translate(-101.84 437.76) rotate(-15.59)"/>
      <ellipse class="cls-58" cx="1548.64" cy="591.08" rx="56.61" ry="56.58" transform="translate(262.43 1636.7) rotate(-60)"/>
      <circle class="cls-59" cx="1548.64" cy="591.52" r="57.52"/>
      <path class="cls-60" d="M1545,547.31c.7-2.1,10-4.76,20.68-1.24s18.5,11.87,17.81,14-7.61-5.53-18.24-9S1544.33,549.41,1545,547.31Z"/>
      <g class="cls-22">
        <path class="cls-61" d="M1533,632.52c-2.65,1.91-14.5-.81-21.93-11.12s-7.6-24.31-5-26.22,2.53,10.72,9.95,21S1535.68,630.62,1533,632.52Z"/>
      </g>
      <g class="cls-24">
        <ellipse class="cls-13" cx="1581.92" cy="574.74" rx="2.54" ry="3.15" transform="matrix(0.87, -0.5, 0.5, 0.87, -75.43, 867.96)"/>
      </g>
      <g class="cls-25">
        <ellipse class="cls-13" cx="1514.12" cy="585.38" rx="1.46" ry="2.06" transform="translate(-89.78 334.94) rotate(-12.26)"/>
      </g>
    </g>
    <g>
      <ellipse class="cls-62" cx="747.64" cy="28.51" rx="57.09" ry="56.16" transform="translate(588.36 759.55) rotate(-79.89)"/>
      <ellipse class="cls-63" cx="746.26" cy="30.41" rx="54.62" ry="54.6" transform="translate(322.65 645.54) rotate(-57.78)"/>
      <ellipse class="cls-64" cx="754.5" cy="27.67" rx="49.64" ry="53.65" transform="translate(-0.2 49.08) rotate(-3.73)"/>
      <ellipse class="cls-65" cx="745.03" cy="29.9" rx="53.97" ry="54.75" transform="translate(-0.37 48.47) rotate(-3.73)"/>
      <ellipse class="cls-66" cx="746.64" cy="27.76" rx="55.84" ry="55.78" transform="translate(20.02 201.72) rotate(-15.59)"/>
      <ellipse class="cls-67" cx="747.64" cy="28.08" rx="56.61" ry="56.58" transform="translate(349.5 661.51) rotate(-60)"/>
      <circle class="cls-68" cx="747.64" cy="28.52" r="57.52"/>
      <g class="cls-22">
        <path class="cls-69" d="M732,69.52c-2.65,1.91-14.5-.81-21.93-11.12s-7.6-24.31-5-26.22,2.53,10.72,10,21S734.68,67.62,732,69.52Z"/>
      </g>
      <g class="cls-24">
        <ellipse class="cls-13" cx="780.92" cy="11.74" rx="2.54" ry="3.15" transform="translate(98.76 392.03) rotate(-30)"/>
      </g>
      <g class="cls-25">
        <ellipse class="cls-13" cx="713.12" cy="22.38" rx="1.46" ry="2.06" transform="translate(11.52 151.97) rotate(-12.26)"/>
      </g>
    </g>
    <g>
      <ellipse class="cls-70" cx="116.52" cy="166.51" rx="43.19" ry="42.49" transform="matrix(0.18, -0.98, 0.98, 0.18, -67.86, 252)"/>
      <ellipse class="cls-71" cx="115.48" cy="167.95" rx="41.33" ry="41.31" transform="translate(-88.18 176.1) rotate(-57.78)"/>
      <ellipse class="cls-72" cx="121.71" cy="165.88" rx="37.56" ry="40.59" transform="translate(-10.52 8.26) rotate(-3.73)"/>
      <ellipse class="cls-73" cx="114.55" cy="167.56" rx="40.83" ry="41.42" transform="translate(-10.65 7.8) rotate(-3.73)"/>
      <ellipse class="cls-74" cx="115.76" cy="165.94" rx="42.25" ry="42.21" transform="translate(-40.35 37.23) rotate(-15.59)"/>
      <ellipse class="cls-75" cx="116.52" cy="166.18" rx="42.83" ry="42.81" transform="translate(-85.66 184) rotate(-60)"/>
      <circle class="cls-76" cx="116.52" cy="166.52" r="43.52"/>
      <path class="cls-77" d="M113.78,133.07c.53-1.59,7.6-3.6,15.64-.94s14,9,13.48,10.57-5.75-4.18-13.8-6.84S113.26,134.66,113.78,133.07Z"/>
      <g class="cls-22">
        <path class="cls-78" d="M104.71,197.54c-2,1.44-11-.61-16.58-8.41s-5.76-18.4-3.76-19.84,1.91,8.11,7.53,15.91S106.72,196.1,104.71,197.54Z"/>
      </g>
      <g class="cls-24">
        <ellipse class="cls-13" cx="141.7" cy="153.82" rx="1.92" ry="2.39" transform="translate(-57.93 91.46) rotate(-30)"/>
      </g>
      <g class="cls-25">
        <ellipse class="cls-13" cx="90.4" cy="161.87" rx="1.1" ry="1.56" transform="translate(-32.32 22.89) rotate(-12.26)"/>
      </g>
    </g>
  </g>
</svg>
